G04 #@! TF.GenerationSoftware,KiCad,Pcbnew,(5.0.1-3-g963ef8bb5)*
G04 #@! TF.CreationDate,2020-08-18T12:47:58+01:00*
G04 #@! TF.ProjectId,ACE-keyboard,4143452D6B6579626F6172642E6B6963,v01*
G04 #@! TF.SameCoordinates,Original*
G04 #@! TF.FileFunction,Legend,Top*
G04 #@! TF.FilePolarity,Positive*
%FSLAX46Y46*%
G04 Gerber Fmt 4.6, Leading zero omitted, Abs format (unit mm)*
G04 Created by KiCad (PCBNEW (5.0.1-3-g963ef8bb5)) date Tuesday, 18 August 2020 at 12:47:58*
%MOMM*%
%LPD*%
G01*
G04 APERTURE LIST*
%ADD10C,0.300000*%
%ADD11C,0.120000*%
%ADD12C,0.150000*%
G04 APERTURE END LIST*
D10*
X13609214Y-98595571D02*
X13609214Y-97095571D01*
X14180642Y-97095571D01*
X14323500Y-97167000D01*
X14394928Y-97238428D01*
X14466357Y-97381285D01*
X14466357Y-97595571D01*
X14394928Y-97738428D01*
X14323500Y-97809857D01*
X14180642Y-97881285D01*
X13609214Y-97881285D01*
X15323500Y-98595571D02*
X15180642Y-98524142D01*
X15109214Y-98452714D01*
X15037785Y-98309857D01*
X15037785Y-97881285D01*
X15109214Y-97738428D01*
X15180642Y-97667000D01*
X15323500Y-97595571D01*
X15537785Y-97595571D01*
X15680642Y-97667000D01*
X15752071Y-97738428D01*
X15823500Y-97881285D01*
X15823500Y-98309857D01*
X15752071Y-98452714D01*
X15680642Y-98524142D01*
X15537785Y-98595571D01*
X15323500Y-98595571D01*
X16323500Y-97595571D02*
X16609214Y-98595571D01*
X16894928Y-97881285D01*
X17180642Y-98595571D01*
X17466357Y-97595571D01*
X18609214Y-98524142D02*
X18466357Y-98595571D01*
X18180642Y-98595571D01*
X18037785Y-98524142D01*
X17966357Y-98381285D01*
X17966357Y-97809857D01*
X18037785Y-97667000D01*
X18180642Y-97595571D01*
X18466357Y-97595571D01*
X18609214Y-97667000D01*
X18680642Y-97809857D01*
X18680642Y-97952714D01*
X17966357Y-98095571D01*
X19323500Y-98595571D02*
X19323500Y-97595571D01*
X19323500Y-97881285D02*
X19394928Y-97738428D01*
X19466357Y-97667000D01*
X19609214Y-97595571D01*
X19752071Y-97595571D01*
X47688357Y-52315857D02*
X47402642Y-52173000D01*
X47116928Y-51887285D01*
X46688357Y-51458714D01*
X46402642Y-51315857D01*
X46116928Y-51315857D01*
X46259785Y-52030142D02*
X45974071Y-51887285D01*
X45688357Y-51601571D01*
X45545500Y-51030142D01*
X45545500Y-50030142D01*
X45688357Y-49458714D01*
X45974071Y-49173000D01*
X46259785Y-49030142D01*
X46831214Y-49030142D01*
X47116928Y-49173000D01*
X47402642Y-49458714D01*
X47545500Y-50030142D01*
X47545500Y-51030142D01*
X47402642Y-51601571D01*
X47116928Y-51887285D01*
X46831214Y-52030142D01*
X46259785Y-52030142D01*
X65579785Y-49030142D02*
X66294071Y-52030142D01*
X66865500Y-49887285D01*
X67436928Y-52030142D01*
X68151214Y-49030142D01*
X86542642Y-50458714D02*
X87542642Y-50458714D01*
X87971214Y-52030142D02*
X86542642Y-52030142D01*
X86542642Y-49030142D01*
X87971214Y-49030142D01*
X108434071Y-52030142D02*
X107434071Y-50601571D01*
X106719785Y-52030142D02*
X106719785Y-49030142D01*
X107862642Y-49030142D01*
X108148357Y-49173000D01*
X108291214Y-49315857D01*
X108434071Y-49601571D01*
X108434071Y-50030142D01*
X108291214Y-50315857D01*
X108148357Y-50458714D01*
X107862642Y-50601571D01*
X106719785Y-50601571D01*
X126714357Y-49030142D02*
X128428642Y-49030142D01*
X127571500Y-52030142D02*
X127571500Y-49030142D01*
X147891500Y-50601571D02*
X147891500Y-52030142D01*
X146891500Y-49030142D02*
X147891500Y-50601571D01*
X148891500Y-49030142D01*
X167100357Y-49030142D02*
X167100357Y-51458714D01*
X167243214Y-51744428D01*
X167386071Y-51887285D01*
X167671785Y-52030142D01*
X168243214Y-52030142D01*
X168528928Y-51887285D01*
X168671785Y-51744428D01*
X168814642Y-51458714D01*
X168814642Y-49030142D01*
X188277500Y-52030142D02*
X188277500Y-49030142D01*
X208311785Y-49030142D02*
X208883214Y-49030142D01*
X209168928Y-49173000D01*
X209454642Y-49458714D01*
X209597500Y-50030142D01*
X209597500Y-51030142D01*
X209454642Y-51601571D01*
X209168928Y-51887285D01*
X208883214Y-52030142D01*
X208311785Y-52030142D01*
X208026071Y-51887285D01*
X207740357Y-51601571D01*
X207597500Y-51030142D01*
X207597500Y-50030142D01*
X207740357Y-49458714D01*
X208026071Y-49173000D01*
X208311785Y-49030142D01*
X228131785Y-52030142D02*
X228131785Y-49030142D01*
X229274642Y-49030142D01*
X229560357Y-49173000D01*
X229703214Y-49315857D01*
X229846071Y-49601571D01*
X229846071Y-50030142D01*
X229703214Y-50315857D01*
X229560357Y-50458714D01*
X229274642Y-50601571D01*
X228131785Y-50601571D01*
X230886357Y-69254714D02*
X231886357Y-69254714D01*
X232314928Y-70826142D02*
X230886357Y-70826142D01*
X230886357Y-67826142D01*
X232314928Y-67826142D01*
X233600642Y-68826142D02*
X233600642Y-70826142D01*
X233600642Y-69111857D02*
X233743500Y-68969000D01*
X234029214Y-68826142D01*
X234457785Y-68826142D01*
X234743500Y-68969000D01*
X234886357Y-69254714D01*
X234886357Y-70826142D01*
X235886357Y-68826142D02*
X237029214Y-68826142D01*
X236314928Y-67826142D02*
X236314928Y-70397571D01*
X236457785Y-70683285D01*
X236743500Y-70826142D01*
X237029214Y-70826142D01*
X214352071Y-70826142D02*
X212923500Y-70826142D01*
X212923500Y-67826142D01*
X192825785Y-70826142D02*
X192825785Y-67826142D01*
X194540071Y-70826142D02*
X193254357Y-69111857D01*
X194540071Y-67826142D02*
X192825785Y-69540428D01*
X173466071Y-67826142D02*
X173466071Y-69969000D01*
X173323214Y-70397571D01*
X173037500Y-70683285D01*
X172608928Y-70826142D01*
X172323214Y-70826142D01*
X151606357Y-70826142D02*
X151606357Y-67826142D01*
X151606357Y-69254714D02*
X153320642Y-69254714D01*
X153320642Y-70826142D02*
X153320642Y-67826142D01*
X133437214Y-67969000D02*
X133151500Y-67826142D01*
X132722928Y-67826142D01*
X132294357Y-67969000D01*
X132008642Y-68254714D01*
X131865785Y-68540428D01*
X131722928Y-69111857D01*
X131722928Y-69540428D01*
X131865785Y-70111857D01*
X132008642Y-70397571D01*
X132294357Y-70683285D01*
X132722928Y-70826142D01*
X133008642Y-70826142D01*
X133437214Y-70683285D01*
X133580071Y-70540428D01*
X133580071Y-69540428D01*
X133008642Y-69540428D01*
X113014071Y-69254714D02*
X112014071Y-69254714D01*
X112014071Y-70826142D02*
X112014071Y-67826142D01*
X113442642Y-67826142D01*
X91225785Y-70826142D02*
X91225785Y-67826142D01*
X91940071Y-67826142D01*
X92368642Y-67969000D01*
X92654357Y-68254714D01*
X92797214Y-68540428D01*
X92940071Y-69111857D01*
X92940071Y-69540428D01*
X92797214Y-70111857D01*
X92654357Y-70397571D01*
X92368642Y-70683285D01*
X91940071Y-70826142D01*
X91225785Y-70826142D01*
X70834357Y-70683285D02*
X71262928Y-70826142D01*
X71977214Y-70826142D01*
X72262928Y-70683285D01*
X72405785Y-70540428D01*
X72548642Y-70254714D01*
X72548642Y-69969000D01*
X72405785Y-69683285D01*
X72262928Y-69540428D01*
X71977214Y-69397571D01*
X71405785Y-69254714D01*
X71120071Y-69111857D01*
X70977214Y-68969000D01*
X70834357Y-68683285D01*
X70834357Y-68397571D01*
X70977214Y-68111857D01*
X71120071Y-67969000D01*
X71405785Y-67826142D01*
X72120071Y-67826142D01*
X72548642Y-67969000D01*
X50657214Y-69969000D02*
X52085785Y-69969000D01*
X50371500Y-70826142D02*
X51371500Y-67826142D01*
X52371500Y-70826142D01*
X40584928Y-90241285D02*
X41013500Y-90384142D01*
X41727785Y-90384142D01*
X42013500Y-90241285D01*
X42156357Y-90098428D01*
X42299214Y-89812714D01*
X42299214Y-89527000D01*
X42156357Y-89241285D01*
X42013500Y-89098428D01*
X41727785Y-88955571D01*
X41156357Y-88812714D01*
X40870642Y-88669857D01*
X40727785Y-88527000D01*
X40584928Y-88241285D01*
X40584928Y-87955571D01*
X40727785Y-87669857D01*
X40870642Y-87527000D01*
X41156357Y-87384142D01*
X41870642Y-87384142D01*
X42299214Y-87527000D01*
X43584928Y-90384142D02*
X43584928Y-87384142D01*
X44870642Y-90384142D02*
X44870642Y-88812714D01*
X44727785Y-88527000D01*
X44442071Y-88384142D01*
X44013500Y-88384142D01*
X43727785Y-88527000D01*
X43584928Y-88669857D01*
X45870642Y-88384142D02*
X47013500Y-88384142D01*
X46299214Y-90384142D02*
X46299214Y-87812714D01*
X46442071Y-87527000D01*
X46727785Y-87384142D01*
X47013500Y-87384142D01*
X47584928Y-88384142D02*
X48727785Y-88384142D01*
X48013500Y-87384142D02*
X48013500Y-89955571D01*
X48156357Y-90241285D01*
X48442071Y-90384142D01*
X48727785Y-90384142D01*
X63833500Y-87384142D02*
X65833500Y-87384142D01*
X63833500Y-90384142D01*
X65833500Y-90384142D01*
X84153500Y-87384142D02*
X86153500Y-90384142D01*
X86153500Y-87384142D02*
X84153500Y-90384142D01*
X106402071Y-90098428D02*
X106259214Y-90241285D01*
X105830642Y-90384142D01*
X105544928Y-90384142D01*
X105116357Y-90241285D01*
X104830642Y-89955571D01*
X104687785Y-89669857D01*
X104544928Y-89098428D01*
X104544928Y-88669857D01*
X104687785Y-88098428D01*
X104830642Y-87812714D01*
X105116357Y-87527000D01*
X105544928Y-87384142D01*
X105830642Y-87384142D01*
X106259214Y-87527000D01*
X106402071Y-87669857D01*
X124539500Y-87384142D02*
X125539500Y-90384142D01*
X126539500Y-87384142D01*
X146327785Y-88812714D02*
X146756357Y-88955571D01*
X146899214Y-89098428D01*
X147042071Y-89384142D01*
X147042071Y-89812714D01*
X146899214Y-90098428D01*
X146756357Y-90241285D01*
X146470642Y-90384142D01*
X145327785Y-90384142D01*
X145327785Y-87384142D01*
X146327785Y-87384142D01*
X146613500Y-87527000D01*
X146756357Y-87669857D01*
X146899214Y-87955571D01*
X146899214Y-88241285D01*
X146756357Y-88527000D01*
X146613500Y-88669857D01*
X146327785Y-88812714D01*
X145327785Y-88812714D01*
X165322357Y-90384142D02*
X165322357Y-87384142D01*
X167036642Y-90384142D01*
X167036642Y-87384142D01*
X185245500Y-90384142D02*
X185245500Y-87384142D01*
X186245500Y-89527000D01*
X187245500Y-87384142D01*
X187245500Y-90384142D01*
X202819500Y-90241285D02*
X203248071Y-90384142D01*
X203962357Y-90384142D01*
X204248071Y-90241285D01*
X204390928Y-90098428D01*
X204533785Y-89812714D01*
X204533785Y-89527000D01*
X204390928Y-89241285D01*
X204248071Y-89098428D01*
X203962357Y-88955571D01*
X203390928Y-88812714D01*
X203105214Y-88669857D01*
X202962357Y-88527000D01*
X202819500Y-88241285D01*
X202819500Y-87955571D01*
X202962357Y-87669857D01*
X203105214Y-87527000D01*
X203390928Y-87384142D01*
X204105214Y-87384142D01*
X204533785Y-87527000D01*
X205533785Y-88384142D02*
X206248071Y-90384142D01*
X206962357Y-88384142D02*
X206248071Y-90384142D01*
X205962357Y-91098428D01*
X205819500Y-91241285D01*
X205533785Y-91384142D01*
X208105214Y-90384142D02*
X208105214Y-88384142D01*
X208105214Y-88669857D02*
X208248071Y-88527000D01*
X208533785Y-88384142D01*
X208962357Y-88384142D01*
X209248071Y-88527000D01*
X209390928Y-88812714D01*
X209390928Y-90384142D01*
X209390928Y-88812714D02*
X209533785Y-88527000D01*
X209819500Y-88384142D01*
X210248071Y-88384142D01*
X210533785Y-88527000D01*
X210676642Y-88812714D01*
X210676642Y-90384142D01*
X223385500Y-90241285D02*
X223814071Y-90384142D01*
X224528357Y-90384142D01*
X224814071Y-90241285D01*
X224956928Y-90098428D01*
X225099785Y-89812714D01*
X225099785Y-89527000D01*
X224956928Y-89241285D01*
X224814071Y-89098428D01*
X224528357Y-88955571D01*
X223956928Y-88812714D01*
X223671214Y-88669857D01*
X223528357Y-88527000D01*
X223385500Y-88241285D01*
X223385500Y-87955571D01*
X223528357Y-87669857D01*
X223671214Y-87527000D01*
X223956928Y-87384142D01*
X224671214Y-87384142D01*
X225099785Y-87527000D01*
X226385500Y-88384142D02*
X226385500Y-91384142D01*
X226385500Y-88527000D02*
X226671214Y-88384142D01*
X227242642Y-88384142D01*
X227528357Y-88527000D01*
X227671214Y-88669857D01*
X227814071Y-88955571D01*
X227814071Y-89812714D01*
X227671214Y-90098428D01*
X227528357Y-90241285D01*
X227242642Y-90384142D01*
X226671214Y-90384142D01*
X226385500Y-90241285D01*
X230385500Y-90241285D02*
X230099785Y-90384142D01*
X229528357Y-90384142D01*
X229242642Y-90241285D01*
X229099785Y-90098428D01*
X228956928Y-89812714D01*
X228956928Y-88955571D01*
X229099785Y-88669857D01*
X229242642Y-88527000D01*
X229528357Y-88384142D01*
X230099785Y-88384142D01*
X230385500Y-88527000D01*
X304038357Y-88558714D02*
X305038357Y-88558714D01*
X305466928Y-90130142D02*
X304038357Y-90130142D01*
X304038357Y-87130142D01*
X305466928Y-87130142D01*
X306752642Y-88130142D02*
X306752642Y-90130142D01*
X306752642Y-88415857D02*
X306895500Y-88273000D01*
X307181214Y-88130142D01*
X307609785Y-88130142D01*
X307895500Y-88273000D01*
X308038357Y-88558714D01*
X308038357Y-90130142D01*
X309038357Y-88130142D02*
X310181214Y-88130142D01*
X309466928Y-87130142D02*
X309466928Y-89701571D01*
X309609785Y-89987285D01*
X309895500Y-90130142D01*
X310181214Y-90130142D01*
X287702642Y-87130142D02*
X287988357Y-87130142D01*
X288274071Y-87273000D01*
X288416928Y-87415857D01*
X288559785Y-87701571D01*
X288702642Y-88273000D01*
X288702642Y-88987285D01*
X288559785Y-89558714D01*
X288416928Y-89844428D01*
X288274071Y-89987285D01*
X287988357Y-90130142D01*
X287702642Y-90130142D01*
X287416928Y-89987285D01*
X287274071Y-89844428D01*
X287131214Y-89558714D01*
X286988357Y-88987285D01*
X286988357Y-88273000D01*
X287131214Y-87701571D01*
X287274071Y-87415857D01*
X287416928Y-87273000D01*
X287702642Y-87130142D01*
X264866928Y-89987285D02*
X265295500Y-90130142D01*
X266009785Y-90130142D01*
X266295500Y-89987285D01*
X266438357Y-89844428D01*
X266581214Y-89558714D01*
X266581214Y-89273000D01*
X266438357Y-88987285D01*
X266295500Y-88844428D01*
X266009785Y-88701571D01*
X265438357Y-88558714D01*
X265152642Y-88415857D01*
X265009785Y-88273000D01*
X264866928Y-87987285D01*
X264866928Y-87701571D01*
X265009785Y-87415857D01*
X265152642Y-87273000D01*
X265438357Y-87130142D01*
X266152642Y-87130142D01*
X266581214Y-87273000D01*
X267866928Y-90130142D02*
X267866928Y-87130142D01*
X269152642Y-90130142D02*
X269152642Y-88558714D01*
X269009785Y-88273000D01*
X268724071Y-88130142D01*
X268295500Y-88130142D01*
X268009785Y-88273000D01*
X267866928Y-88415857D01*
X270152642Y-88130142D02*
X271295500Y-88130142D01*
X270581214Y-90130142D02*
X270581214Y-87558714D01*
X270724071Y-87273000D01*
X271009785Y-87130142D01*
X271295500Y-87130142D01*
X271866928Y-88130142D02*
X273009785Y-88130142D01*
X272295500Y-87130142D02*
X272295500Y-89701571D01*
X272438357Y-89987285D01*
X272724071Y-90130142D01*
X273009785Y-90130142D01*
X306324071Y-71334142D02*
X306895500Y-71334142D01*
X307181214Y-71191285D01*
X307324071Y-71048428D01*
X307609785Y-70619857D01*
X307752642Y-70048428D01*
X307752642Y-68905571D01*
X307609785Y-68619857D01*
X307466928Y-68477000D01*
X307181214Y-68334142D01*
X306609785Y-68334142D01*
X306324071Y-68477000D01*
X306181214Y-68619857D01*
X306038357Y-68905571D01*
X306038357Y-69619857D01*
X306181214Y-69905571D01*
X306324071Y-70048428D01*
X306609785Y-70191285D01*
X307181214Y-70191285D01*
X307466928Y-70048428D01*
X307609785Y-69905571D01*
X307752642Y-69619857D01*
X287559785Y-69619857D02*
X287274071Y-69477000D01*
X287131214Y-69334142D01*
X286988357Y-69048428D01*
X286988357Y-68905571D01*
X287131214Y-68619857D01*
X287274071Y-68477000D01*
X287559785Y-68334142D01*
X288131214Y-68334142D01*
X288416928Y-68477000D01*
X288559785Y-68619857D01*
X288702642Y-68905571D01*
X288702642Y-69048428D01*
X288559785Y-69334142D01*
X288416928Y-69477000D01*
X288131214Y-69619857D01*
X287559785Y-69619857D01*
X287274071Y-69762714D01*
X287131214Y-69905571D01*
X286988357Y-70191285D01*
X286988357Y-70762714D01*
X287131214Y-71048428D01*
X287274071Y-71191285D01*
X287559785Y-71334142D01*
X288131214Y-71334142D01*
X288416928Y-71191285D01*
X288559785Y-71048428D01*
X288702642Y-70762714D01*
X288702642Y-70191285D01*
X288559785Y-69905571D01*
X288416928Y-69762714D01*
X288131214Y-69619857D01*
X267795500Y-68334142D02*
X269795500Y-68334142D01*
X268509785Y-71334142D01*
X307720928Y-49284142D02*
X307149500Y-49284142D01*
X306863785Y-49427000D01*
X306720928Y-49569857D01*
X306435214Y-49998428D01*
X306292357Y-50569857D01*
X306292357Y-51712714D01*
X306435214Y-51998428D01*
X306578071Y-52141285D01*
X306863785Y-52284142D01*
X307435214Y-52284142D01*
X307720928Y-52141285D01*
X307863785Y-51998428D01*
X308006642Y-51712714D01*
X308006642Y-50998428D01*
X307863785Y-50712714D01*
X307720928Y-50569857D01*
X307435214Y-50427000D01*
X306863785Y-50427000D01*
X306578071Y-50569857D01*
X306435214Y-50712714D01*
X306292357Y-50998428D01*
X288559785Y-49284142D02*
X287131214Y-49284142D01*
X286988357Y-50712714D01*
X287131214Y-50569857D01*
X287416928Y-50427000D01*
X288131214Y-50427000D01*
X288416928Y-50569857D01*
X288559785Y-50712714D01*
X288702642Y-50998428D01*
X288702642Y-51712714D01*
X288559785Y-51998428D01*
X288416928Y-52141285D01*
X288131214Y-52284142D01*
X287416928Y-52284142D01*
X287131214Y-52141285D01*
X286988357Y-51998428D01*
X269366928Y-50284142D02*
X269366928Y-52284142D01*
X268652642Y-49141285D02*
X267938357Y-51284142D01*
X269795500Y-51284142D01*
X305895500Y-30234142D02*
X307752642Y-30234142D01*
X306752642Y-31377000D01*
X307181214Y-31377000D01*
X307466928Y-31519857D01*
X307609785Y-31662714D01*
X307752642Y-31948428D01*
X307752642Y-32662714D01*
X307609785Y-32948428D01*
X307466928Y-33091285D01*
X307181214Y-33234142D01*
X306324071Y-33234142D01*
X306038357Y-33091285D01*
X305895500Y-32948428D01*
X286988357Y-30519857D02*
X287131214Y-30377000D01*
X287416928Y-30234142D01*
X288131214Y-30234142D01*
X288416928Y-30377000D01*
X288559785Y-30519857D01*
X288702642Y-30805571D01*
X288702642Y-31091285D01*
X288559785Y-31519857D01*
X286845500Y-33234142D01*
X288702642Y-33234142D01*
X269652642Y-33234142D02*
X267938357Y-33234142D01*
X268795500Y-33234142D02*
X268795500Y-30234142D01*
X268509785Y-30662714D01*
X268224071Y-30948428D01*
X267938357Y-31091285D01*
X221662642Y-30234142D02*
X221948357Y-30234142D01*
X222234071Y-30377000D01*
X222376928Y-30519857D01*
X222519785Y-30805571D01*
X222662642Y-31377000D01*
X222662642Y-32091285D01*
X222519785Y-32662714D01*
X222376928Y-32948428D01*
X222234071Y-33091285D01*
X221948357Y-33234142D01*
X221662642Y-33234142D01*
X221376928Y-33091285D01*
X221234071Y-32948428D01*
X221091214Y-32662714D01*
X220948357Y-32091285D01*
X220948357Y-31377000D01*
X221091214Y-30805571D01*
X221234071Y-30519857D01*
X221376928Y-30377000D01*
X221662642Y-30234142D01*
X200914071Y-33234142D02*
X201485500Y-33234142D01*
X201771214Y-33091285D01*
X201914071Y-32948428D01*
X202199785Y-32519857D01*
X202342642Y-31948428D01*
X202342642Y-30805571D01*
X202199785Y-30519857D01*
X202056928Y-30377000D01*
X201771214Y-30234142D01*
X201199785Y-30234142D01*
X200914071Y-30377000D01*
X200771214Y-30519857D01*
X200628357Y-30805571D01*
X200628357Y-31519857D01*
X200771214Y-31805571D01*
X200914071Y-31948428D01*
X201199785Y-32091285D01*
X201771214Y-32091285D01*
X202056928Y-31948428D01*
X202199785Y-31805571D01*
X202342642Y-31519857D01*
X180879785Y-31519857D02*
X180594071Y-31377000D01*
X180451214Y-31234142D01*
X180308357Y-30948428D01*
X180308357Y-30805571D01*
X180451214Y-30519857D01*
X180594071Y-30377000D01*
X180879785Y-30234142D01*
X181451214Y-30234142D01*
X181736928Y-30377000D01*
X181879785Y-30519857D01*
X182022642Y-30805571D01*
X182022642Y-30948428D01*
X181879785Y-31234142D01*
X181736928Y-31377000D01*
X181451214Y-31519857D01*
X180879785Y-31519857D01*
X180594071Y-31662714D01*
X180451214Y-31805571D01*
X180308357Y-32091285D01*
X180308357Y-32662714D01*
X180451214Y-32948428D01*
X180594071Y-33091285D01*
X180879785Y-33234142D01*
X181451214Y-33234142D01*
X181736928Y-33091285D01*
X181879785Y-32948428D01*
X182022642Y-32662714D01*
X182022642Y-32091285D01*
X181879785Y-31805571D01*
X181736928Y-31662714D01*
X181451214Y-31519857D01*
X160099500Y-30234142D02*
X162099500Y-30234142D01*
X160813785Y-33234142D01*
X141096928Y-30234142D02*
X140525500Y-30234142D01*
X140239785Y-30377000D01*
X140096928Y-30519857D01*
X139811214Y-30948428D01*
X139668357Y-31519857D01*
X139668357Y-32662714D01*
X139811214Y-32948428D01*
X139954071Y-33091285D01*
X140239785Y-33234142D01*
X140811214Y-33234142D01*
X141096928Y-33091285D01*
X141239785Y-32948428D01*
X141382642Y-32662714D01*
X141382642Y-31948428D01*
X141239785Y-31662714D01*
X141096928Y-31519857D01*
X140811214Y-31377000D01*
X140239785Y-31377000D01*
X139954071Y-31519857D01*
X139811214Y-31662714D01*
X139668357Y-31948428D01*
X120919785Y-30234142D02*
X119491214Y-30234142D01*
X119348357Y-31662714D01*
X119491214Y-31519857D01*
X119776928Y-31377000D01*
X120491214Y-31377000D01*
X120776928Y-31519857D01*
X120919785Y-31662714D01*
X121062642Y-31948428D01*
X121062642Y-32662714D01*
X120919785Y-32948428D01*
X120776928Y-33091285D01*
X120491214Y-33234142D01*
X119776928Y-33234142D01*
X119491214Y-33091285D01*
X119348357Y-32948428D01*
X100710928Y-31234142D02*
X100710928Y-33234142D01*
X99996642Y-30091285D02*
X99282357Y-32234142D01*
X101139500Y-32234142D01*
X78819500Y-30234142D02*
X80676642Y-30234142D01*
X79676642Y-31377000D01*
X80105214Y-31377000D01*
X80390928Y-31519857D01*
X80533785Y-31662714D01*
X80676642Y-31948428D01*
X80676642Y-32662714D01*
X80533785Y-32948428D01*
X80390928Y-33091285D01*
X80105214Y-33234142D01*
X79248071Y-33234142D01*
X78962357Y-33091285D01*
X78819500Y-32948428D01*
X58642357Y-30519857D02*
X58785214Y-30377000D01*
X59070928Y-30234142D01*
X59785214Y-30234142D01*
X60070928Y-30377000D01*
X60213785Y-30519857D01*
X60356642Y-30805571D01*
X60356642Y-31091285D01*
X60213785Y-31519857D01*
X58499500Y-33234142D01*
X60356642Y-33234142D01*
X40036642Y-33234142D02*
X38322357Y-33234142D01*
X39179500Y-33234142D02*
X39179500Y-30234142D01*
X38893785Y-30662714D01*
X38608071Y-30948428D01*
X38322357Y-31091285D01*
X26221500Y-21236285D02*
X26221500Y-20522000D01*
X26650071Y-21379142D02*
X25150071Y-20879142D01*
X26650071Y-20379142D01*
X26650071Y-19093428D02*
X26650071Y-19950571D01*
X26650071Y-19522000D02*
X25150071Y-19522000D01*
X25364357Y-19664857D01*
X25507214Y-19807714D01*
X25578642Y-19950571D01*
X26650071Y-17664857D02*
X26650071Y-18522000D01*
X26650071Y-18093428D02*
X25150071Y-18093428D01*
X25364357Y-18236285D01*
X25507214Y-18379142D01*
X25578642Y-18522000D01*
X20851215Y-21236285D02*
X20851215Y-20522000D01*
X21279786Y-21379142D02*
X19779786Y-20879142D01*
X21279786Y-20379142D01*
X21279786Y-19093428D02*
X21279786Y-19950571D01*
X21279786Y-19522000D02*
X19779786Y-19522000D01*
X19994072Y-19664857D01*
X20136929Y-19807714D01*
X20208357Y-19950571D01*
X19779786Y-18593428D02*
X19779786Y-17664857D01*
X20351215Y-18164857D01*
X20351215Y-17950571D01*
X20422643Y-17807714D01*
X20494072Y-17736285D01*
X20636929Y-17664857D01*
X20994072Y-17664857D01*
X21136929Y-17736285D01*
X21208357Y-17807714D01*
X21279786Y-17950571D01*
X21279786Y-18379142D01*
X21208357Y-18522000D01*
X21136929Y-18593428D01*
X18347500Y-21236285D02*
X18347500Y-20522000D01*
X18776071Y-21379142D02*
X17276071Y-20879142D01*
X18776071Y-20379142D01*
X18776071Y-19093428D02*
X18776071Y-19950571D01*
X18776071Y-19522000D02*
X17276071Y-19522000D01*
X17490357Y-19664857D01*
X17633214Y-19807714D01*
X17704642Y-19950571D01*
X17776071Y-17807714D02*
X18776071Y-17807714D01*
X17204642Y-18164857D02*
X18276071Y-18522000D01*
X18276071Y-17593428D01*
X23427500Y-21236285D02*
X23427500Y-20522000D01*
X23856071Y-21379142D02*
X22356071Y-20879142D01*
X23856071Y-20379142D01*
X23856071Y-19093428D02*
X23856071Y-19950571D01*
X23856071Y-19522000D02*
X22356071Y-19522000D01*
X22570357Y-19664857D01*
X22713214Y-19807714D01*
X22784642Y-19950571D01*
X22498928Y-18522000D02*
X22427500Y-18450571D01*
X22356071Y-18307714D01*
X22356071Y-17950571D01*
X22427500Y-17807714D01*
X22498928Y-17736285D01*
X22641785Y-17664857D01*
X22784642Y-17664857D01*
X22998928Y-17736285D01*
X23856071Y-18593428D01*
X23856071Y-17664857D01*
X15807500Y-21236285D02*
X15807500Y-20522000D01*
X16236071Y-21379142D02*
X14736071Y-20879142D01*
X16236071Y-20379142D01*
X16236071Y-19093428D02*
X16236071Y-19950571D01*
X16236071Y-19522000D02*
X14736071Y-19522000D01*
X14950357Y-19664857D01*
X15093214Y-19807714D01*
X15164642Y-19950571D01*
X14736071Y-17736285D02*
X14736071Y-18450571D01*
X15450357Y-18522000D01*
X15378928Y-18450571D01*
X15307500Y-18307714D01*
X15307500Y-17950571D01*
X15378928Y-17807714D01*
X15450357Y-17736285D01*
X15593214Y-17664857D01*
X15950357Y-17664857D01*
X16093214Y-17736285D01*
X16164642Y-17807714D01*
X16236071Y-17950571D01*
X16236071Y-18307714D01*
X16164642Y-18450571D01*
X16093214Y-18522000D01*
X13013500Y-21236285D02*
X13013500Y-20522000D01*
X13442071Y-21379142D02*
X11942071Y-20879142D01*
X13442071Y-20379142D01*
X13442071Y-19093428D02*
X13442071Y-19950571D01*
X13442071Y-19522000D02*
X11942071Y-19522000D01*
X12156357Y-19664857D01*
X12299214Y-19807714D01*
X12370642Y-19950571D01*
X11942071Y-18164857D02*
X11942071Y-18022000D01*
X12013500Y-17879142D01*
X12084928Y-17807714D01*
X12227785Y-17736285D01*
X12513500Y-17664857D01*
X12870642Y-17664857D01*
X13156357Y-17736285D01*
X13299214Y-17807714D01*
X13370642Y-17879142D01*
X13442071Y-18022000D01*
X13442071Y-18164857D01*
X13370642Y-18307714D01*
X13299214Y-18379142D01*
X13156357Y-18450571D01*
X12870642Y-18522000D01*
X12513500Y-18522000D01*
X12227785Y-18450571D01*
X12084928Y-18379142D01*
X12013500Y-18307714D01*
X11942071Y-18164857D01*
X10473500Y-21236285D02*
X10473500Y-20522000D01*
X10902071Y-21379142D02*
X9402071Y-20879142D01*
X10902071Y-20379142D01*
X10902071Y-19807714D02*
X10902071Y-19522000D01*
X10830642Y-19379142D01*
X10759214Y-19307714D01*
X10544928Y-19164857D01*
X10259214Y-19093428D01*
X9687785Y-19093428D01*
X9544928Y-19164857D01*
X9473500Y-19236285D01*
X9402071Y-19379142D01*
X9402071Y-19664857D01*
X9473500Y-19807714D01*
X9544928Y-19879142D01*
X9687785Y-19950571D01*
X10044928Y-19950571D01*
X10187785Y-19879142D01*
X10259214Y-19807714D01*
X10330642Y-19664857D01*
X10330642Y-19379142D01*
X10259214Y-19236285D01*
X10187785Y-19164857D01*
X10044928Y-19093428D01*
X7679500Y-21236285D02*
X7679500Y-20522000D01*
X8108071Y-21379142D02*
X6608071Y-20879142D01*
X8108071Y-20379142D01*
X7250928Y-19664857D02*
X7179500Y-19807714D01*
X7108071Y-19879142D01*
X6965214Y-19950571D01*
X6893785Y-19950571D01*
X6750928Y-19879142D01*
X6679500Y-19807714D01*
X6608071Y-19664857D01*
X6608071Y-19379142D01*
X6679500Y-19236285D01*
X6750928Y-19164857D01*
X6893785Y-19093428D01*
X6965214Y-19093428D01*
X7108071Y-19164857D01*
X7179500Y-19236285D01*
X7250928Y-19379142D01*
X7250928Y-19664857D01*
X7322357Y-19807714D01*
X7393785Y-19879142D01*
X7536642Y-19950571D01*
X7822357Y-19950571D01*
X7965214Y-19879142D01*
X8036642Y-19807714D01*
X8108071Y-19664857D01*
X8108071Y-19379142D01*
X8036642Y-19236285D01*
X7965214Y-19164857D01*
X7822357Y-19093428D01*
X7536642Y-19093428D01*
X7393785Y-19164857D01*
X7322357Y-19236285D01*
X7250928Y-19379142D01*
X12041785Y-81826571D02*
X12041785Y-80326571D01*
X12898928Y-81826571D02*
X12256071Y-80969428D01*
X12898928Y-80326571D02*
X12041785Y-81183714D01*
X14113214Y-81755142D02*
X13970357Y-81826571D01*
X13684642Y-81826571D01*
X13541785Y-81755142D01*
X13470357Y-81612285D01*
X13470357Y-81040857D01*
X13541785Y-80898000D01*
X13684642Y-80826571D01*
X13970357Y-80826571D01*
X14113214Y-80898000D01*
X14184642Y-81040857D01*
X14184642Y-81183714D01*
X13470357Y-81326571D01*
X14684642Y-80826571D02*
X15041785Y-81826571D01*
X15398928Y-80826571D02*
X15041785Y-81826571D01*
X14898928Y-82183714D01*
X14827500Y-82255142D01*
X14684642Y-82326571D01*
X15970357Y-81826571D02*
X15970357Y-80326571D01*
X15970357Y-80898000D02*
X16113214Y-80826571D01*
X16398928Y-80826571D01*
X16541785Y-80898000D01*
X16613214Y-80969428D01*
X16684642Y-81112285D01*
X16684642Y-81540857D01*
X16613214Y-81683714D01*
X16541785Y-81755142D01*
X16398928Y-81826571D01*
X16113214Y-81826571D01*
X15970357Y-81755142D01*
X17541785Y-81826571D02*
X17398928Y-81755142D01*
X17327500Y-81683714D01*
X17256071Y-81540857D01*
X17256071Y-81112285D01*
X17327500Y-80969428D01*
X17398928Y-80898000D01*
X17541785Y-80826571D01*
X17756071Y-80826571D01*
X17898928Y-80898000D01*
X17970357Y-80969428D01*
X18041785Y-81112285D01*
X18041785Y-81540857D01*
X17970357Y-81683714D01*
X17898928Y-81755142D01*
X17756071Y-81826571D01*
X17541785Y-81826571D01*
X19327500Y-81826571D02*
X19327500Y-81040857D01*
X19256071Y-80898000D01*
X19113214Y-80826571D01*
X18827500Y-80826571D01*
X18684642Y-80898000D01*
X19327500Y-81755142D02*
X19184642Y-81826571D01*
X18827500Y-81826571D01*
X18684642Y-81755142D01*
X18613214Y-81612285D01*
X18613214Y-81469428D01*
X18684642Y-81326571D01*
X18827500Y-81255142D01*
X19184642Y-81255142D01*
X19327500Y-81183714D01*
X20041785Y-81826571D02*
X20041785Y-80826571D01*
X20041785Y-81112285D02*
X20113214Y-80969428D01*
X20184642Y-80898000D01*
X20327500Y-80826571D01*
X20470357Y-80826571D01*
X21613214Y-81826571D02*
X21613214Y-80326571D01*
X21613214Y-81755142D02*
X21470357Y-81826571D01*
X21184642Y-81826571D01*
X21041785Y-81755142D01*
X20970357Y-81683714D01*
X20898928Y-81540857D01*
X20898928Y-81112285D01*
X20970357Y-80969428D01*
X21041785Y-80898000D01*
X21184642Y-80826571D01*
X21470357Y-80826571D01*
X21613214Y-80898000D01*
X10791785Y-84376571D02*
X10791785Y-82876571D01*
X10791785Y-83590857D02*
X11648928Y-83590857D01*
X11648928Y-84376571D02*
X11648928Y-82876571D01*
X12934642Y-84305142D02*
X12791785Y-84376571D01*
X12506071Y-84376571D01*
X12363214Y-84305142D01*
X12291785Y-84162285D01*
X12291785Y-83590857D01*
X12363214Y-83448000D01*
X12506071Y-83376571D01*
X12791785Y-83376571D01*
X12934642Y-83448000D01*
X13006071Y-83590857D01*
X13006071Y-83733714D01*
X12291785Y-83876571D01*
X14291785Y-84376571D02*
X14291785Y-83590857D01*
X14220357Y-83448000D01*
X14077500Y-83376571D01*
X13791785Y-83376571D01*
X13648928Y-83448000D01*
X14291785Y-84305142D02*
X14148928Y-84376571D01*
X13791785Y-84376571D01*
X13648928Y-84305142D01*
X13577500Y-84162285D01*
X13577500Y-84019428D01*
X13648928Y-83876571D01*
X13791785Y-83805142D01*
X14148928Y-83805142D01*
X14291785Y-83733714D01*
X15648928Y-84376571D02*
X15648928Y-82876571D01*
X15648928Y-84305142D02*
X15506071Y-84376571D01*
X15220357Y-84376571D01*
X15077500Y-84305142D01*
X15006071Y-84233714D01*
X14934642Y-84090857D01*
X14934642Y-83662285D01*
X15006071Y-83519428D01*
X15077500Y-83448000D01*
X15220357Y-83376571D01*
X15506071Y-83376571D01*
X15648928Y-83448000D01*
X16934642Y-84305142D02*
X16791785Y-84376571D01*
X16506071Y-84376571D01*
X16363214Y-84305142D01*
X16291785Y-84162285D01*
X16291785Y-83590857D01*
X16363214Y-83448000D01*
X16506071Y-83376571D01*
X16791785Y-83376571D01*
X16934642Y-83448000D01*
X17006071Y-83590857D01*
X17006071Y-83733714D01*
X16291785Y-83876571D01*
X17648928Y-84376571D02*
X17648928Y-83376571D01*
X17648928Y-83662285D02*
X17720357Y-83519428D01*
X17791785Y-83448000D01*
X17934642Y-83376571D01*
X18077500Y-83376571D01*
X19720357Y-84376571D02*
X19720357Y-82876571D01*
X21506071Y-82805142D02*
X20220357Y-84733714D01*
X22291785Y-82876571D02*
X22577500Y-82876571D01*
X22720357Y-82948000D01*
X22863214Y-83090857D01*
X22934642Y-83376571D01*
X22934642Y-83876571D01*
X22863214Y-84162285D01*
X22720357Y-84305142D01*
X22577500Y-84376571D01*
X22291785Y-84376571D01*
X22148928Y-84305142D01*
X22006071Y-84162285D01*
X21934642Y-83876571D01*
X21934642Y-83376571D01*
X22006071Y-83090857D01*
X22148928Y-82948000D01*
X22291785Y-82876571D01*
X10109214Y-15617000D02*
X10823500Y-15617000D01*
X9966357Y-16045571D02*
X10466357Y-14545571D01*
X10966357Y-16045571D01*
X12109214Y-16045571D02*
X12109214Y-14545571D01*
X12109214Y-15974142D02*
X11966357Y-16045571D01*
X11680642Y-16045571D01*
X11537785Y-15974142D01*
X11466357Y-15902714D01*
X11394928Y-15759857D01*
X11394928Y-15331285D01*
X11466357Y-15188428D01*
X11537785Y-15117000D01*
X11680642Y-15045571D01*
X11966357Y-15045571D01*
X12109214Y-15117000D01*
X13466357Y-16045571D02*
X13466357Y-14545571D01*
X13466357Y-15974142D02*
X13323500Y-16045571D01*
X13037785Y-16045571D01*
X12894928Y-15974142D01*
X12823500Y-15902714D01*
X12752071Y-15759857D01*
X12752071Y-15331285D01*
X12823500Y-15188428D01*
X12894928Y-15117000D01*
X13037785Y-15045571D01*
X13323500Y-15045571D01*
X13466357Y-15117000D01*
X14180642Y-16045571D02*
X14180642Y-15045571D01*
X14180642Y-15331285D02*
X14252071Y-15188428D01*
X14323500Y-15117000D01*
X14466357Y-15045571D01*
X14609214Y-15045571D01*
X16252071Y-16045571D02*
X16252071Y-14545571D01*
X16609214Y-14545571D01*
X16823500Y-14617000D01*
X16966357Y-14759857D01*
X17037785Y-14902714D01*
X17109214Y-15188428D01*
X17109214Y-15402714D01*
X17037785Y-15688428D01*
X16966357Y-15831285D01*
X16823500Y-15974142D01*
X16609214Y-16045571D01*
X16252071Y-16045571D01*
X17752071Y-16045571D02*
X17752071Y-15045571D01*
X17752071Y-14545571D02*
X17680642Y-14617000D01*
X17752071Y-14688428D01*
X17823500Y-14617000D01*
X17752071Y-14545571D01*
X17752071Y-14688428D01*
X18680642Y-16045571D02*
X18537785Y-15974142D01*
X18466357Y-15902714D01*
X18394928Y-15759857D01*
X18394928Y-15331285D01*
X18466357Y-15188428D01*
X18537785Y-15117000D01*
X18680642Y-15045571D01*
X18894928Y-15045571D01*
X19037785Y-15117000D01*
X19109214Y-15188428D01*
X19180642Y-15331285D01*
X19180642Y-15759857D01*
X19109214Y-15902714D01*
X19037785Y-15974142D01*
X18894928Y-16045571D01*
X18680642Y-16045571D01*
X20466357Y-16045571D02*
X20466357Y-14545571D01*
X20466357Y-15974142D02*
X20323500Y-16045571D01*
X20037785Y-16045571D01*
X19894928Y-15974142D01*
X19823500Y-15902714D01*
X19752071Y-15759857D01*
X19752071Y-15331285D01*
X19823500Y-15188428D01*
X19894928Y-15117000D01*
X20037785Y-15045571D01*
X20323500Y-15045571D01*
X20466357Y-15117000D01*
X21752071Y-15974142D02*
X21609214Y-16045571D01*
X21323500Y-16045571D01*
X21180642Y-15974142D01*
X21109214Y-15831285D01*
X21109214Y-15259857D01*
X21180642Y-15117000D01*
X21323500Y-15045571D01*
X21609214Y-15045571D01*
X21752071Y-15117000D01*
X21823500Y-15259857D01*
X21823500Y-15402714D01*
X21109214Y-15545571D01*
X22394928Y-15974142D02*
X22537785Y-16045571D01*
X22823500Y-16045571D01*
X22966357Y-15974142D01*
X23037785Y-15831285D01*
X23037785Y-15759857D01*
X22966357Y-15617000D01*
X22823500Y-15545571D01*
X22609214Y-15545571D01*
X22466357Y-15474142D01*
X22394928Y-15331285D01*
X22394928Y-15259857D01*
X22466357Y-15117000D01*
X22609214Y-15045571D01*
X22823500Y-15045571D01*
X22966357Y-15117000D01*
X10938642Y-38985000D02*
X11652928Y-38985000D01*
X10795785Y-39413571D02*
X11295785Y-37913571D01*
X11795785Y-39413571D01*
X12938642Y-39413571D02*
X12938642Y-37913571D01*
X12938642Y-39342142D02*
X12795785Y-39413571D01*
X12510071Y-39413571D01*
X12367214Y-39342142D01*
X12295785Y-39270714D01*
X12224357Y-39127857D01*
X12224357Y-38699285D01*
X12295785Y-38556428D01*
X12367214Y-38485000D01*
X12510071Y-38413571D01*
X12795785Y-38413571D01*
X12938642Y-38485000D01*
X14295785Y-39413571D02*
X14295785Y-37913571D01*
X14295785Y-39342142D02*
X14152928Y-39413571D01*
X13867214Y-39413571D01*
X13724357Y-39342142D01*
X13652928Y-39270714D01*
X13581500Y-39127857D01*
X13581500Y-38699285D01*
X13652928Y-38556428D01*
X13724357Y-38485000D01*
X13867214Y-38413571D01*
X14152928Y-38413571D01*
X14295785Y-38485000D01*
X15010071Y-39413571D02*
X15010071Y-38413571D01*
X15010071Y-38699285D02*
X15081500Y-38556428D01*
X15152928Y-38485000D01*
X15295785Y-38413571D01*
X15438642Y-38413571D01*
X17581500Y-38627857D02*
X17795785Y-38699285D01*
X17867214Y-38770714D01*
X17938642Y-38913571D01*
X17938642Y-39127857D01*
X17867214Y-39270714D01*
X17795785Y-39342142D01*
X17652928Y-39413571D01*
X17081500Y-39413571D01*
X17081500Y-37913571D01*
X17581500Y-37913571D01*
X17724357Y-37985000D01*
X17795785Y-38056428D01*
X17867214Y-38199285D01*
X17867214Y-38342142D01*
X17795785Y-38485000D01*
X17724357Y-38556428D01*
X17581500Y-38627857D01*
X17081500Y-38627857D01*
X19224357Y-38413571D02*
X19224357Y-39413571D01*
X18581500Y-38413571D02*
X18581500Y-39199285D01*
X18652928Y-39342142D01*
X18795785Y-39413571D01*
X19010071Y-39413571D01*
X19152928Y-39342142D01*
X19224357Y-39270714D01*
X19724357Y-38413571D02*
X20295785Y-38413571D01*
X19938642Y-39413571D02*
X19938642Y-38127857D01*
X20010071Y-37985000D01*
X20152928Y-37913571D01*
X20295785Y-37913571D01*
X20581500Y-38413571D02*
X21152928Y-38413571D01*
X20795785Y-39413571D02*
X20795785Y-38127857D01*
X20867214Y-37985000D01*
X21010071Y-37913571D01*
X21152928Y-37913571D01*
X22224357Y-39342142D02*
X22081500Y-39413571D01*
X21795785Y-39413571D01*
X21652928Y-39342142D01*
X21581500Y-39199285D01*
X21581500Y-38627857D01*
X21652928Y-38485000D01*
X21795785Y-38413571D01*
X22081500Y-38413571D01*
X22224357Y-38485000D01*
X22295785Y-38627857D01*
X22295785Y-38770714D01*
X21581500Y-38913571D01*
X22938642Y-39413571D02*
X22938642Y-38413571D01*
X22938642Y-38699285D02*
X23010071Y-38556428D01*
X23081500Y-38485000D01*
X23224357Y-38413571D01*
X23367214Y-38413571D01*
X23221642Y-66809284D02*
X23221642Y-65309284D01*
X23578785Y-65309284D01*
X23793071Y-65380713D01*
X23935928Y-65523570D01*
X24007357Y-65666427D01*
X24078785Y-65952141D01*
X24078785Y-66166427D01*
X24007357Y-66452141D01*
X23935928Y-66594998D01*
X23793071Y-66737855D01*
X23578785Y-66809284D01*
X23221642Y-66809284D01*
X25364500Y-65809284D02*
X25364500Y-66809284D01*
X25007357Y-65237855D02*
X24650214Y-66309284D01*
X25578785Y-66309284D01*
X23221642Y-77259571D02*
X23221642Y-75759571D01*
X23578785Y-75759571D01*
X23793071Y-75831000D01*
X23935928Y-75973857D01*
X24007357Y-76116714D01*
X24078785Y-76402428D01*
X24078785Y-76616714D01*
X24007357Y-76902428D01*
X23935928Y-77045285D01*
X23793071Y-77188142D01*
X23578785Y-77259571D01*
X23221642Y-77259571D01*
X25007357Y-75759571D02*
X25150214Y-75759571D01*
X25293071Y-75831000D01*
X25364500Y-75902428D01*
X25435928Y-76045285D01*
X25507357Y-76331000D01*
X25507357Y-76688142D01*
X25435928Y-76973857D01*
X25364500Y-77116714D01*
X25293071Y-77188142D01*
X25150214Y-77259571D01*
X25007357Y-77259571D01*
X24864500Y-77188142D01*
X24793071Y-77116714D01*
X24721642Y-76973857D01*
X24650214Y-76688142D01*
X24650214Y-76331000D01*
X24721642Y-76045285D01*
X24793071Y-75902428D01*
X24864500Y-75831000D01*
X25007357Y-75759571D01*
X23221642Y-72034426D02*
X23221642Y-70534426D01*
X23578785Y-70534426D01*
X23793071Y-70605855D01*
X23935928Y-70748712D01*
X24007357Y-70891569D01*
X24078785Y-71177283D01*
X24078785Y-71391569D01*
X24007357Y-71677283D01*
X23935928Y-71820140D01*
X23793071Y-71962997D01*
X23578785Y-72034426D01*
X23221642Y-72034426D01*
X24650214Y-70677283D02*
X24721642Y-70605855D01*
X24864500Y-70534426D01*
X25221642Y-70534426D01*
X25364500Y-70605855D01*
X25435928Y-70677283D01*
X25507357Y-70820140D01*
X25507357Y-70962997D01*
X25435928Y-71177283D01*
X24578785Y-72034426D01*
X25507357Y-72034426D01*
X23221642Y-74646997D02*
X23221642Y-73146997D01*
X23578785Y-73146997D01*
X23793071Y-73218426D01*
X23935928Y-73361283D01*
X24007357Y-73504140D01*
X24078785Y-73789854D01*
X24078785Y-74004140D01*
X24007357Y-74289854D01*
X23935928Y-74432711D01*
X23793071Y-74575568D01*
X23578785Y-74646997D01*
X23221642Y-74646997D01*
X25507357Y-74646997D02*
X24650214Y-74646997D01*
X25078785Y-74646997D02*
X25078785Y-73146997D01*
X24935928Y-73361283D01*
X24793071Y-73504140D01*
X24650214Y-73575568D01*
X23221642Y-69421855D02*
X23221642Y-67921855D01*
X23578785Y-67921855D01*
X23793071Y-67993284D01*
X23935928Y-68136141D01*
X24007357Y-68278998D01*
X24078785Y-68564712D01*
X24078785Y-68778998D01*
X24007357Y-69064712D01*
X23935928Y-69207569D01*
X23793071Y-69350426D01*
X23578785Y-69421855D01*
X23221642Y-69421855D01*
X24578785Y-67921855D02*
X25507357Y-67921855D01*
X25007357Y-68493284D01*
X25221642Y-68493284D01*
X25364500Y-68564712D01*
X25435928Y-68636141D01*
X25507357Y-68778998D01*
X25507357Y-69136141D01*
X25435928Y-69278998D01*
X25364500Y-69350426D01*
X25221642Y-69421855D01*
X24793071Y-69421855D01*
X24650214Y-69350426D01*
X24578785Y-69278998D01*
X6386214Y-65981571D02*
X7100500Y-65981571D01*
X6243357Y-66410142D02*
X6743357Y-64910142D01*
X7243357Y-66410142D01*
X8529071Y-66410142D02*
X7671928Y-66410142D01*
X8100500Y-66410142D02*
X8100500Y-64910142D01*
X7957642Y-65124428D01*
X7814785Y-65267285D01*
X7671928Y-65338713D01*
X9886214Y-64910142D02*
X9171928Y-64910142D01*
X9100500Y-65624428D01*
X9171928Y-65552999D01*
X9314785Y-65481571D01*
X9671928Y-65481571D01*
X9814785Y-65552999D01*
X9886214Y-65624428D01*
X9957642Y-65767285D01*
X9957642Y-66124428D01*
X9886214Y-66267285D01*
X9814785Y-66338713D01*
X9671928Y-66410142D01*
X9314785Y-66410142D01*
X9171928Y-66338713D01*
X9100500Y-66267285D01*
X6386214Y-73928142D02*
X7100500Y-73928142D01*
X6243357Y-74356713D02*
X6743357Y-72856713D01*
X7243357Y-74356713D01*
X8529071Y-74356713D02*
X7671928Y-74356713D01*
X8100500Y-74356713D02*
X8100500Y-72856713D01*
X7957642Y-73070999D01*
X7814785Y-73213856D01*
X7671928Y-73285284D01*
X9100500Y-72999570D02*
X9171928Y-72928142D01*
X9314785Y-72856713D01*
X9671928Y-72856713D01*
X9814785Y-72928142D01*
X9886214Y-72999570D01*
X9957642Y-73142427D01*
X9957642Y-73285284D01*
X9886214Y-73499570D01*
X9029071Y-74356713D01*
X9957642Y-74356713D01*
X6386214Y-68630428D02*
X7100500Y-68630428D01*
X6243357Y-69058999D02*
X6743357Y-67558999D01*
X7243357Y-69058999D01*
X8529071Y-69058999D02*
X7671928Y-69058999D01*
X8100500Y-69058999D02*
X8100500Y-67558999D01*
X7957642Y-67773285D01*
X7814785Y-67916142D01*
X7671928Y-67987570D01*
X9814785Y-68058999D02*
X9814785Y-69058999D01*
X9457642Y-67487570D02*
X9100500Y-68558999D01*
X10029071Y-68558999D01*
X6386214Y-71279285D02*
X7100500Y-71279285D01*
X6243357Y-71707856D02*
X6743357Y-70207856D01*
X7243357Y-71707856D01*
X8529071Y-71707856D02*
X7671928Y-71707856D01*
X8100500Y-71707856D02*
X8100500Y-70207856D01*
X7957642Y-70422142D01*
X7814785Y-70564999D01*
X7671928Y-70636427D01*
X9029071Y-70207856D02*
X9957642Y-70207856D01*
X9457642Y-70779285D01*
X9671928Y-70779285D01*
X9814785Y-70850713D01*
X9886214Y-70922142D01*
X9957642Y-71064999D01*
X9957642Y-71422142D01*
X9886214Y-71564999D01*
X9814785Y-71636427D01*
X9671928Y-71707856D01*
X9243357Y-71707856D01*
X9100500Y-71636427D01*
X9029071Y-71564999D01*
X6386214Y-76577000D02*
X7100500Y-76577000D01*
X6243357Y-77005571D02*
X6743357Y-75505571D01*
X7243357Y-77005571D01*
X8529071Y-77005571D02*
X7671928Y-77005571D01*
X8100500Y-77005571D02*
X8100500Y-75505571D01*
X7957642Y-75719857D01*
X7814785Y-75862714D01*
X7671928Y-75934142D01*
X9957642Y-77005571D02*
X9100500Y-77005571D01*
X9529071Y-77005571D02*
X9529071Y-75505571D01*
X9386214Y-75719857D01*
X9243357Y-75862714D01*
X9100500Y-75934142D01*
X6386214Y-58035000D02*
X7100500Y-58035000D01*
X6243357Y-58463571D02*
X6743357Y-56963571D01*
X7243357Y-58463571D01*
X8529071Y-58463571D02*
X7671928Y-58463571D01*
X8100500Y-58463571D02*
X8100500Y-56963571D01*
X7957642Y-57177857D01*
X7814785Y-57320714D01*
X7671928Y-57392142D01*
X9457642Y-56963571D02*
X9600500Y-56963571D01*
X9743357Y-57035000D01*
X9814785Y-57106428D01*
X9886214Y-57249285D01*
X9957642Y-57535000D01*
X9957642Y-57892142D01*
X9886214Y-58177857D01*
X9814785Y-58320714D01*
X9743357Y-58392142D01*
X9600500Y-58463571D01*
X9457642Y-58463571D01*
X9314785Y-58392142D01*
X9243357Y-58320714D01*
X9171928Y-58177857D01*
X9100500Y-57892142D01*
X9100500Y-57535000D01*
X9171928Y-57249285D01*
X9243357Y-57106428D01*
X9314785Y-57035000D01*
X9457642Y-56963571D01*
X6386214Y-60683857D02*
X7100500Y-60683857D01*
X6243357Y-61112428D02*
X6743357Y-59612428D01*
X7243357Y-61112428D01*
X7814785Y-61112428D02*
X8100500Y-61112428D01*
X8243357Y-61040999D01*
X8314785Y-60969571D01*
X8457642Y-60755285D01*
X8529071Y-60469571D01*
X8529071Y-59898142D01*
X8457642Y-59755285D01*
X8386214Y-59683857D01*
X8243357Y-59612428D01*
X7957642Y-59612428D01*
X7814785Y-59683857D01*
X7743357Y-59755285D01*
X7671928Y-59898142D01*
X7671928Y-60255285D01*
X7743357Y-60398142D01*
X7814785Y-60469571D01*
X7957642Y-60540999D01*
X8243357Y-60540999D01*
X8386214Y-60469571D01*
X8457642Y-60398142D01*
X8529071Y-60255285D01*
X6386214Y-63369000D02*
X7100500Y-63369000D01*
X6243357Y-63797571D02*
X6743357Y-62297571D01*
X7243357Y-63797571D01*
X7957642Y-62940428D02*
X7814785Y-62869000D01*
X7743357Y-62797571D01*
X7671928Y-62654714D01*
X7671928Y-62583285D01*
X7743357Y-62440428D01*
X7814785Y-62369000D01*
X7957642Y-62297571D01*
X8243357Y-62297571D01*
X8386214Y-62369000D01*
X8457642Y-62440428D01*
X8529071Y-62583285D01*
X8529071Y-62654714D01*
X8457642Y-62797571D01*
X8386214Y-62869000D01*
X8243357Y-62940428D01*
X7957642Y-62940428D01*
X7814785Y-63011857D01*
X7743357Y-63083285D01*
X7671928Y-63226142D01*
X7671928Y-63511857D01*
X7743357Y-63654714D01*
X7814785Y-63726142D01*
X7957642Y-63797571D01*
X8243357Y-63797571D01*
X8386214Y-63726142D01*
X8457642Y-63654714D01*
X8529071Y-63511857D01*
X8529071Y-63226142D01*
X8457642Y-63083285D01*
X8386214Y-63011857D01*
X8243357Y-62940428D01*
X23150214Y-64125284D02*
X23364500Y-64196713D01*
X23721642Y-64196713D01*
X23864500Y-64125284D01*
X23935928Y-64053856D01*
X24007357Y-63910999D01*
X24007357Y-63768142D01*
X23935928Y-63625284D01*
X23864500Y-63553856D01*
X23721642Y-63482427D01*
X23435928Y-63410999D01*
X23293071Y-63339570D01*
X23221642Y-63268142D01*
X23150214Y-63125284D01*
X23150214Y-62982427D01*
X23221642Y-62839570D01*
X23293071Y-62768142D01*
X23435928Y-62696713D01*
X23793071Y-62696713D01*
X24007357Y-62768142D01*
X24650214Y-63410999D02*
X25150214Y-63410999D01*
X25364500Y-64196713D02*
X24650214Y-64196713D01*
X24650214Y-62696713D01*
X25364500Y-62696713D01*
X26721642Y-64196713D02*
X26007357Y-64196713D01*
X26007357Y-62696713D01*
X23221642Y-61012713D02*
X24364500Y-61012713D01*
X23793071Y-61584142D02*
X23793071Y-60441285D01*
X25793071Y-60084142D02*
X25078785Y-60084142D01*
X25007357Y-60798428D01*
X25078785Y-60726999D01*
X25221642Y-60655571D01*
X25578785Y-60655571D01*
X25721642Y-60726999D01*
X25793071Y-60798428D01*
X25864500Y-60941285D01*
X25864500Y-61298428D01*
X25793071Y-61441285D01*
X25721642Y-61512713D01*
X25578785Y-61584142D01*
X25221642Y-61584142D01*
X25078785Y-61512713D01*
X25007357Y-61441285D01*
X26293071Y-60084142D02*
X26793071Y-61584142D01*
X27293071Y-60084142D01*
X24007357Y-57543000D02*
X23864500Y-57471571D01*
X23650214Y-57471571D01*
X23435928Y-57543000D01*
X23293071Y-57685857D01*
X23221642Y-57828714D01*
X23150214Y-58114428D01*
X23150214Y-58328714D01*
X23221642Y-58614428D01*
X23293071Y-58757285D01*
X23435928Y-58900142D01*
X23650214Y-58971571D01*
X23793071Y-58971571D01*
X24007357Y-58900142D01*
X24078785Y-58828714D01*
X24078785Y-58328714D01*
X23793071Y-58328714D01*
X24721642Y-58971571D02*
X24721642Y-57471571D01*
X25578785Y-58971571D01*
X25578785Y-57471571D01*
X26293071Y-58971571D02*
X26293071Y-57471571D01*
X26650214Y-57471571D01*
X26864500Y-57543000D01*
X27007357Y-57685857D01*
X27078785Y-57828714D01*
X27150214Y-58114428D01*
X27150214Y-58328714D01*
X27078785Y-58614428D01*
X27007357Y-58757285D01*
X26864500Y-58900142D01*
X26650214Y-58971571D01*
X26293071Y-58971571D01*
X254304357Y-100251761D02*
X254304357Y-101680333D01*
X254209119Y-101966047D01*
X254018642Y-102156523D01*
X253732928Y-102251761D01*
X253542452Y-102251761D01*
X256113880Y-100918428D02*
X256113880Y-102251761D01*
X255256738Y-100918428D02*
X255256738Y-101966047D01*
X255351976Y-102156523D01*
X255542452Y-102251761D01*
X255828166Y-102251761D01*
X256018642Y-102156523D01*
X256113880Y-102061285D01*
X257066261Y-100918428D02*
X257066261Y-102918428D01*
X257066261Y-101013666D02*
X257256738Y-100918428D01*
X257637690Y-100918428D01*
X257828166Y-101013666D01*
X257923404Y-101108904D01*
X258018642Y-101299380D01*
X258018642Y-101870809D01*
X257923404Y-102061285D01*
X257828166Y-102156523D01*
X257637690Y-102251761D01*
X257256738Y-102251761D01*
X257066261Y-102156523D01*
X258875785Y-102251761D02*
X258875785Y-100918428D01*
X258875785Y-100251761D02*
X258780547Y-100347000D01*
X258875785Y-100442238D01*
X258971023Y-100347000D01*
X258875785Y-100251761D01*
X258875785Y-100442238D01*
X259542452Y-100918428D02*
X260304357Y-100918428D01*
X259828166Y-100251761D02*
X259828166Y-101966047D01*
X259923404Y-102156523D01*
X260113880Y-102251761D01*
X260304357Y-102251761D01*
X261732928Y-102156523D02*
X261542452Y-102251761D01*
X261161500Y-102251761D01*
X260971023Y-102156523D01*
X260875785Y-101966047D01*
X260875785Y-101204142D01*
X260971023Y-101013666D01*
X261161500Y-100918428D01*
X261542452Y-100918428D01*
X261732928Y-101013666D01*
X261828166Y-101204142D01*
X261828166Y-101394619D01*
X260875785Y-101585095D01*
X262685309Y-102251761D02*
X262685309Y-100918428D01*
X262685309Y-101299380D02*
X262780547Y-101108904D01*
X262875785Y-101013666D01*
X263066261Y-100918428D01*
X263256738Y-100918428D01*
X265351976Y-101680333D02*
X266304357Y-101680333D01*
X265161500Y-102251761D02*
X265828166Y-100251761D01*
X266494833Y-102251761D01*
X268018642Y-102156523D02*
X267828166Y-102251761D01*
X267447214Y-102251761D01*
X267256738Y-102156523D01*
X267161500Y-102061285D01*
X267066261Y-101870809D01*
X267066261Y-101299380D01*
X267161500Y-101108904D01*
X267256738Y-101013666D01*
X267447214Y-100918428D01*
X267828166Y-100918428D01*
X268018642Y-101013666D01*
X269637690Y-102156523D02*
X269447214Y-102251761D01*
X269066261Y-102251761D01*
X268875785Y-102156523D01*
X268780547Y-101966047D01*
X268780547Y-101204142D01*
X268875785Y-101013666D01*
X269066261Y-100918428D01*
X269447214Y-100918428D01*
X269637690Y-101013666D01*
X269732928Y-101204142D01*
X269732928Y-101394619D01*
X268780547Y-101585095D01*
X272113880Y-101204142D02*
X272780547Y-101204142D01*
X273066261Y-102251761D02*
X272113880Y-102251761D01*
X272113880Y-100251761D01*
X273066261Y-100251761D01*
X273732928Y-102251761D02*
X274780547Y-100918428D01*
X273732928Y-100918428D02*
X274780547Y-102251761D01*
X275256738Y-100918428D02*
X276018642Y-100918428D01*
X275542452Y-100251761D02*
X275542452Y-101966047D01*
X275637690Y-102156523D01*
X275828166Y-102251761D01*
X276018642Y-102251761D01*
X277447214Y-102156523D02*
X277256738Y-102251761D01*
X276875785Y-102251761D01*
X276685309Y-102156523D01*
X276590071Y-101966047D01*
X276590071Y-101204142D01*
X276685309Y-101013666D01*
X276875785Y-100918428D01*
X277256738Y-100918428D01*
X277447214Y-101013666D01*
X277542452Y-101204142D01*
X277542452Y-101394619D01*
X276590071Y-101585095D01*
X278399595Y-102251761D02*
X278399595Y-100918428D01*
X278399595Y-101299380D02*
X278494833Y-101108904D01*
X278590071Y-101013666D01*
X278780547Y-100918428D01*
X278971023Y-100918428D01*
X279637690Y-100918428D02*
X279637690Y-102251761D01*
X279637690Y-101108904D02*
X279732928Y-101013666D01*
X279923404Y-100918428D01*
X280209119Y-100918428D01*
X280399595Y-101013666D01*
X280494833Y-101204142D01*
X280494833Y-102251761D01*
X282304357Y-102251761D02*
X282304357Y-101204142D01*
X282209119Y-101013666D01*
X282018642Y-100918428D01*
X281637690Y-100918428D01*
X281447214Y-101013666D01*
X282304357Y-102156523D02*
X282113880Y-102251761D01*
X281637690Y-102251761D01*
X281447214Y-102156523D01*
X281351976Y-101966047D01*
X281351976Y-101775571D01*
X281447214Y-101585095D01*
X281637690Y-101489857D01*
X282113880Y-101489857D01*
X282304357Y-101394619D01*
X283542452Y-102251761D02*
X283351976Y-102156523D01*
X283256738Y-101966047D01*
X283256738Y-100251761D01*
X285828166Y-102251761D02*
X285828166Y-100251761D01*
X286971023Y-102251761D02*
X286113880Y-101108904D01*
X286971023Y-100251761D02*
X285828166Y-101394619D01*
X288590071Y-102156523D02*
X288399595Y-102251761D01*
X288018642Y-102251761D01*
X287828166Y-102156523D01*
X287732928Y-101966047D01*
X287732928Y-101204142D01*
X287828166Y-101013666D01*
X288018642Y-100918428D01*
X288399595Y-100918428D01*
X288590071Y-101013666D01*
X288685309Y-101204142D01*
X288685309Y-101394619D01*
X287732928Y-101585095D01*
X289351976Y-100918428D02*
X289828166Y-102251761D01*
X290304357Y-100918428D02*
X289828166Y-102251761D01*
X289637690Y-102727952D01*
X289542452Y-102823190D01*
X289351976Y-102918428D01*
X291066261Y-102251761D02*
X291066261Y-100251761D01*
X291066261Y-101013666D02*
X291256738Y-100918428D01*
X291637690Y-100918428D01*
X291828166Y-101013666D01*
X291923404Y-101108904D01*
X292018642Y-101299380D01*
X292018642Y-101870809D01*
X291923404Y-102061285D01*
X291828166Y-102156523D01*
X291637690Y-102251761D01*
X291256738Y-102251761D01*
X291066261Y-102156523D01*
X293161500Y-102251761D02*
X292971023Y-102156523D01*
X292875785Y-102061285D01*
X292780547Y-101870809D01*
X292780547Y-101299380D01*
X292875785Y-101108904D01*
X292971023Y-101013666D01*
X293161500Y-100918428D01*
X293447214Y-100918428D01*
X293637690Y-101013666D01*
X293732928Y-101108904D01*
X293828166Y-101299380D01*
X293828166Y-101870809D01*
X293732928Y-102061285D01*
X293637690Y-102156523D01*
X293447214Y-102251761D01*
X293161500Y-102251761D01*
X295542452Y-102251761D02*
X295542452Y-101204142D01*
X295447214Y-101013666D01*
X295256738Y-100918428D01*
X294875785Y-100918428D01*
X294685309Y-101013666D01*
X295542452Y-102156523D02*
X295351976Y-102251761D01*
X294875785Y-102251761D01*
X294685309Y-102156523D01*
X294590071Y-101966047D01*
X294590071Y-101775571D01*
X294685309Y-101585095D01*
X294875785Y-101489857D01*
X295351976Y-101489857D01*
X295542452Y-101394619D01*
X296494833Y-102251761D02*
X296494833Y-100918428D01*
X296494833Y-101299380D02*
X296590071Y-101108904D01*
X296685309Y-101013666D01*
X296875785Y-100918428D01*
X297066261Y-100918428D01*
X298590071Y-102251761D02*
X298590071Y-100251761D01*
X298590071Y-102156523D02*
X298399595Y-102251761D01*
X298018642Y-102251761D01*
X297828166Y-102156523D01*
X297732928Y-102061285D01*
X297637690Y-101870809D01*
X297637690Y-101299380D01*
X297732928Y-101108904D01*
X297828166Y-101013666D01*
X298018642Y-100918428D01*
X298399595Y-100918428D01*
X298590071Y-101013666D01*
X253161500Y-106313666D02*
X253066261Y-106218428D01*
X252875785Y-105932714D01*
X252780547Y-105742238D01*
X252685309Y-105456523D01*
X252590071Y-104980333D01*
X252590071Y-104599380D01*
X252685309Y-104123190D01*
X252780547Y-103837476D01*
X252875785Y-103647000D01*
X253066261Y-103361285D01*
X253161500Y-103266047D01*
X254780547Y-105456523D02*
X254590071Y-105551761D01*
X254209119Y-105551761D01*
X254018642Y-105456523D01*
X253923404Y-105361285D01*
X253828166Y-105170809D01*
X253828166Y-104599380D01*
X253923404Y-104408904D01*
X254018642Y-104313666D01*
X254209119Y-104218428D01*
X254590071Y-104218428D01*
X254780547Y-104313666D01*
X255447214Y-106313666D02*
X255542452Y-106218428D01*
X255732928Y-105932714D01*
X255828166Y-105742238D01*
X255923404Y-105456523D01*
X256018642Y-104980333D01*
X256018642Y-104599380D01*
X255923404Y-104123190D01*
X255828166Y-103837476D01*
X255732928Y-103647000D01*
X255542452Y-103361285D01*
X255447214Y-103266047D01*
X259351976Y-105551761D02*
X259351976Y-104504142D01*
X259256738Y-104313666D01*
X259066261Y-104218428D01*
X258685309Y-104218428D01*
X258494833Y-104313666D01*
X259351976Y-105456523D02*
X259161500Y-105551761D01*
X258685309Y-105551761D01*
X258494833Y-105456523D01*
X258399595Y-105266047D01*
X258399595Y-105075571D01*
X258494833Y-104885095D01*
X258685309Y-104789857D01*
X259161500Y-104789857D01*
X259351976Y-104694619D01*
X260304357Y-104218428D02*
X260304357Y-105551761D01*
X260304357Y-104408904D02*
X260399595Y-104313666D01*
X260590071Y-104218428D01*
X260875785Y-104218428D01*
X261066261Y-104313666D01*
X261161500Y-104504142D01*
X261161500Y-105551761D01*
X262113880Y-105551761D02*
X262113880Y-104218428D01*
X262113880Y-103551761D02*
X262018642Y-103647000D01*
X262113880Y-103742238D01*
X262209119Y-103647000D01*
X262113880Y-103551761D01*
X262113880Y-103742238D01*
X263923404Y-104218428D02*
X263923404Y-105837476D01*
X263828166Y-106027952D01*
X263732928Y-106123190D01*
X263542452Y-106218428D01*
X263256738Y-106218428D01*
X263066261Y-106123190D01*
X263923404Y-105456523D02*
X263732928Y-105551761D01*
X263351976Y-105551761D01*
X263161500Y-105456523D01*
X263066261Y-105361285D01*
X262971023Y-105170809D01*
X262971023Y-104599380D01*
X263066261Y-104408904D01*
X263161500Y-104313666D01*
X263351976Y-104218428D01*
X263732928Y-104218428D01*
X263923404Y-104313666D01*
X264875785Y-105551761D02*
X264875785Y-103551761D01*
X265732928Y-105551761D02*
X265732928Y-104504142D01*
X265637690Y-104313666D01*
X265447214Y-104218428D01*
X265161500Y-104218428D01*
X264971023Y-104313666D01*
X264875785Y-104408904D01*
X266399595Y-104218428D02*
X267161500Y-104218428D01*
X266685309Y-103551761D02*
X266685309Y-105266047D01*
X266780547Y-105456523D01*
X266971023Y-105551761D01*
X267161500Y-105551761D01*
X267828166Y-105551761D02*
X267828166Y-104218428D01*
X267828166Y-103551761D02*
X267732928Y-103647000D01*
X267828166Y-103742238D01*
X267923404Y-103647000D01*
X267828166Y-103551761D01*
X267828166Y-103742238D01*
X268780547Y-104218428D02*
X268780547Y-105551761D01*
X268780547Y-104408904D02*
X268875785Y-104313666D01*
X269066261Y-104218428D01*
X269351976Y-104218428D01*
X269542452Y-104313666D01*
X269637690Y-104504142D01*
X269637690Y-105551761D01*
X270685309Y-105456523D02*
X270685309Y-105551761D01*
X270590071Y-105742238D01*
X270494833Y-105837476D01*
X272875785Y-104218428D02*
X273351976Y-105551761D01*
X273828166Y-104218428D01*
X274971023Y-103551761D02*
X275161500Y-103551761D01*
X275351976Y-103647000D01*
X275447214Y-103742238D01*
X275542452Y-103932714D01*
X275637690Y-104313666D01*
X275637690Y-104789857D01*
X275542452Y-105170809D01*
X275447214Y-105361285D01*
X275351976Y-105456523D01*
X275161500Y-105551761D01*
X274971023Y-105551761D01*
X274780547Y-105456523D01*
X274685309Y-105361285D01*
X274590071Y-105170809D01*
X274494833Y-104789857D01*
X274494833Y-104313666D01*
X274590071Y-103932714D01*
X274685309Y-103742238D01*
X274780547Y-103647000D01*
X274971023Y-103551761D01*
X277542452Y-105551761D02*
X276399595Y-105551761D01*
X276971023Y-105551761D02*
X276971023Y-103551761D01*
X276780547Y-103837476D01*
X276590071Y-104027952D01*
X276399595Y-104123190D01*
X278780547Y-103551761D02*
X278971023Y-103551761D01*
X279161500Y-103647000D01*
X279256738Y-103742238D01*
X279351976Y-103932714D01*
X279447214Y-104313666D01*
X279447214Y-104789857D01*
X279351976Y-105170809D01*
X279256738Y-105361285D01*
X279161500Y-105456523D01*
X278971023Y-105551761D01*
X278780547Y-105551761D01*
X278590071Y-105456523D01*
X278494833Y-105361285D01*
X278399595Y-105170809D01*
X278304357Y-104789857D01*
X278304357Y-104313666D01*
X278399595Y-103932714D01*
X278494833Y-103742238D01*
X278590071Y-103647000D01*
X278780547Y-103551761D01*
X281351976Y-105551761D02*
X280209119Y-105551761D01*
X280780547Y-105551761D02*
X280780547Y-103551761D01*
X280590071Y-103837476D01*
X280399595Y-104027952D01*
X280209119Y-104123190D01*
X282304357Y-105456523D02*
X282304357Y-105551761D01*
X282209119Y-105742238D01*
X282113880Y-105837476D01*
X284590071Y-104980333D02*
X285542452Y-104980333D01*
X284399595Y-105551761D02*
X285066261Y-103551761D01*
X285732928Y-105551761D01*
X287256738Y-104218428D02*
X287256738Y-105551761D01*
X286399595Y-104218428D02*
X286399595Y-105266047D01*
X286494833Y-105456523D01*
X286685309Y-105551761D01*
X286971023Y-105551761D01*
X287161500Y-105456523D01*
X287256738Y-105361285D01*
X289066261Y-104218428D02*
X289066261Y-105837476D01*
X288971023Y-106027952D01*
X288875785Y-106123190D01*
X288685309Y-106218428D01*
X288399595Y-106218428D01*
X288209119Y-106123190D01*
X289066261Y-105456523D02*
X288875785Y-105551761D01*
X288494833Y-105551761D01*
X288304357Y-105456523D01*
X288209119Y-105361285D01*
X288113880Y-105170809D01*
X288113880Y-104599380D01*
X288209119Y-104408904D01*
X288304357Y-104313666D01*
X288494833Y-104218428D01*
X288875785Y-104218428D01*
X289066261Y-104313666D01*
X291447214Y-103742238D02*
X291542452Y-103647000D01*
X291732928Y-103551761D01*
X292209119Y-103551761D01*
X292399595Y-103647000D01*
X292494833Y-103742238D01*
X292590071Y-103932714D01*
X292590071Y-104123190D01*
X292494833Y-104408904D01*
X291351976Y-105551761D01*
X292590071Y-105551761D01*
X293828166Y-103551761D02*
X294018642Y-103551761D01*
X294209119Y-103647000D01*
X294304357Y-103742238D01*
X294399595Y-103932714D01*
X294494833Y-104313666D01*
X294494833Y-104789857D01*
X294399595Y-105170809D01*
X294304357Y-105361285D01*
X294209119Y-105456523D01*
X294018642Y-105551761D01*
X293828166Y-105551761D01*
X293637690Y-105456523D01*
X293542452Y-105361285D01*
X293447214Y-105170809D01*
X293351976Y-104789857D01*
X293351976Y-104313666D01*
X293447214Y-103932714D01*
X293542452Y-103742238D01*
X293637690Y-103647000D01*
X293828166Y-103551761D01*
X295256738Y-103742238D02*
X295351976Y-103647000D01*
X295542452Y-103551761D01*
X296018642Y-103551761D01*
X296209119Y-103647000D01*
X296304357Y-103742238D01*
X296399595Y-103932714D01*
X296399595Y-104123190D01*
X296304357Y-104408904D01*
X295161500Y-105551761D01*
X296399595Y-105551761D01*
X297637690Y-103551761D02*
X297828166Y-103551761D01*
X298018642Y-103647000D01*
X298113880Y-103742238D01*
X298209119Y-103932714D01*
X298304357Y-104313666D01*
X298304357Y-104789857D01*
X298209119Y-105170809D01*
X298113880Y-105361285D01*
X298018642Y-105456523D01*
X297828166Y-105551761D01*
X297637690Y-105551761D01*
X297447214Y-105456523D01*
X297351976Y-105361285D01*
X297256738Y-105170809D01*
X297161500Y-104789857D01*
X297161500Y-104313666D01*
X297256738Y-103932714D01*
X297351976Y-103742238D01*
X297447214Y-103647000D01*
X297637690Y-103551761D01*
D11*
G04 #@! TO.C,SW38*
X158926664Y-77570000D02*
X172896664Y-77570000D01*
X172896664Y-77570000D02*
X172896664Y-91540000D01*
X172896664Y-91540000D02*
X158926664Y-91540000D01*
X158926664Y-91540000D02*
X158926664Y-77570000D01*
G04 #@! TO.C,SW33*
X57726944Y-77570000D02*
X71696944Y-77570000D01*
X71696944Y-77570000D02*
X71696944Y-91540000D01*
X71696944Y-91540000D02*
X57726944Y-91540000D01*
X57726944Y-91540000D02*
X57726944Y-77570000D01*
G04 #@! TO.C,SW41*
X261556500Y-20320000D02*
X275526500Y-20320000D01*
X275526500Y-20320000D02*
X275526500Y-34290000D01*
X275526500Y-34290000D02*
X261556500Y-34290000D01*
X261556500Y-34290000D02*
X261556500Y-20320000D01*
G04 #@! TO.C,D3*
X14370628Y-28555393D02*
X16610628Y-28555393D01*
X14370628Y-28315393D02*
X16610628Y-28315393D01*
X14370628Y-28435393D02*
X16610628Y-28435393D01*
X15490628Y-24265393D02*
X15490628Y-24915393D01*
X15490628Y-29805393D02*
X15490628Y-29155393D01*
X14370628Y-24915393D02*
X14370628Y-29155393D01*
X16610628Y-24915393D02*
X14370628Y-24915393D01*
X16610628Y-29155393D02*
X16610628Y-24915393D01*
X14370628Y-29155393D02*
X16610628Y-29155393D01*
G04 #@! TO.C,D4*
X16910628Y-29155393D02*
X19150628Y-29155393D01*
X19150628Y-29155393D02*
X19150628Y-24915393D01*
X19150628Y-24915393D02*
X16910628Y-24915393D01*
X16910628Y-24915393D02*
X16910628Y-29155393D01*
X18030628Y-29805393D02*
X18030628Y-29155393D01*
X18030628Y-24265393D02*
X18030628Y-24915393D01*
X16910628Y-28435393D02*
X19150628Y-28435393D01*
X16910628Y-28315393D02*
X19150628Y-28315393D01*
X16910628Y-28555393D02*
X19150628Y-28555393D01*
G04 #@! TO.C,D5*
X19577628Y-28555393D02*
X21817628Y-28555393D01*
X19577628Y-28315393D02*
X21817628Y-28315393D01*
X19577628Y-28435393D02*
X21817628Y-28435393D01*
X20697628Y-24265393D02*
X20697628Y-24915393D01*
X20697628Y-29805393D02*
X20697628Y-29155393D01*
X19577628Y-24915393D02*
X19577628Y-29155393D01*
X21817628Y-24915393D02*
X19577628Y-24915393D01*
X21817628Y-29155393D02*
X21817628Y-24915393D01*
X19577628Y-29155393D02*
X21817628Y-29155393D01*
G04 #@! TO.C,D6*
X22117628Y-29155393D02*
X24357628Y-29155393D01*
X24357628Y-29155393D02*
X24357628Y-24915393D01*
X24357628Y-24915393D02*
X22117628Y-24915393D01*
X22117628Y-24915393D02*
X22117628Y-29155393D01*
X23237628Y-29805393D02*
X23237628Y-29155393D01*
X23237628Y-24265393D02*
X23237628Y-24915393D01*
X22117628Y-28435393D02*
X24357628Y-28435393D01*
X22117628Y-28315393D02*
X24357628Y-28315393D01*
X22117628Y-28555393D02*
X24357628Y-28555393D01*
G04 #@! TO.C,D7*
X24793628Y-29202393D02*
X27033628Y-29202393D01*
X27033628Y-29202393D02*
X27033628Y-24962393D01*
X27033628Y-24962393D02*
X24793628Y-24962393D01*
X24793628Y-24962393D02*
X24793628Y-29202393D01*
X25913628Y-29852393D02*
X25913628Y-29202393D01*
X25913628Y-24312393D02*
X25913628Y-24962393D01*
X24793628Y-28482393D02*
X27033628Y-28482393D01*
X24793628Y-28362393D02*
X27033628Y-28362393D01*
X24793628Y-28602393D02*
X27033628Y-28602393D01*
G04 #@! TO.C,D8*
X11767128Y-28555393D02*
X14007128Y-28555393D01*
X11767128Y-28315393D02*
X14007128Y-28315393D01*
X11767128Y-28435393D02*
X14007128Y-28435393D01*
X12887128Y-24265393D02*
X12887128Y-24915393D01*
X12887128Y-29805393D02*
X12887128Y-29155393D01*
X11767128Y-24915393D02*
X11767128Y-29155393D01*
X14007128Y-24915393D02*
X11767128Y-24915393D01*
X14007128Y-29155393D02*
X14007128Y-24915393D01*
X11767128Y-29155393D02*
X14007128Y-29155393D01*
G04 #@! TO.C,D9*
X9227128Y-29218893D02*
X11467128Y-29218893D01*
X11467128Y-29218893D02*
X11467128Y-24978893D01*
X11467128Y-24978893D02*
X9227128Y-24978893D01*
X9227128Y-24978893D02*
X9227128Y-29218893D01*
X10347128Y-29868893D02*
X10347128Y-29218893D01*
X10347128Y-24328893D02*
X10347128Y-24978893D01*
X9227128Y-28498893D02*
X11467128Y-28498893D01*
X9227128Y-28378893D02*
X11467128Y-28378893D01*
X9227128Y-28618893D02*
X11467128Y-28618893D01*
G04 #@! TO.C,D10*
X6687128Y-28618893D02*
X8927128Y-28618893D01*
X6687128Y-28378893D02*
X8927128Y-28378893D01*
X6687128Y-28498893D02*
X8927128Y-28498893D01*
X7807128Y-24328893D02*
X7807128Y-24978893D01*
X7807128Y-29868893D02*
X7807128Y-29218893D01*
X6687128Y-24978893D02*
X6687128Y-29218893D01*
X8927128Y-24978893D02*
X6687128Y-24978893D01*
X8927128Y-29218893D02*
X8927128Y-24978893D01*
X6687128Y-29218893D02*
X8927128Y-29218893D01*
G04 #@! TO.C,J1*
X17573500Y-56963000D02*
G75*
G02X15573500Y-56963000I-1000000J0D01*
G01*
X15573500Y-56963000D02*
X13923500Y-56963000D01*
X13923500Y-56963000D02*
X13923500Y-77403000D01*
X13923500Y-77403000D02*
X19223500Y-77403000D01*
X19223500Y-77403000D02*
X19223500Y-56963000D01*
X19223500Y-56963000D02*
X17573500Y-56963000D01*
X11433500Y-56903000D02*
X11433500Y-77463000D01*
X11433500Y-77463000D02*
X21713500Y-77463000D01*
X21713500Y-77463000D02*
X21713500Y-56903000D01*
X21713500Y-56903000D02*
X11433500Y-56903000D01*
G04 #@! TO.C,SW1*
X32194500Y-34290000D02*
X32194500Y-20320000D01*
X46164500Y-34290000D02*
X32194500Y-34290000D01*
X46164500Y-20320000D02*
X46164500Y-34290000D01*
X32194500Y-20320000D02*
X46164500Y-20320000D01*
G04 #@! TO.C,SW2*
X52458055Y-34286000D02*
X52458055Y-20316000D01*
X66428055Y-34286000D02*
X52458055Y-34286000D01*
X66428055Y-20316000D02*
X66428055Y-34286000D01*
X52458055Y-20316000D02*
X66428055Y-20316000D01*
G04 #@! TO.C,SW3*
X72721610Y-34286000D02*
X72721610Y-20316000D01*
X86691610Y-34286000D02*
X72721610Y-34286000D01*
X86691610Y-20316000D02*
X86691610Y-34286000D01*
X72721610Y-20316000D02*
X86691610Y-20316000D01*
G04 #@! TO.C,SW4*
X92985165Y-34286000D02*
X92985165Y-20316000D01*
X106955165Y-34286000D02*
X92985165Y-34286000D01*
X106955165Y-20316000D02*
X106955165Y-34286000D01*
X92985165Y-20316000D02*
X106955165Y-20316000D01*
G04 #@! TO.C,SW5*
X113248720Y-34286000D02*
X113248720Y-20316000D01*
X127218720Y-34286000D02*
X113248720Y-34286000D01*
X127218720Y-20316000D02*
X127218720Y-34286000D01*
X113248720Y-20316000D02*
X127218720Y-20316000D01*
G04 #@! TO.C,SW6*
X133512275Y-34286000D02*
X133512275Y-20316000D01*
X147482275Y-34286000D02*
X133512275Y-34286000D01*
X147482275Y-20316000D02*
X147482275Y-34286000D01*
X133512275Y-20316000D02*
X147482275Y-20316000D01*
G04 #@! TO.C,SW7*
X153775830Y-34286000D02*
X153775830Y-20316000D01*
X167745830Y-34286000D02*
X153775830Y-34286000D01*
X167745830Y-20316000D02*
X167745830Y-34286000D01*
X153775830Y-20316000D02*
X167745830Y-20316000D01*
G04 #@! TO.C,SW8*
X174039385Y-34286000D02*
X174039385Y-20316000D01*
X188009385Y-34286000D02*
X174039385Y-34286000D01*
X188009385Y-20316000D02*
X188009385Y-34286000D01*
X174039385Y-20316000D02*
X188009385Y-20316000D01*
G04 #@! TO.C,SW9*
X194302940Y-34286000D02*
X194302940Y-20316000D01*
X208272940Y-34286000D02*
X194302940Y-34286000D01*
X208272940Y-20316000D02*
X208272940Y-34286000D01*
X194302940Y-20316000D02*
X208272940Y-20316000D01*
G04 #@! TO.C,SW10*
X214566500Y-34290000D02*
X214566500Y-20320000D01*
X228536500Y-34290000D02*
X214566500Y-34290000D01*
X228536500Y-20320000D02*
X228536500Y-34290000D01*
X214566500Y-20320000D02*
X228536500Y-20320000D01*
G04 #@! TO.C,SW11*
X39609000Y-39462000D02*
X53579000Y-39462000D01*
X53579000Y-39462000D02*
X53579000Y-53432000D01*
X53579000Y-53432000D02*
X39609000Y-53432000D01*
X39609000Y-53432000D02*
X39609000Y-39462000D01*
G04 #@! TO.C,SW12*
X59838944Y-39462000D02*
X73808944Y-39462000D01*
X73808944Y-39462000D02*
X73808944Y-53432000D01*
X73808944Y-53432000D02*
X59838944Y-53432000D01*
X59838944Y-53432000D02*
X59838944Y-39462000D01*
G04 #@! TO.C,SW13*
X80068888Y-39462000D02*
X94038888Y-39462000D01*
X94038888Y-39462000D02*
X94038888Y-53432000D01*
X94038888Y-53432000D02*
X80068888Y-53432000D01*
X80068888Y-53432000D02*
X80068888Y-39462000D01*
G04 #@! TO.C,SW14*
X100298832Y-39462000D02*
X114268832Y-39462000D01*
X114268832Y-39462000D02*
X114268832Y-53432000D01*
X114268832Y-53432000D02*
X100298832Y-53432000D01*
X100298832Y-53432000D02*
X100298832Y-39462000D01*
G04 #@! TO.C,SW15*
X120528776Y-39462000D02*
X134498776Y-39462000D01*
X134498776Y-39462000D02*
X134498776Y-53432000D01*
X134498776Y-53432000D02*
X120528776Y-53432000D01*
X120528776Y-53432000D02*
X120528776Y-39462000D01*
G04 #@! TO.C,SW16*
X140758720Y-39462000D02*
X154728720Y-39462000D01*
X154728720Y-39462000D02*
X154728720Y-53432000D01*
X154728720Y-53432000D02*
X140758720Y-53432000D01*
X140758720Y-53432000D02*
X140758720Y-39462000D01*
G04 #@! TO.C,SW17*
X160988664Y-39462000D02*
X174958664Y-39462000D01*
X174958664Y-39462000D02*
X174958664Y-53432000D01*
X174958664Y-53432000D02*
X160988664Y-53432000D01*
X160988664Y-53432000D02*
X160988664Y-39462000D01*
G04 #@! TO.C,SW18*
X181218608Y-39462000D02*
X195188608Y-39462000D01*
X195188608Y-39462000D02*
X195188608Y-53432000D01*
X195188608Y-53432000D02*
X181218608Y-53432000D01*
X181218608Y-53432000D02*
X181218608Y-39462000D01*
G04 #@! TO.C,SW19*
X201448552Y-39462000D02*
X215418552Y-39462000D01*
X215418552Y-39462000D02*
X215418552Y-53432000D01*
X215418552Y-53432000D02*
X201448552Y-53432000D01*
X201448552Y-53432000D02*
X201448552Y-39462000D01*
G04 #@! TO.C,SW20*
X221678500Y-39462000D02*
X235648500Y-39462000D01*
X235648500Y-39462000D02*
X235648500Y-53432000D01*
X235648500Y-53432000D02*
X221678500Y-53432000D01*
X221678500Y-53432000D02*
X221678500Y-39462000D01*
G04 #@! TO.C,SW21*
X44386500Y-72486000D02*
X44386500Y-58516000D01*
X58356500Y-72486000D02*
X44386500Y-72486000D01*
X58356500Y-58516000D02*
X58356500Y-72486000D01*
X44386500Y-58516000D02*
X58356500Y-58516000D01*
G04 #@! TO.C,SW22*
X64621833Y-72486000D02*
X64621833Y-58516000D01*
X78591833Y-72486000D02*
X64621833Y-72486000D01*
X78591833Y-58516000D02*
X78591833Y-72486000D01*
X64621833Y-58516000D02*
X78591833Y-58516000D01*
G04 #@! TO.C,SW23*
X84857166Y-72486000D02*
X84857166Y-58516000D01*
X98827166Y-72486000D02*
X84857166Y-72486000D01*
X98827166Y-58516000D02*
X98827166Y-72486000D01*
X84857166Y-58516000D02*
X98827166Y-58516000D01*
G04 #@! TO.C,SW24*
X105092499Y-72486000D02*
X105092499Y-58516000D01*
X119062499Y-72486000D02*
X105092499Y-72486000D01*
X119062499Y-58516000D02*
X119062499Y-72486000D01*
X105092499Y-58516000D02*
X119062499Y-58516000D01*
G04 #@! TO.C,SW25*
X125327832Y-72486000D02*
X125327832Y-58516000D01*
X139297832Y-72486000D02*
X125327832Y-72486000D01*
X139297832Y-58516000D02*
X139297832Y-72486000D01*
X125327832Y-58516000D02*
X139297832Y-58516000D01*
G04 #@! TO.C,SW26*
X145563165Y-72486000D02*
X145563165Y-58516000D01*
X159533165Y-72486000D02*
X145563165Y-72486000D01*
X159533165Y-58516000D02*
X159533165Y-72486000D01*
X145563165Y-58516000D02*
X159533165Y-58516000D01*
G04 #@! TO.C,SW27*
X165798498Y-72486000D02*
X165798498Y-58516000D01*
X179768498Y-72486000D02*
X165798498Y-72486000D01*
X179768498Y-58516000D02*
X179768498Y-72486000D01*
X165798498Y-58516000D02*
X179768498Y-58516000D01*
G04 #@! TO.C,SW28*
X186033831Y-72486000D02*
X186033831Y-58516000D01*
X200003831Y-72486000D02*
X186033831Y-72486000D01*
X200003831Y-58516000D02*
X200003831Y-72486000D01*
X186033831Y-58516000D02*
X200003831Y-58516000D01*
G04 #@! TO.C,SW29*
X206269164Y-72486000D02*
X206269164Y-58516000D01*
X220239164Y-72486000D02*
X206269164Y-72486000D01*
X220239164Y-58516000D02*
X220239164Y-72486000D01*
X206269164Y-58516000D02*
X220239164Y-58516000D01*
G04 #@! TO.C,SW30*
X226504500Y-72486000D02*
X226504500Y-58516000D01*
X240474500Y-72486000D02*
X226504500Y-72486000D01*
X240474500Y-58516000D02*
X240474500Y-72486000D01*
X226504500Y-58516000D02*
X240474500Y-58516000D01*
G04 #@! TO.C,SW31*
X37487000Y-77570000D02*
X51457000Y-77570000D01*
X51457000Y-77570000D02*
X51457000Y-91540000D01*
X51457000Y-91540000D02*
X37487000Y-91540000D01*
X37487000Y-91540000D02*
X37487000Y-77570000D01*
G04 #@! TO.C,SW32*
X199406552Y-77570000D02*
X213376552Y-77570000D01*
X213376552Y-77570000D02*
X213376552Y-91540000D01*
X213376552Y-91540000D02*
X199406552Y-91540000D01*
X199406552Y-91540000D02*
X199406552Y-77570000D01*
G04 #@! TO.C,SW34*
X77966888Y-77570000D02*
X91936888Y-77570000D01*
X91936888Y-77570000D02*
X91936888Y-91540000D01*
X91936888Y-91540000D02*
X77966888Y-91540000D01*
X77966888Y-91540000D02*
X77966888Y-77570000D01*
G04 #@! TO.C,SW35*
X98206832Y-77570000D02*
X112176832Y-77570000D01*
X112176832Y-77570000D02*
X112176832Y-91540000D01*
X112176832Y-91540000D02*
X98206832Y-91540000D01*
X98206832Y-91540000D02*
X98206832Y-77570000D01*
G04 #@! TO.C,SW36*
X118446776Y-77570000D02*
X132416776Y-77570000D01*
X132416776Y-77570000D02*
X132416776Y-91540000D01*
X132416776Y-91540000D02*
X118446776Y-91540000D01*
X118446776Y-91540000D02*
X118446776Y-77570000D01*
G04 #@! TO.C,SW37*
X138686720Y-77570000D02*
X152656720Y-77570000D01*
X152656720Y-77570000D02*
X152656720Y-91540000D01*
X152656720Y-91540000D02*
X138686720Y-91540000D01*
X138686720Y-91540000D02*
X138686720Y-77570000D01*
G04 #@! TO.C,SW39*
X179166608Y-77570000D02*
X193136608Y-77570000D01*
X193136608Y-77570000D02*
X193136608Y-91540000D01*
X193136608Y-91540000D02*
X179166608Y-91540000D01*
X179166608Y-91540000D02*
X179166608Y-77570000D01*
G04 #@! TO.C,SW40*
X219646500Y-77570000D02*
X233616500Y-77570000D01*
X233616500Y-77570000D02*
X233616500Y-91540000D01*
X233616500Y-91540000D02*
X219646500Y-91540000D01*
X219646500Y-91540000D02*
X219646500Y-77570000D01*
G04 #@! TO.C,SW42*
X280606500Y-20320000D02*
X294576500Y-20320000D01*
X294576500Y-20320000D02*
X294576500Y-34290000D01*
X294576500Y-34290000D02*
X280606500Y-34290000D01*
X280606500Y-34290000D02*
X280606500Y-20320000D01*
G04 #@! TO.C,SW43*
X299656500Y-34290000D02*
X299656500Y-20320000D01*
X313626500Y-34290000D02*
X299656500Y-34290000D01*
X313626500Y-20320000D02*
X313626500Y-34290000D01*
X299656500Y-20320000D02*
X313626500Y-20320000D01*
G04 #@! TO.C,SW44*
X261556500Y-53340000D02*
X261556500Y-39370000D01*
X275526500Y-53340000D02*
X261556500Y-53340000D01*
X275526500Y-39370000D02*
X275526500Y-53340000D01*
X261556500Y-39370000D02*
X275526500Y-39370000D01*
G04 #@! TO.C,SW45*
X280606500Y-53340000D02*
X280606500Y-39370000D01*
X294576500Y-53340000D02*
X280606500Y-53340000D01*
X294576500Y-39370000D02*
X294576500Y-53340000D01*
X280606500Y-39370000D02*
X294576500Y-39370000D01*
G04 #@! TO.C,SW46*
X299656500Y-39370000D02*
X313626500Y-39370000D01*
X313626500Y-39370000D02*
X313626500Y-53340000D01*
X313626500Y-53340000D02*
X299656500Y-53340000D01*
X299656500Y-53340000D02*
X299656500Y-39370000D01*
G04 #@! TO.C,SW47*
X261556500Y-58420000D02*
X275526500Y-58420000D01*
X275526500Y-58420000D02*
X275526500Y-72390000D01*
X275526500Y-72390000D02*
X261556500Y-72390000D01*
X261556500Y-72390000D02*
X261556500Y-58420000D01*
G04 #@! TO.C,SW48*
X280606500Y-58420000D02*
X294576500Y-58420000D01*
X294576500Y-58420000D02*
X294576500Y-72390000D01*
X294576500Y-72390000D02*
X280606500Y-72390000D01*
X280606500Y-72390000D02*
X280606500Y-58420000D01*
G04 #@! TO.C,SW49*
X299656500Y-72390000D02*
X299656500Y-58420000D01*
X313626500Y-72390000D02*
X299656500Y-72390000D01*
X313626500Y-58420000D02*
X313626500Y-72390000D01*
X299656500Y-58420000D02*
X313626500Y-58420000D01*
G04 #@! TO.C,SW50*
X261556500Y-91440000D02*
X261556500Y-77470000D01*
X275526500Y-91440000D02*
X261556500Y-91440000D01*
X275526500Y-77470000D02*
X275526500Y-91440000D01*
X261556500Y-77470000D02*
X275526500Y-77470000D01*
G04 #@! TO.C,SW51*
X280606500Y-91440000D02*
X280606500Y-77470000D01*
X294576500Y-91440000D02*
X280606500Y-91440000D01*
X294576500Y-77470000D02*
X294576500Y-91440000D01*
X280606500Y-77470000D02*
X294576500Y-77470000D01*
G04 #@! TO.C,SW52*
X299656500Y-77470000D02*
X313626500Y-77470000D01*
X313626500Y-77470000D02*
X313626500Y-91440000D01*
X313626500Y-91440000D02*
X299656500Y-91440000D01*
X299656500Y-91440000D02*
X299656500Y-77470000D01*
G04 #@! TO.C,U1*
X30603500Y-46593000D02*
G75*
G02X30603500Y-44593000I0J1000000D01*
G01*
X30603500Y-44593000D02*
X30603500Y-42943000D01*
X30603500Y-42943000D02*
X5083500Y-42943000D01*
X5083500Y-42943000D02*
X5083500Y-48243000D01*
X5083500Y-48243000D02*
X30603500Y-48243000D01*
X30603500Y-48243000D02*
X30603500Y-46593000D01*
X30663500Y-40453000D02*
X5023500Y-40453000D01*
X5023500Y-40453000D02*
X5023500Y-50733000D01*
X5023500Y-50733000D02*
X30663500Y-50733000D01*
X30663500Y-50733000D02*
X30663500Y-40453000D01*
G04 #@! TO.C,D2*
X17991835Y-92012392D02*
G75*
G03X14759500Y-91855484I-1672335J-1078608D01*
G01*
X17991835Y-94169608D02*
G75*
G02X14759500Y-94326516I-1672335J1078608D01*
G01*
X17360630Y-92011163D02*
G75*
G03X15278539Y-92011000I-1041130J-1079837D01*
G01*
X17360630Y-94170837D02*
G75*
G02X15278539Y-94171000I-1041130J1079837D01*
G01*
X14759500Y-91855000D02*
X14759500Y-92011000D01*
X14759500Y-94171000D02*
X14759500Y-94327000D01*
G04 #@! TO.C,R1*
X9993500Y-90075000D02*
X10323500Y-90075000D01*
X10323500Y-90075000D02*
X10323500Y-96615000D01*
X10323500Y-96615000D02*
X9993500Y-96615000D01*
X7913500Y-90075000D02*
X7583500Y-90075000D01*
X7583500Y-90075000D02*
X7583500Y-96615000D01*
X7583500Y-96615000D02*
X7913500Y-96615000D01*
G04 #@! TO.C,SW38*
D12*
X164102140Y-77085761D02*
X164244997Y-77133380D01*
X164483092Y-77133380D01*
X164578330Y-77085761D01*
X164625949Y-77038142D01*
X164673568Y-76942904D01*
X164673568Y-76847666D01*
X164625949Y-76752428D01*
X164578330Y-76704809D01*
X164483092Y-76657190D01*
X164292616Y-76609571D01*
X164197378Y-76561952D01*
X164149759Y-76514333D01*
X164102140Y-76419095D01*
X164102140Y-76323857D01*
X164149759Y-76228619D01*
X164197378Y-76181000D01*
X164292616Y-76133380D01*
X164530711Y-76133380D01*
X164673568Y-76181000D01*
X165006902Y-76133380D02*
X165244997Y-77133380D01*
X165435473Y-76419095D01*
X165625949Y-77133380D01*
X165864044Y-76133380D01*
X166149759Y-76133380D02*
X166768806Y-76133380D01*
X166435473Y-76514333D01*
X166578330Y-76514333D01*
X166673568Y-76561952D01*
X166721187Y-76609571D01*
X166768806Y-76704809D01*
X166768806Y-76942904D01*
X166721187Y-77038142D01*
X166673568Y-77085761D01*
X166578330Y-77133380D01*
X166292616Y-77133380D01*
X166197378Y-77085761D01*
X166149759Y-77038142D01*
X167340235Y-76561952D02*
X167244997Y-76514333D01*
X167197378Y-76466714D01*
X167149759Y-76371476D01*
X167149759Y-76323857D01*
X167197378Y-76228619D01*
X167244997Y-76181000D01*
X167340235Y-76133380D01*
X167530711Y-76133380D01*
X167625949Y-76181000D01*
X167673568Y-76228619D01*
X167721187Y-76323857D01*
X167721187Y-76371476D01*
X167673568Y-76466714D01*
X167625949Y-76514333D01*
X167530711Y-76561952D01*
X167340235Y-76561952D01*
X167244997Y-76609571D01*
X167197378Y-76657190D01*
X167149759Y-76752428D01*
X167149759Y-76942904D01*
X167197378Y-77038142D01*
X167244997Y-77085761D01*
X167340235Y-77133380D01*
X167530711Y-77133380D01*
X167625949Y-77085761D01*
X167673568Y-77038142D01*
X167721187Y-76942904D01*
X167721187Y-76752428D01*
X167673568Y-76657190D01*
X167625949Y-76609571D01*
X167530711Y-76561952D01*
G04 #@! TO.C,SW33*
X62902420Y-77085761D02*
X63045277Y-77133380D01*
X63283372Y-77133380D01*
X63378610Y-77085761D01*
X63426229Y-77038142D01*
X63473848Y-76942904D01*
X63473848Y-76847666D01*
X63426229Y-76752428D01*
X63378610Y-76704809D01*
X63283372Y-76657190D01*
X63092896Y-76609571D01*
X62997658Y-76561952D01*
X62950039Y-76514333D01*
X62902420Y-76419095D01*
X62902420Y-76323857D01*
X62950039Y-76228619D01*
X62997658Y-76181000D01*
X63092896Y-76133380D01*
X63330991Y-76133380D01*
X63473848Y-76181000D01*
X63807182Y-76133380D02*
X64045277Y-77133380D01*
X64235753Y-76419095D01*
X64426229Y-77133380D01*
X64664324Y-76133380D01*
X64950039Y-76133380D02*
X65569086Y-76133380D01*
X65235753Y-76514333D01*
X65378610Y-76514333D01*
X65473848Y-76561952D01*
X65521467Y-76609571D01*
X65569086Y-76704809D01*
X65569086Y-76942904D01*
X65521467Y-77038142D01*
X65473848Y-77085761D01*
X65378610Y-77133380D01*
X65092896Y-77133380D01*
X64997658Y-77085761D01*
X64950039Y-77038142D01*
X65902420Y-76133380D02*
X66521467Y-76133380D01*
X66188134Y-76514333D01*
X66330991Y-76514333D01*
X66426229Y-76561952D01*
X66473848Y-76609571D01*
X66521467Y-76704809D01*
X66521467Y-76942904D01*
X66473848Y-77038142D01*
X66426229Y-77085761D01*
X66330991Y-77133380D01*
X66045277Y-77133380D01*
X65950039Y-77085761D01*
X65902420Y-77038142D01*
G04 #@! TO.C,SW41*
X266731976Y-19835761D02*
X266874833Y-19883380D01*
X267112928Y-19883380D01*
X267208166Y-19835761D01*
X267255785Y-19788142D01*
X267303404Y-19692904D01*
X267303404Y-19597666D01*
X267255785Y-19502428D01*
X267208166Y-19454809D01*
X267112928Y-19407190D01*
X266922452Y-19359571D01*
X266827214Y-19311952D01*
X266779595Y-19264333D01*
X266731976Y-19169095D01*
X266731976Y-19073857D01*
X266779595Y-18978619D01*
X266827214Y-18931000D01*
X266922452Y-18883380D01*
X267160547Y-18883380D01*
X267303404Y-18931000D01*
X267636738Y-18883380D02*
X267874833Y-19883380D01*
X268065309Y-19169095D01*
X268255785Y-19883380D01*
X268493880Y-18883380D01*
X269303404Y-19216714D02*
X269303404Y-19883380D01*
X269065309Y-18835761D02*
X268827214Y-19550047D01*
X269446261Y-19550047D01*
X270351023Y-19883380D02*
X269779595Y-19883380D01*
X270065309Y-19883380D02*
X270065309Y-18883380D01*
X269970071Y-19026238D01*
X269874833Y-19121476D01*
X269779595Y-19169095D01*
G04 #@! TO.C,D3*
X16009880Y-27535095D02*
X15009880Y-27535095D01*
X15009880Y-27297000D01*
X15057500Y-27154142D01*
X15152738Y-27058904D01*
X15247976Y-27011285D01*
X15438452Y-26963666D01*
X15581309Y-26963666D01*
X15771785Y-27011285D01*
X15867023Y-27058904D01*
X15962261Y-27154142D01*
X16009880Y-27297000D01*
X16009880Y-27535095D01*
X15009880Y-26630333D02*
X15009880Y-26011285D01*
X15390833Y-26344619D01*
X15390833Y-26201761D01*
X15438452Y-26106523D01*
X15486071Y-26058904D01*
X15581309Y-26011285D01*
X15819404Y-26011285D01*
X15914642Y-26058904D01*
X15962261Y-26106523D01*
X16009880Y-26201761D01*
X16009880Y-26487476D01*
X15962261Y-26582714D01*
X15914642Y-26630333D01*
X13469880Y-31107297D02*
X12469880Y-31107297D01*
X13469880Y-30535869D02*
X12898452Y-30964440D01*
X12469880Y-30535869D02*
X13041309Y-31107297D01*
G04 #@! TO.C,D4*
X18549880Y-27535095D02*
X17549880Y-27535095D01*
X17549880Y-27297000D01*
X17597500Y-27154142D01*
X17692738Y-27058904D01*
X17787976Y-27011285D01*
X17978452Y-26963666D01*
X18121309Y-26963666D01*
X18311785Y-27011285D01*
X18407023Y-27058904D01*
X18502261Y-27154142D01*
X18549880Y-27297000D01*
X18549880Y-27535095D01*
X17883214Y-26106523D02*
X18549880Y-26106523D01*
X17502261Y-26344619D02*
X18216547Y-26582714D01*
X18216547Y-25963666D01*
X16009880Y-31107297D02*
X15009880Y-31107297D01*
X16009880Y-30535869D02*
X15438452Y-30964440D01*
X15009880Y-30535869D02*
X15581309Y-31107297D01*
G04 #@! TO.C,D5*
X21089880Y-27535095D02*
X20089880Y-27535095D01*
X20089880Y-27297000D01*
X20137500Y-27154142D01*
X20232738Y-27058904D01*
X20327976Y-27011285D01*
X20518452Y-26963666D01*
X20661309Y-26963666D01*
X20851785Y-27011285D01*
X20947023Y-27058904D01*
X21042261Y-27154142D01*
X21089880Y-27297000D01*
X21089880Y-27535095D01*
X20089880Y-26058904D02*
X20089880Y-26535095D01*
X20566071Y-26582714D01*
X20518452Y-26535095D01*
X20470833Y-26439857D01*
X20470833Y-26201761D01*
X20518452Y-26106523D01*
X20566071Y-26058904D01*
X20661309Y-26011285D01*
X20899404Y-26011285D01*
X20994642Y-26058904D01*
X21042261Y-26106523D01*
X21089880Y-26201761D01*
X21089880Y-26439857D01*
X21042261Y-26535095D01*
X20994642Y-26582714D01*
X18549880Y-31107297D02*
X17549880Y-31107297D01*
X18549880Y-30535869D02*
X17978452Y-30964440D01*
X17549880Y-30535869D02*
X18121309Y-31107297D01*
G04 #@! TO.C,D6*
X23629880Y-27535095D02*
X22629880Y-27535095D01*
X22629880Y-27297000D01*
X22677500Y-27154142D01*
X22772738Y-27058904D01*
X22867976Y-27011285D01*
X23058452Y-26963666D01*
X23201309Y-26963666D01*
X23391785Y-27011285D01*
X23487023Y-27058904D01*
X23582261Y-27154142D01*
X23629880Y-27297000D01*
X23629880Y-27535095D01*
X22629880Y-26106523D02*
X22629880Y-26297000D01*
X22677500Y-26392238D01*
X22725119Y-26439857D01*
X22867976Y-26535095D01*
X23058452Y-26582714D01*
X23439404Y-26582714D01*
X23534642Y-26535095D01*
X23582261Y-26487476D01*
X23629880Y-26392238D01*
X23629880Y-26201761D01*
X23582261Y-26106523D01*
X23534642Y-26058904D01*
X23439404Y-26011285D01*
X23201309Y-26011285D01*
X23106071Y-26058904D01*
X23058452Y-26106523D01*
X23010833Y-26201761D01*
X23010833Y-26392238D01*
X23058452Y-26487476D01*
X23106071Y-26535095D01*
X23201309Y-26582714D01*
X21343880Y-31107297D02*
X20343880Y-31107297D01*
X21343880Y-30535869D02*
X20772452Y-30964440D01*
X20343880Y-30535869D02*
X20915309Y-31107297D01*
G04 #@! TO.C,D7*
X26423880Y-27535095D02*
X25423880Y-27535095D01*
X25423880Y-27297000D01*
X25471500Y-27154142D01*
X25566738Y-27058904D01*
X25661976Y-27011285D01*
X25852452Y-26963666D01*
X25995309Y-26963666D01*
X26185785Y-27011285D01*
X26281023Y-27058904D01*
X26376261Y-27154142D01*
X26423880Y-27297000D01*
X26423880Y-27535095D01*
X25423880Y-26630333D02*
X25423880Y-25963666D01*
X26423880Y-26392238D01*
X23629880Y-31122904D02*
X22629880Y-31122904D01*
X23629880Y-30551476D02*
X23058452Y-30980047D01*
X22629880Y-30551476D02*
X23201309Y-31122904D01*
G04 #@! TO.C,D8*
X13215880Y-27535095D02*
X12215880Y-27535095D01*
X12215880Y-27297000D01*
X12263500Y-27154142D01*
X12358738Y-27058904D01*
X12453976Y-27011285D01*
X12644452Y-26963666D01*
X12787309Y-26963666D01*
X12977785Y-27011285D01*
X13073023Y-27058904D01*
X13168261Y-27154142D01*
X13215880Y-27297000D01*
X13215880Y-27535095D01*
X12644452Y-26392238D02*
X12596833Y-26487476D01*
X12549214Y-26535095D01*
X12453976Y-26582714D01*
X12406357Y-26582714D01*
X12311119Y-26535095D01*
X12263500Y-26487476D01*
X12215880Y-26392238D01*
X12215880Y-26201761D01*
X12263500Y-26106523D01*
X12311119Y-26058904D01*
X12406357Y-26011285D01*
X12453976Y-26011285D01*
X12549214Y-26058904D01*
X12596833Y-26106523D01*
X12644452Y-26201761D01*
X12644452Y-26392238D01*
X12692071Y-26487476D01*
X12739690Y-26535095D01*
X12834928Y-26582714D01*
X13025404Y-26582714D01*
X13120642Y-26535095D01*
X13168261Y-26487476D01*
X13215880Y-26392238D01*
X13215880Y-26201761D01*
X13168261Y-26106523D01*
X13120642Y-26058904D01*
X13025404Y-26011285D01*
X12834928Y-26011285D01*
X12739690Y-26058904D01*
X12692071Y-26106523D01*
X12644452Y-26201761D01*
X10929880Y-31122904D02*
X9929880Y-31122904D01*
X10929880Y-30551476D02*
X10358452Y-30980047D01*
X9929880Y-30551476D02*
X10501309Y-31122904D01*
G04 #@! TO.C,D9*
X10675880Y-27535095D02*
X9675880Y-27535095D01*
X9675880Y-27297000D01*
X9723500Y-27154142D01*
X9818738Y-27058904D01*
X9913976Y-27011285D01*
X10104452Y-26963666D01*
X10247309Y-26963666D01*
X10437785Y-27011285D01*
X10533023Y-27058904D01*
X10628261Y-27154142D01*
X10675880Y-27297000D01*
X10675880Y-27535095D01*
X10675880Y-26487476D02*
X10675880Y-26297000D01*
X10628261Y-26201761D01*
X10580642Y-26154142D01*
X10437785Y-26058904D01*
X10247309Y-26011285D01*
X9866357Y-26011285D01*
X9771119Y-26058904D01*
X9723500Y-26106523D01*
X9675880Y-26201761D01*
X9675880Y-26392238D01*
X9723500Y-26487476D01*
X9771119Y-26535095D01*
X9866357Y-26582714D01*
X10104452Y-26582714D01*
X10199690Y-26535095D01*
X10247309Y-26487476D01*
X10294928Y-26392238D01*
X10294928Y-26201761D01*
X10247309Y-26106523D01*
X10199690Y-26058904D01*
X10104452Y-26011285D01*
X8389880Y-31122904D02*
X7389880Y-31122904D01*
X8389880Y-30551476D02*
X7818452Y-30980047D01*
X7389880Y-30551476D02*
X7961309Y-31122904D01*
G04 #@! TO.C,D10*
X8389880Y-28011285D02*
X7389880Y-28011285D01*
X7389880Y-27773190D01*
X7437500Y-27630333D01*
X7532738Y-27535095D01*
X7627976Y-27487476D01*
X7818452Y-27439857D01*
X7961309Y-27439857D01*
X8151785Y-27487476D01*
X8247023Y-27535095D01*
X8342261Y-27630333D01*
X8389880Y-27773190D01*
X8389880Y-28011285D01*
X8389880Y-26487476D02*
X8389880Y-27058904D01*
X8389880Y-26773190D02*
X7389880Y-26773190D01*
X7532738Y-26868428D01*
X7627976Y-26963666D01*
X7675595Y-27058904D01*
X7389880Y-25868428D02*
X7389880Y-25773190D01*
X7437500Y-25677952D01*
X7485119Y-25630333D01*
X7580357Y-25582714D01*
X7770833Y-25535095D01*
X8008928Y-25535095D01*
X8199404Y-25582714D01*
X8294642Y-25630333D01*
X8342261Y-25677952D01*
X8389880Y-25773190D01*
X8389880Y-25868428D01*
X8342261Y-25963666D01*
X8294642Y-26011285D01*
X8199404Y-26058904D01*
X8008928Y-26106523D01*
X7770833Y-26106523D01*
X7580357Y-26058904D01*
X7485119Y-26011285D01*
X7437500Y-25963666D01*
X7389880Y-25868428D01*
X26423880Y-31122904D02*
X25423880Y-31122904D01*
X26423880Y-30551476D02*
X25852452Y-30980047D01*
X25423880Y-30551476D02*
X25995309Y-31122904D01*
G04 #@! TO.C,J1*
X16240166Y-55415380D02*
X16240166Y-56129666D01*
X16192547Y-56272523D01*
X16097309Y-56367761D01*
X15954452Y-56415380D01*
X15859214Y-56415380D01*
X17240166Y-56415380D02*
X16668738Y-56415380D01*
X16954452Y-56415380D02*
X16954452Y-55415380D01*
X16859214Y-55558238D01*
X16763976Y-55653476D01*
X16668738Y-55701095D01*
G04 #@! TO.C,SW1*
X37846166Y-19835761D02*
X37989023Y-19883380D01*
X38227119Y-19883380D01*
X38322357Y-19835761D01*
X38369976Y-19788142D01*
X38417595Y-19692904D01*
X38417595Y-19597666D01*
X38369976Y-19502428D01*
X38322357Y-19454809D01*
X38227119Y-19407190D01*
X38036642Y-19359571D01*
X37941404Y-19311952D01*
X37893785Y-19264333D01*
X37846166Y-19169095D01*
X37846166Y-19073857D01*
X37893785Y-18978619D01*
X37941404Y-18931000D01*
X38036642Y-18883380D01*
X38274738Y-18883380D01*
X38417595Y-18931000D01*
X38750928Y-18883380D02*
X38989023Y-19883380D01*
X39179500Y-19169095D01*
X39369976Y-19883380D01*
X39608071Y-18883380D01*
X40512833Y-19883380D02*
X39941404Y-19883380D01*
X40227119Y-19883380D02*
X40227119Y-18883380D01*
X40131880Y-19026238D01*
X40036642Y-19121476D01*
X39941404Y-19169095D01*
G04 #@! TO.C,SW2*
X58109721Y-19831761D02*
X58252578Y-19879380D01*
X58490674Y-19879380D01*
X58585912Y-19831761D01*
X58633531Y-19784142D01*
X58681150Y-19688904D01*
X58681150Y-19593666D01*
X58633531Y-19498428D01*
X58585912Y-19450809D01*
X58490674Y-19403190D01*
X58300197Y-19355571D01*
X58204959Y-19307952D01*
X58157340Y-19260333D01*
X58109721Y-19165095D01*
X58109721Y-19069857D01*
X58157340Y-18974619D01*
X58204959Y-18927000D01*
X58300197Y-18879380D01*
X58538293Y-18879380D01*
X58681150Y-18927000D01*
X59014483Y-18879380D02*
X59252578Y-19879380D01*
X59443055Y-19165095D01*
X59633531Y-19879380D01*
X59871626Y-18879380D01*
X60204959Y-18974619D02*
X60252578Y-18927000D01*
X60347816Y-18879380D01*
X60585912Y-18879380D01*
X60681150Y-18927000D01*
X60728769Y-18974619D01*
X60776388Y-19069857D01*
X60776388Y-19165095D01*
X60728769Y-19307952D01*
X60157340Y-19879380D01*
X60776388Y-19879380D01*
G04 #@! TO.C,SW3*
X78373276Y-19831761D02*
X78516133Y-19879380D01*
X78754229Y-19879380D01*
X78849467Y-19831761D01*
X78897086Y-19784142D01*
X78944705Y-19688904D01*
X78944705Y-19593666D01*
X78897086Y-19498428D01*
X78849467Y-19450809D01*
X78754229Y-19403190D01*
X78563752Y-19355571D01*
X78468514Y-19307952D01*
X78420895Y-19260333D01*
X78373276Y-19165095D01*
X78373276Y-19069857D01*
X78420895Y-18974619D01*
X78468514Y-18927000D01*
X78563752Y-18879380D01*
X78801848Y-18879380D01*
X78944705Y-18927000D01*
X79278038Y-18879380D02*
X79516133Y-19879380D01*
X79706610Y-19165095D01*
X79897086Y-19879380D01*
X80135181Y-18879380D01*
X80420895Y-18879380D02*
X81039943Y-18879380D01*
X80706610Y-19260333D01*
X80849467Y-19260333D01*
X80944705Y-19307952D01*
X80992324Y-19355571D01*
X81039943Y-19450809D01*
X81039943Y-19688904D01*
X80992324Y-19784142D01*
X80944705Y-19831761D01*
X80849467Y-19879380D01*
X80563752Y-19879380D01*
X80468514Y-19831761D01*
X80420895Y-19784142D01*
G04 #@! TO.C,SW4*
X98636831Y-19831761D02*
X98779688Y-19879380D01*
X99017784Y-19879380D01*
X99113022Y-19831761D01*
X99160641Y-19784142D01*
X99208260Y-19688904D01*
X99208260Y-19593666D01*
X99160641Y-19498428D01*
X99113022Y-19450809D01*
X99017784Y-19403190D01*
X98827307Y-19355571D01*
X98732069Y-19307952D01*
X98684450Y-19260333D01*
X98636831Y-19165095D01*
X98636831Y-19069857D01*
X98684450Y-18974619D01*
X98732069Y-18927000D01*
X98827307Y-18879380D01*
X99065403Y-18879380D01*
X99208260Y-18927000D01*
X99541593Y-18879380D02*
X99779688Y-19879380D01*
X99970165Y-19165095D01*
X100160641Y-19879380D01*
X100398736Y-18879380D01*
X101208260Y-19212714D02*
X101208260Y-19879380D01*
X100970165Y-18831761D02*
X100732069Y-19546047D01*
X101351117Y-19546047D01*
G04 #@! TO.C,SW5*
X118900386Y-19831761D02*
X119043243Y-19879380D01*
X119281339Y-19879380D01*
X119376577Y-19831761D01*
X119424196Y-19784142D01*
X119471815Y-19688904D01*
X119471815Y-19593666D01*
X119424196Y-19498428D01*
X119376577Y-19450809D01*
X119281339Y-19403190D01*
X119090862Y-19355571D01*
X118995624Y-19307952D01*
X118948005Y-19260333D01*
X118900386Y-19165095D01*
X118900386Y-19069857D01*
X118948005Y-18974619D01*
X118995624Y-18927000D01*
X119090862Y-18879380D01*
X119328958Y-18879380D01*
X119471815Y-18927000D01*
X119805148Y-18879380D02*
X120043243Y-19879380D01*
X120233720Y-19165095D01*
X120424196Y-19879380D01*
X120662291Y-18879380D01*
X121519434Y-18879380D02*
X121043243Y-18879380D01*
X120995624Y-19355571D01*
X121043243Y-19307952D01*
X121138481Y-19260333D01*
X121376577Y-19260333D01*
X121471815Y-19307952D01*
X121519434Y-19355571D01*
X121567053Y-19450809D01*
X121567053Y-19688904D01*
X121519434Y-19784142D01*
X121471815Y-19831761D01*
X121376577Y-19879380D01*
X121138481Y-19879380D01*
X121043243Y-19831761D01*
X120995624Y-19784142D01*
G04 #@! TO.C,SW6*
X139163941Y-19831761D02*
X139306798Y-19879380D01*
X139544894Y-19879380D01*
X139640132Y-19831761D01*
X139687751Y-19784142D01*
X139735370Y-19688904D01*
X139735370Y-19593666D01*
X139687751Y-19498428D01*
X139640132Y-19450809D01*
X139544894Y-19403190D01*
X139354417Y-19355571D01*
X139259179Y-19307952D01*
X139211560Y-19260333D01*
X139163941Y-19165095D01*
X139163941Y-19069857D01*
X139211560Y-18974619D01*
X139259179Y-18927000D01*
X139354417Y-18879380D01*
X139592513Y-18879380D01*
X139735370Y-18927000D01*
X140068703Y-18879380D02*
X140306798Y-19879380D01*
X140497275Y-19165095D01*
X140687751Y-19879380D01*
X140925846Y-18879380D01*
X141735370Y-18879380D02*
X141544894Y-18879380D01*
X141449655Y-18927000D01*
X141402036Y-18974619D01*
X141306798Y-19117476D01*
X141259179Y-19307952D01*
X141259179Y-19688904D01*
X141306798Y-19784142D01*
X141354417Y-19831761D01*
X141449655Y-19879380D01*
X141640132Y-19879380D01*
X141735370Y-19831761D01*
X141782989Y-19784142D01*
X141830608Y-19688904D01*
X141830608Y-19450809D01*
X141782989Y-19355571D01*
X141735370Y-19307952D01*
X141640132Y-19260333D01*
X141449655Y-19260333D01*
X141354417Y-19307952D01*
X141306798Y-19355571D01*
X141259179Y-19450809D01*
G04 #@! TO.C,SW7*
X159427496Y-19831761D02*
X159570353Y-19879380D01*
X159808449Y-19879380D01*
X159903687Y-19831761D01*
X159951306Y-19784142D01*
X159998925Y-19688904D01*
X159998925Y-19593666D01*
X159951306Y-19498428D01*
X159903687Y-19450809D01*
X159808449Y-19403190D01*
X159617972Y-19355571D01*
X159522734Y-19307952D01*
X159475115Y-19260333D01*
X159427496Y-19165095D01*
X159427496Y-19069857D01*
X159475115Y-18974619D01*
X159522734Y-18927000D01*
X159617972Y-18879380D01*
X159856068Y-18879380D01*
X159998925Y-18927000D01*
X160332258Y-18879380D02*
X160570353Y-19879380D01*
X160760830Y-19165095D01*
X160951306Y-19879380D01*
X161189401Y-18879380D01*
X161475115Y-18879380D02*
X162141782Y-18879380D01*
X161713210Y-19879380D01*
G04 #@! TO.C,SW8*
X179691051Y-19831761D02*
X179833908Y-19879380D01*
X180072004Y-19879380D01*
X180167242Y-19831761D01*
X180214861Y-19784142D01*
X180262480Y-19688904D01*
X180262480Y-19593666D01*
X180214861Y-19498428D01*
X180167242Y-19450809D01*
X180072004Y-19403190D01*
X179881527Y-19355571D01*
X179786289Y-19307952D01*
X179738670Y-19260333D01*
X179691051Y-19165095D01*
X179691051Y-19069857D01*
X179738670Y-18974619D01*
X179786289Y-18927000D01*
X179881527Y-18879380D01*
X180119623Y-18879380D01*
X180262480Y-18927000D01*
X180595813Y-18879380D02*
X180833908Y-19879380D01*
X181024385Y-19165095D01*
X181214861Y-19879380D01*
X181452956Y-18879380D01*
X181976765Y-19307952D02*
X181881527Y-19260333D01*
X181833908Y-19212714D01*
X181786289Y-19117476D01*
X181786289Y-19069857D01*
X181833908Y-18974619D01*
X181881527Y-18927000D01*
X181976765Y-18879380D01*
X182167242Y-18879380D01*
X182262480Y-18927000D01*
X182310099Y-18974619D01*
X182357718Y-19069857D01*
X182357718Y-19117476D01*
X182310099Y-19212714D01*
X182262480Y-19260333D01*
X182167242Y-19307952D01*
X181976765Y-19307952D01*
X181881527Y-19355571D01*
X181833908Y-19403190D01*
X181786289Y-19498428D01*
X181786289Y-19688904D01*
X181833908Y-19784142D01*
X181881527Y-19831761D01*
X181976765Y-19879380D01*
X182167242Y-19879380D01*
X182262480Y-19831761D01*
X182310099Y-19784142D01*
X182357718Y-19688904D01*
X182357718Y-19498428D01*
X182310099Y-19403190D01*
X182262480Y-19355571D01*
X182167242Y-19307952D01*
G04 #@! TO.C,SW9*
X199954606Y-19831761D02*
X200097463Y-19879380D01*
X200335559Y-19879380D01*
X200430797Y-19831761D01*
X200478416Y-19784142D01*
X200526035Y-19688904D01*
X200526035Y-19593666D01*
X200478416Y-19498428D01*
X200430797Y-19450809D01*
X200335559Y-19403190D01*
X200145082Y-19355571D01*
X200049844Y-19307952D01*
X200002225Y-19260333D01*
X199954606Y-19165095D01*
X199954606Y-19069857D01*
X200002225Y-18974619D01*
X200049844Y-18927000D01*
X200145082Y-18879380D01*
X200383178Y-18879380D01*
X200526035Y-18927000D01*
X200859368Y-18879380D02*
X201097463Y-19879380D01*
X201287940Y-19165095D01*
X201478416Y-19879380D01*
X201716511Y-18879380D01*
X202145082Y-19879380D02*
X202335559Y-19879380D01*
X202430797Y-19831761D01*
X202478416Y-19784142D01*
X202573654Y-19641285D01*
X202621273Y-19450809D01*
X202621273Y-19069857D01*
X202573654Y-18974619D01*
X202526035Y-18927000D01*
X202430797Y-18879380D01*
X202240320Y-18879380D01*
X202145082Y-18927000D01*
X202097463Y-18974619D01*
X202049844Y-19069857D01*
X202049844Y-19307952D01*
X202097463Y-19403190D01*
X202145082Y-19450809D01*
X202240320Y-19498428D01*
X202430797Y-19498428D01*
X202526035Y-19450809D01*
X202573654Y-19403190D01*
X202621273Y-19307952D01*
G04 #@! TO.C,SW10*
X219741976Y-19835761D02*
X219884833Y-19883380D01*
X220122928Y-19883380D01*
X220218166Y-19835761D01*
X220265785Y-19788142D01*
X220313404Y-19692904D01*
X220313404Y-19597666D01*
X220265785Y-19502428D01*
X220218166Y-19454809D01*
X220122928Y-19407190D01*
X219932452Y-19359571D01*
X219837214Y-19311952D01*
X219789595Y-19264333D01*
X219741976Y-19169095D01*
X219741976Y-19073857D01*
X219789595Y-18978619D01*
X219837214Y-18931000D01*
X219932452Y-18883380D01*
X220170547Y-18883380D01*
X220313404Y-18931000D01*
X220646738Y-18883380D02*
X220884833Y-19883380D01*
X221075309Y-19169095D01*
X221265785Y-19883380D01*
X221503880Y-18883380D01*
X222408642Y-19883380D02*
X221837214Y-19883380D01*
X222122928Y-19883380D02*
X222122928Y-18883380D01*
X222027690Y-19026238D01*
X221932452Y-19121476D01*
X221837214Y-19169095D01*
X223027690Y-18883380D02*
X223122928Y-18883380D01*
X223218166Y-18931000D01*
X223265785Y-18978619D01*
X223313404Y-19073857D01*
X223361023Y-19264333D01*
X223361023Y-19502428D01*
X223313404Y-19692904D01*
X223265785Y-19788142D01*
X223218166Y-19835761D01*
X223122928Y-19883380D01*
X223027690Y-19883380D01*
X222932452Y-19835761D01*
X222884833Y-19788142D01*
X222837214Y-19692904D01*
X222789595Y-19502428D01*
X222789595Y-19264333D01*
X222837214Y-19073857D01*
X222884833Y-18978619D01*
X222932452Y-18931000D01*
X223027690Y-18883380D01*
G04 #@! TO.C,SW11*
X44784476Y-38977761D02*
X44927333Y-39025380D01*
X45165428Y-39025380D01*
X45260666Y-38977761D01*
X45308285Y-38930142D01*
X45355904Y-38834904D01*
X45355904Y-38739666D01*
X45308285Y-38644428D01*
X45260666Y-38596809D01*
X45165428Y-38549190D01*
X44974952Y-38501571D01*
X44879714Y-38453952D01*
X44832095Y-38406333D01*
X44784476Y-38311095D01*
X44784476Y-38215857D01*
X44832095Y-38120619D01*
X44879714Y-38073000D01*
X44974952Y-38025380D01*
X45213047Y-38025380D01*
X45355904Y-38073000D01*
X45689238Y-38025380D02*
X45927333Y-39025380D01*
X46117809Y-38311095D01*
X46308285Y-39025380D01*
X46546380Y-38025380D01*
X47451142Y-39025380D02*
X46879714Y-39025380D01*
X47165428Y-39025380D02*
X47165428Y-38025380D01*
X47070190Y-38168238D01*
X46974952Y-38263476D01*
X46879714Y-38311095D01*
X48403523Y-39025380D02*
X47832095Y-39025380D01*
X48117809Y-39025380D02*
X48117809Y-38025380D01*
X48022571Y-38168238D01*
X47927333Y-38263476D01*
X47832095Y-38311095D01*
G04 #@! TO.C,SW12*
X65014420Y-38977761D02*
X65157277Y-39025380D01*
X65395372Y-39025380D01*
X65490610Y-38977761D01*
X65538229Y-38930142D01*
X65585848Y-38834904D01*
X65585848Y-38739666D01*
X65538229Y-38644428D01*
X65490610Y-38596809D01*
X65395372Y-38549190D01*
X65204896Y-38501571D01*
X65109658Y-38453952D01*
X65062039Y-38406333D01*
X65014420Y-38311095D01*
X65014420Y-38215857D01*
X65062039Y-38120619D01*
X65109658Y-38073000D01*
X65204896Y-38025380D01*
X65442991Y-38025380D01*
X65585848Y-38073000D01*
X65919182Y-38025380D02*
X66157277Y-39025380D01*
X66347753Y-38311095D01*
X66538229Y-39025380D01*
X66776324Y-38025380D01*
X67681086Y-39025380D02*
X67109658Y-39025380D01*
X67395372Y-39025380D02*
X67395372Y-38025380D01*
X67300134Y-38168238D01*
X67204896Y-38263476D01*
X67109658Y-38311095D01*
X68062039Y-38120619D02*
X68109658Y-38073000D01*
X68204896Y-38025380D01*
X68442991Y-38025380D01*
X68538229Y-38073000D01*
X68585848Y-38120619D01*
X68633467Y-38215857D01*
X68633467Y-38311095D01*
X68585848Y-38453952D01*
X68014420Y-39025380D01*
X68633467Y-39025380D01*
G04 #@! TO.C,SW13*
X85244364Y-38977761D02*
X85387221Y-39025380D01*
X85625316Y-39025380D01*
X85720554Y-38977761D01*
X85768173Y-38930142D01*
X85815792Y-38834904D01*
X85815792Y-38739666D01*
X85768173Y-38644428D01*
X85720554Y-38596809D01*
X85625316Y-38549190D01*
X85434840Y-38501571D01*
X85339602Y-38453952D01*
X85291983Y-38406333D01*
X85244364Y-38311095D01*
X85244364Y-38215857D01*
X85291983Y-38120619D01*
X85339602Y-38073000D01*
X85434840Y-38025380D01*
X85672935Y-38025380D01*
X85815792Y-38073000D01*
X86149126Y-38025380D02*
X86387221Y-39025380D01*
X86577697Y-38311095D01*
X86768173Y-39025380D01*
X87006268Y-38025380D01*
X87911030Y-39025380D02*
X87339602Y-39025380D01*
X87625316Y-39025380D02*
X87625316Y-38025380D01*
X87530078Y-38168238D01*
X87434840Y-38263476D01*
X87339602Y-38311095D01*
X88244364Y-38025380D02*
X88863411Y-38025380D01*
X88530078Y-38406333D01*
X88672935Y-38406333D01*
X88768173Y-38453952D01*
X88815792Y-38501571D01*
X88863411Y-38596809D01*
X88863411Y-38834904D01*
X88815792Y-38930142D01*
X88768173Y-38977761D01*
X88672935Y-39025380D01*
X88387221Y-39025380D01*
X88291983Y-38977761D01*
X88244364Y-38930142D01*
G04 #@! TO.C,SW14*
X105474308Y-38977761D02*
X105617165Y-39025380D01*
X105855260Y-39025380D01*
X105950498Y-38977761D01*
X105998117Y-38930142D01*
X106045736Y-38834904D01*
X106045736Y-38739666D01*
X105998117Y-38644428D01*
X105950498Y-38596809D01*
X105855260Y-38549190D01*
X105664784Y-38501571D01*
X105569546Y-38453952D01*
X105521927Y-38406333D01*
X105474308Y-38311095D01*
X105474308Y-38215857D01*
X105521927Y-38120619D01*
X105569546Y-38073000D01*
X105664784Y-38025380D01*
X105902879Y-38025380D01*
X106045736Y-38073000D01*
X106379070Y-38025380D02*
X106617165Y-39025380D01*
X106807641Y-38311095D01*
X106998117Y-39025380D01*
X107236212Y-38025380D01*
X108140974Y-39025380D02*
X107569546Y-39025380D01*
X107855260Y-39025380D02*
X107855260Y-38025380D01*
X107760022Y-38168238D01*
X107664784Y-38263476D01*
X107569546Y-38311095D01*
X108998117Y-38358714D02*
X108998117Y-39025380D01*
X108760022Y-37977761D02*
X108521927Y-38692047D01*
X109140974Y-38692047D01*
G04 #@! TO.C,SW15*
X125704252Y-38977761D02*
X125847109Y-39025380D01*
X126085204Y-39025380D01*
X126180442Y-38977761D01*
X126228061Y-38930142D01*
X126275680Y-38834904D01*
X126275680Y-38739666D01*
X126228061Y-38644428D01*
X126180442Y-38596809D01*
X126085204Y-38549190D01*
X125894728Y-38501571D01*
X125799490Y-38453952D01*
X125751871Y-38406333D01*
X125704252Y-38311095D01*
X125704252Y-38215857D01*
X125751871Y-38120619D01*
X125799490Y-38073000D01*
X125894728Y-38025380D01*
X126132823Y-38025380D01*
X126275680Y-38073000D01*
X126609014Y-38025380D02*
X126847109Y-39025380D01*
X127037585Y-38311095D01*
X127228061Y-39025380D01*
X127466156Y-38025380D01*
X128370918Y-39025380D02*
X127799490Y-39025380D01*
X128085204Y-39025380D02*
X128085204Y-38025380D01*
X127989966Y-38168238D01*
X127894728Y-38263476D01*
X127799490Y-38311095D01*
X129275680Y-38025380D02*
X128799490Y-38025380D01*
X128751871Y-38501571D01*
X128799490Y-38453952D01*
X128894728Y-38406333D01*
X129132823Y-38406333D01*
X129228061Y-38453952D01*
X129275680Y-38501571D01*
X129323299Y-38596809D01*
X129323299Y-38834904D01*
X129275680Y-38930142D01*
X129228061Y-38977761D01*
X129132823Y-39025380D01*
X128894728Y-39025380D01*
X128799490Y-38977761D01*
X128751871Y-38930142D01*
G04 #@! TO.C,SW16*
X145934196Y-38977761D02*
X146077053Y-39025380D01*
X146315148Y-39025380D01*
X146410386Y-38977761D01*
X146458005Y-38930142D01*
X146505624Y-38834904D01*
X146505624Y-38739666D01*
X146458005Y-38644428D01*
X146410386Y-38596809D01*
X146315148Y-38549190D01*
X146124672Y-38501571D01*
X146029434Y-38453952D01*
X145981815Y-38406333D01*
X145934196Y-38311095D01*
X145934196Y-38215857D01*
X145981815Y-38120619D01*
X146029434Y-38073000D01*
X146124672Y-38025380D01*
X146362767Y-38025380D01*
X146505624Y-38073000D01*
X146838958Y-38025380D02*
X147077053Y-39025380D01*
X147267529Y-38311095D01*
X147458005Y-39025380D01*
X147696100Y-38025380D01*
X148600862Y-39025380D02*
X148029434Y-39025380D01*
X148315148Y-39025380D02*
X148315148Y-38025380D01*
X148219910Y-38168238D01*
X148124672Y-38263476D01*
X148029434Y-38311095D01*
X149458005Y-38025380D02*
X149267529Y-38025380D01*
X149172291Y-38073000D01*
X149124672Y-38120619D01*
X149029434Y-38263476D01*
X148981815Y-38453952D01*
X148981815Y-38834904D01*
X149029434Y-38930142D01*
X149077053Y-38977761D01*
X149172291Y-39025380D01*
X149362767Y-39025380D01*
X149458005Y-38977761D01*
X149505624Y-38930142D01*
X149553243Y-38834904D01*
X149553243Y-38596809D01*
X149505624Y-38501571D01*
X149458005Y-38453952D01*
X149362767Y-38406333D01*
X149172291Y-38406333D01*
X149077053Y-38453952D01*
X149029434Y-38501571D01*
X148981815Y-38596809D01*
G04 #@! TO.C,SW17*
X166164140Y-38977761D02*
X166306997Y-39025380D01*
X166545092Y-39025380D01*
X166640330Y-38977761D01*
X166687949Y-38930142D01*
X166735568Y-38834904D01*
X166735568Y-38739666D01*
X166687949Y-38644428D01*
X166640330Y-38596809D01*
X166545092Y-38549190D01*
X166354616Y-38501571D01*
X166259378Y-38453952D01*
X166211759Y-38406333D01*
X166164140Y-38311095D01*
X166164140Y-38215857D01*
X166211759Y-38120619D01*
X166259378Y-38073000D01*
X166354616Y-38025380D01*
X166592711Y-38025380D01*
X166735568Y-38073000D01*
X167068902Y-38025380D02*
X167306997Y-39025380D01*
X167497473Y-38311095D01*
X167687949Y-39025380D01*
X167926044Y-38025380D01*
X168830806Y-39025380D02*
X168259378Y-39025380D01*
X168545092Y-39025380D02*
X168545092Y-38025380D01*
X168449854Y-38168238D01*
X168354616Y-38263476D01*
X168259378Y-38311095D01*
X169164140Y-38025380D02*
X169830806Y-38025380D01*
X169402235Y-39025380D01*
G04 #@! TO.C,SW18*
X186394084Y-38977761D02*
X186536941Y-39025380D01*
X186775036Y-39025380D01*
X186870274Y-38977761D01*
X186917893Y-38930142D01*
X186965512Y-38834904D01*
X186965512Y-38739666D01*
X186917893Y-38644428D01*
X186870274Y-38596809D01*
X186775036Y-38549190D01*
X186584560Y-38501571D01*
X186489322Y-38453952D01*
X186441703Y-38406333D01*
X186394084Y-38311095D01*
X186394084Y-38215857D01*
X186441703Y-38120619D01*
X186489322Y-38073000D01*
X186584560Y-38025380D01*
X186822655Y-38025380D01*
X186965512Y-38073000D01*
X187298846Y-38025380D02*
X187536941Y-39025380D01*
X187727417Y-38311095D01*
X187917893Y-39025380D01*
X188155988Y-38025380D01*
X189060750Y-39025380D02*
X188489322Y-39025380D01*
X188775036Y-39025380D02*
X188775036Y-38025380D01*
X188679798Y-38168238D01*
X188584560Y-38263476D01*
X188489322Y-38311095D01*
X189632179Y-38453952D02*
X189536941Y-38406333D01*
X189489322Y-38358714D01*
X189441703Y-38263476D01*
X189441703Y-38215857D01*
X189489322Y-38120619D01*
X189536941Y-38073000D01*
X189632179Y-38025380D01*
X189822655Y-38025380D01*
X189917893Y-38073000D01*
X189965512Y-38120619D01*
X190013131Y-38215857D01*
X190013131Y-38263476D01*
X189965512Y-38358714D01*
X189917893Y-38406333D01*
X189822655Y-38453952D01*
X189632179Y-38453952D01*
X189536941Y-38501571D01*
X189489322Y-38549190D01*
X189441703Y-38644428D01*
X189441703Y-38834904D01*
X189489322Y-38930142D01*
X189536941Y-38977761D01*
X189632179Y-39025380D01*
X189822655Y-39025380D01*
X189917893Y-38977761D01*
X189965512Y-38930142D01*
X190013131Y-38834904D01*
X190013131Y-38644428D01*
X189965512Y-38549190D01*
X189917893Y-38501571D01*
X189822655Y-38453952D01*
G04 #@! TO.C,SW19*
X206624028Y-38977761D02*
X206766885Y-39025380D01*
X207004980Y-39025380D01*
X207100218Y-38977761D01*
X207147837Y-38930142D01*
X207195456Y-38834904D01*
X207195456Y-38739666D01*
X207147837Y-38644428D01*
X207100218Y-38596809D01*
X207004980Y-38549190D01*
X206814504Y-38501571D01*
X206719266Y-38453952D01*
X206671647Y-38406333D01*
X206624028Y-38311095D01*
X206624028Y-38215857D01*
X206671647Y-38120619D01*
X206719266Y-38073000D01*
X206814504Y-38025380D01*
X207052599Y-38025380D01*
X207195456Y-38073000D01*
X207528790Y-38025380D02*
X207766885Y-39025380D01*
X207957361Y-38311095D01*
X208147837Y-39025380D01*
X208385932Y-38025380D01*
X209290694Y-39025380D02*
X208719266Y-39025380D01*
X209004980Y-39025380D02*
X209004980Y-38025380D01*
X208909742Y-38168238D01*
X208814504Y-38263476D01*
X208719266Y-38311095D01*
X209766885Y-39025380D02*
X209957361Y-39025380D01*
X210052599Y-38977761D01*
X210100218Y-38930142D01*
X210195456Y-38787285D01*
X210243075Y-38596809D01*
X210243075Y-38215857D01*
X210195456Y-38120619D01*
X210147837Y-38073000D01*
X210052599Y-38025380D01*
X209862123Y-38025380D01*
X209766885Y-38073000D01*
X209719266Y-38120619D01*
X209671647Y-38215857D01*
X209671647Y-38453952D01*
X209719266Y-38549190D01*
X209766885Y-38596809D01*
X209862123Y-38644428D01*
X210052599Y-38644428D01*
X210147837Y-38596809D01*
X210195456Y-38549190D01*
X210243075Y-38453952D01*
G04 #@! TO.C,SW20*
X226853976Y-38977761D02*
X226996833Y-39025380D01*
X227234928Y-39025380D01*
X227330166Y-38977761D01*
X227377785Y-38930142D01*
X227425404Y-38834904D01*
X227425404Y-38739666D01*
X227377785Y-38644428D01*
X227330166Y-38596809D01*
X227234928Y-38549190D01*
X227044452Y-38501571D01*
X226949214Y-38453952D01*
X226901595Y-38406333D01*
X226853976Y-38311095D01*
X226853976Y-38215857D01*
X226901595Y-38120619D01*
X226949214Y-38073000D01*
X227044452Y-38025380D01*
X227282547Y-38025380D01*
X227425404Y-38073000D01*
X227758738Y-38025380D02*
X227996833Y-39025380D01*
X228187309Y-38311095D01*
X228377785Y-39025380D01*
X228615880Y-38025380D01*
X228949214Y-38120619D02*
X228996833Y-38073000D01*
X229092071Y-38025380D01*
X229330166Y-38025380D01*
X229425404Y-38073000D01*
X229473023Y-38120619D01*
X229520642Y-38215857D01*
X229520642Y-38311095D01*
X229473023Y-38453952D01*
X228901595Y-39025380D01*
X229520642Y-39025380D01*
X230139690Y-38025380D02*
X230234928Y-38025380D01*
X230330166Y-38073000D01*
X230377785Y-38120619D01*
X230425404Y-38215857D01*
X230473023Y-38406333D01*
X230473023Y-38644428D01*
X230425404Y-38834904D01*
X230377785Y-38930142D01*
X230330166Y-38977761D01*
X230234928Y-39025380D01*
X230139690Y-39025380D01*
X230044452Y-38977761D01*
X229996833Y-38930142D01*
X229949214Y-38834904D01*
X229901595Y-38644428D01*
X229901595Y-38406333D01*
X229949214Y-38215857D01*
X229996833Y-38120619D01*
X230044452Y-38073000D01*
X230139690Y-38025380D01*
G04 #@! TO.C,SW21*
X49561976Y-58031761D02*
X49704833Y-58079380D01*
X49942928Y-58079380D01*
X50038166Y-58031761D01*
X50085785Y-57984142D01*
X50133404Y-57888904D01*
X50133404Y-57793666D01*
X50085785Y-57698428D01*
X50038166Y-57650809D01*
X49942928Y-57603190D01*
X49752452Y-57555571D01*
X49657214Y-57507952D01*
X49609595Y-57460333D01*
X49561976Y-57365095D01*
X49561976Y-57269857D01*
X49609595Y-57174619D01*
X49657214Y-57127000D01*
X49752452Y-57079380D01*
X49990547Y-57079380D01*
X50133404Y-57127000D01*
X50466738Y-57079380D02*
X50704833Y-58079380D01*
X50895309Y-57365095D01*
X51085785Y-58079380D01*
X51323880Y-57079380D01*
X51657214Y-57174619D02*
X51704833Y-57127000D01*
X51800071Y-57079380D01*
X52038166Y-57079380D01*
X52133404Y-57127000D01*
X52181023Y-57174619D01*
X52228642Y-57269857D01*
X52228642Y-57365095D01*
X52181023Y-57507952D01*
X51609595Y-58079380D01*
X52228642Y-58079380D01*
X53181023Y-58079380D02*
X52609595Y-58079380D01*
X52895309Y-58079380D02*
X52895309Y-57079380D01*
X52800071Y-57222238D01*
X52704833Y-57317476D01*
X52609595Y-57365095D01*
G04 #@! TO.C,SW22*
X69797309Y-58031761D02*
X69940166Y-58079380D01*
X70178261Y-58079380D01*
X70273499Y-58031761D01*
X70321118Y-57984142D01*
X70368737Y-57888904D01*
X70368737Y-57793666D01*
X70321118Y-57698428D01*
X70273499Y-57650809D01*
X70178261Y-57603190D01*
X69987785Y-57555571D01*
X69892547Y-57507952D01*
X69844928Y-57460333D01*
X69797309Y-57365095D01*
X69797309Y-57269857D01*
X69844928Y-57174619D01*
X69892547Y-57127000D01*
X69987785Y-57079380D01*
X70225880Y-57079380D01*
X70368737Y-57127000D01*
X70702071Y-57079380D02*
X70940166Y-58079380D01*
X71130642Y-57365095D01*
X71321118Y-58079380D01*
X71559213Y-57079380D01*
X71892547Y-57174619D02*
X71940166Y-57127000D01*
X72035404Y-57079380D01*
X72273499Y-57079380D01*
X72368737Y-57127000D01*
X72416356Y-57174619D01*
X72463975Y-57269857D01*
X72463975Y-57365095D01*
X72416356Y-57507952D01*
X71844928Y-58079380D01*
X72463975Y-58079380D01*
X72844928Y-57174619D02*
X72892547Y-57127000D01*
X72987785Y-57079380D01*
X73225880Y-57079380D01*
X73321118Y-57127000D01*
X73368737Y-57174619D01*
X73416356Y-57269857D01*
X73416356Y-57365095D01*
X73368737Y-57507952D01*
X72797309Y-58079380D01*
X73416356Y-58079380D01*
G04 #@! TO.C,SW23*
X90032642Y-58031761D02*
X90175499Y-58079380D01*
X90413594Y-58079380D01*
X90508832Y-58031761D01*
X90556451Y-57984142D01*
X90604070Y-57888904D01*
X90604070Y-57793666D01*
X90556451Y-57698428D01*
X90508832Y-57650809D01*
X90413594Y-57603190D01*
X90223118Y-57555571D01*
X90127880Y-57507952D01*
X90080261Y-57460333D01*
X90032642Y-57365095D01*
X90032642Y-57269857D01*
X90080261Y-57174619D01*
X90127880Y-57127000D01*
X90223118Y-57079380D01*
X90461213Y-57079380D01*
X90604070Y-57127000D01*
X90937404Y-57079380D02*
X91175499Y-58079380D01*
X91365975Y-57365095D01*
X91556451Y-58079380D01*
X91794546Y-57079380D01*
X92127880Y-57174619D02*
X92175499Y-57127000D01*
X92270737Y-57079380D01*
X92508832Y-57079380D01*
X92604070Y-57127000D01*
X92651689Y-57174619D01*
X92699308Y-57269857D01*
X92699308Y-57365095D01*
X92651689Y-57507952D01*
X92080261Y-58079380D01*
X92699308Y-58079380D01*
X93032642Y-57079380D02*
X93651689Y-57079380D01*
X93318356Y-57460333D01*
X93461213Y-57460333D01*
X93556451Y-57507952D01*
X93604070Y-57555571D01*
X93651689Y-57650809D01*
X93651689Y-57888904D01*
X93604070Y-57984142D01*
X93556451Y-58031761D01*
X93461213Y-58079380D01*
X93175499Y-58079380D01*
X93080261Y-58031761D01*
X93032642Y-57984142D01*
G04 #@! TO.C,SW24*
X110267975Y-58031761D02*
X110410832Y-58079380D01*
X110648927Y-58079380D01*
X110744165Y-58031761D01*
X110791784Y-57984142D01*
X110839403Y-57888904D01*
X110839403Y-57793666D01*
X110791784Y-57698428D01*
X110744165Y-57650809D01*
X110648927Y-57603190D01*
X110458451Y-57555571D01*
X110363213Y-57507952D01*
X110315594Y-57460333D01*
X110267975Y-57365095D01*
X110267975Y-57269857D01*
X110315594Y-57174619D01*
X110363213Y-57127000D01*
X110458451Y-57079380D01*
X110696546Y-57079380D01*
X110839403Y-57127000D01*
X111172737Y-57079380D02*
X111410832Y-58079380D01*
X111601308Y-57365095D01*
X111791784Y-58079380D01*
X112029879Y-57079380D01*
X112363213Y-57174619D02*
X112410832Y-57127000D01*
X112506070Y-57079380D01*
X112744165Y-57079380D01*
X112839403Y-57127000D01*
X112887022Y-57174619D01*
X112934641Y-57269857D01*
X112934641Y-57365095D01*
X112887022Y-57507952D01*
X112315594Y-58079380D01*
X112934641Y-58079380D01*
X113791784Y-57412714D02*
X113791784Y-58079380D01*
X113553689Y-57031761D02*
X113315594Y-57746047D01*
X113934641Y-57746047D01*
G04 #@! TO.C,SW25*
X130503308Y-58031761D02*
X130646165Y-58079380D01*
X130884260Y-58079380D01*
X130979498Y-58031761D01*
X131027117Y-57984142D01*
X131074736Y-57888904D01*
X131074736Y-57793666D01*
X131027117Y-57698428D01*
X130979498Y-57650809D01*
X130884260Y-57603190D01*
X130693784Y-57555571D01*
X130598546Y-57507952D01*
X130550927Y-57460333D01*
X130503308Y-57365095D01*
X130503308Y-57269857D01*
X130550927Y-57174619D01*
X130598546Y-57127000D01*
X130693784Y-57079380D01*
X130931879Y-57079380D01*
X131074736Y-57127000D01*
X131408070Y-57079380D02*
X131646165Y-58079380D01*
X131836641Y-57365095D01*
X132027117Y-58079380D01*
X132265212Y-57079380D01*
X132598546Y-57174619D02*
X132646165Y-57127000D01*
X132741403Y-57079380D01*
X132979498Y-57079380D01*
X133074736Y-57127000D01*
X133122355Y-57174619D01*
X133169974Y-57269857D01*
X133169974Y-57365095D01*
X133122355Y-57507952D01*
X132550927Y-58079380D01*
X133169974Y-58079380D01*
X134074736Y-57079380D02*
X133598546Y-57079380D01*
X133550927Y-57555571D01*
X133598546Y-57507952D01*
X133693784Y-57460333D01*
X133931879Y-57460333D01*
X134027117Y-57507952D01*
X134074736Y-57555571D01*
X134122355Y-57650809D01*
X134122355Y-57888904D01*
X134074736Y-57984142D01*
X134027117Y-58031761D01*
X133931879Y-58079380D01*
X133693784Y-58079380D01*
X133598546Y-58031761D01*
X133550927Y-57984142D01*
G04 #@! TO.C,SW26*
X150738641Y-58031761D02*
X150881498Y-58079380D01*
X151119593Y-58079380D01*
X151214831Y-58031761D01*
X151262450Y-57984142D01*
X151310069Y-57888904D01*
X151310069Y-57793666D01*
X151262450Y-57698428D01*
X151214831Y-57650809D01*
X151119593Y-57603190D01*
X150929117Y-57555571D01*
X150833879Y-57507952D01*
X150786260Y-57460333D01*
X150738641Y-57365095D01*
X150738641Y-57269857D01*
X150786260Y-57174619D01*
X150833879Y-57127000D01*
X150929117Y-57079380D01*
X151167212Y-57079380D01*
X151310069Y-57127000D01*
X151643403Y-57079380D02*
X151881498Y-58079380D01*
X152071974Y-57365095D01*
X152262450Y-58079380D01*
X152500545Y-57079380D01*
X152833879Y-57174619D02*
X152881498Y-57127000D01*
X152976736Y-57079380D01*
X153214831Y-57079380D01*
X153310069Y-57127000D01*
X153357688Y-57174619D01*
X153405307Y-57269857D01*
X153405307Y-57365095D01*
X153357688Y-57507952D01*
X152786260Y-58079380D01*
X153405307Y-58079380D01*
X154262450Y-57079380D02*
X154071974Y-57079380D01*
X153976736Y-57127000D01*
X153929117Y-57174619D01*
X153833879Y-57317476D01*
X153786260Y-57507952D01*
X153786260Y-57888904D01*
X153833879Y-57984142D01*
X153881498Y-58031761D01*
X153976736Y-58079380D01*
X154167212Y-58079380D01*
X154262450Y-58031761D01*
X154310069Y-57984142D01*
X154357688Y-57888904D01*
X154357688Y-57650809D01*
X154310069Y-57555571D01*
X154262450Y-57507952D01*
X154167212Y-57460333D01*
X153976736Y-57460333D01*
X153881498Y-57507952D01*
X153833879Y-57555571D01*
X153786260Y-57650809D01*
G04 #@! TO.C,SW27*
X170973974Y-58031761D02*
X171116831Y-58079380D01*
X171354926Y-58079380D01*
X171450164Y-58031761D01*
X171497783Y-57984142D01*
X171545402Y-57888904D01*
X171545402Y-57793666D01*
X171497783Y-57698428D01*
X171450164Y-57650809D01*
X171354926Y-57603190D01*
X171164450Y-57555571D01*
X171069212Y-57507952D01*
X171021593Y-57460333D01*
X170973974Y-57365095D01*
X170973974Y-57269857D01*
X171021593Y-57174619D01*
X171069212Y-57127000D01*
X171164450Y-57079380D01*
X171402545Y-57079380D01*
X171545402Y-57127000D01*
X171878736Y-57079380D02*
X172116831Y-58079380D01*
X172307307Y-57365095D01*
X172497783Y-58079380D01*
X172735878Y-57079380D01*
X173069212Y-57174619D02*
X173116831Y-57127000D01*
X173212069Y-57079380D01*
X173450164Y-57079380D01*
X173545402Y-57127000D01*
X173593021Y-57174619D01*
X173640640Y-57269857D01*
X173640640Y-57365095D01*
X173593021Y-57507952D01*
X173021593Y-58079380D01*
X173640640Y-58079380D01*
X173973974Y-57079380D02*
X174640640Y-57079380D01*
X174212069Y-58079380D01*
G04 #@! TO.C,SW28*
X191209307Y-58031761D02*
X191352164Y-58079380D01*
X191590259Y-58079380D01*
X191685497Y-58031761D01*
X191733116Y-57984142D01*
X191780735Y-57888904D01*
X191780735Y-57793666D01*
X191733116Y-57698428D01*
X191685497Y-57650809D01*
X191590259Y-57603190D01*
X191399783Y-57555571D01*
X191304545Y-57507952D01*
X191256926Y-57460333D01*
X191209307Y-57365095D01*
X191209307Y-57269857D01*
X191256926Y-57174619D01*
X191304545Y-57127000D01*
X191399783Y-57079380D01*
X191637878Y-57079380D01*
X191780735Y-57127000D01*
X192114069Y-57079380D02*
X192352164Y-58079380D01*
X192542640Y-57365095D01*
X192733116Y-58079380D01*
X192971211Y-57079380D01*
X193304545Y-57174619D02*
X193352164Y-57127000D01*
X193447402Y-57079380D01*
X193685497Y-57079380D01*
X193780735Y-57127000D01*
X193828354Y-57174619D01*
X193875973Y-57269857D01*
X193875973Y-57365095D01*
X193828354Y-57507952D01*
X193256926Y-58079380D01*
X193875973Y-58079380D01*
X194447402Y-57507952D02*
X194352164Y-57460333D01*
X194304545Y-57412714D01*
X194256926Y-57317476D01*
X194256926Y-57269857D01*
X194304545Y-57174619D01*
X194352164Y-57127000D01*
X194447402Y-57079380D01*
X194637878Y-57079380D01*
X194733116Y-57127000D01*
X194780735Y-57174619D01*
X194828354Y-57269857D01*
X194828354Y-57317476D01*
X194780735Y-57412714D01*
X194733116Y-57460333D01*
X194637878Y-57507952D01*
X194447402Y-57507952D01*
X194352164Y-57555571D01*
X194304545Y-57603190D01*
X194256926Y-57698428D01*
X194256926Y-57888904D01*
X194304545Y-57984142D01*
X194352164Y-58031761D01*
X194447402Y-58079380D01*
X194637878Y-58079380D01*
X194733116Y-58031761D01*
X194780735Y-57984142D01*
X194828354Y-57888904D01*
X194828354Y-57698428D01*
X194780735Y-57603190D01*
X194733116Y-57555571D01*
X194637878Y-57507952D01*
G04 #@! TO.C,SW29*
X211444640Y-58031761D02*
X211587497Y-58079380D01*
X211825592Y-58079380D01*
X211920830Y-58031761D01*
X211968449Y-57984142D01*
X212016068Y-57888904D01*
X212016068Y-57793666D01*
X211968449Y-57698428D01*
X211920830Y-57650809D01*
X211825592Y-57603190D01*
X211635116Y-57555571D01*
X211539878Y-57507952D01*
X211492259Y-57460333D01*
X211444640Y-57365095D01*
X211444640Y-57269857D01*
X211492259Y-57174619D01*
X211539878Y-57127000D01*
X211635116Y-57079380D01*
X211873211Y-57079380D01*
X212016068Y-57127000D01*
X212349402Y-57079380D02*
X212587497Y-58079380D01*
X212777973Y-57365095D01*
X212968449Y-58079380D01*
X213206544Y-57079380D01*
X213539878Y-57174619D02*
X213587497Y-57127000D01*
X213682735Y-57079380D01*
X213920830Y-57079380D01*
X214016068Y-57127000D01*
X214063687Y-57174619D01*
X214111306Y-57269857D01*
X214111306Y-57365095D01*
X214063687Y-57507952D01*
X213492259Y-58079380D01*
X214111306Y-58079380D01*
X214587497Y-58079380D02*
X214777973Y-58079380D01*
X214873211Y-58031761D01*
X214920830Y-57984142D01*
X215016068Y-57841285D01*
X215063687Y-57650809D01*
X215063687Y-57269857D01*
X215016068Y-57174619D01*
X214968449Y-57127000D01*
X214873211Y-57079380D01*
X214682735Y-57079380D01*
X214587497Y-57127000D01*
X214539878Y-57174619D01*
X214492259Y-57269857D01*
X214492259Y-57507952D01*
X214539878Y-57603190D01*
X214587497Y-57650809D01*
X214682735Y-57698428D01*
X214873211Y-57698428D01*
X214968449Y-57650809D01*
X215016068Y-57603190D01*
X215063687Y-57507952D01*
G04 #@! TO.C,SW30*
X231679976Y-58031761D02*
X231822833Y-58079380D01*
X232060928Y-58079380D01*
X232156166Y-58031761D01*
X232203785Y-57984142D01*
X232251404Y-57888904D01*
X232251404Y-57793666D01*
X232203785Y-57698428D01*
X232156166Y-57650809D01*
X232060928Y-57603190D01*
X231870452Y-57555571D01*
X231775214Y-57507952D01*
X231727595Y-57460333D01*
X231679976Y-57365095D01*
X231679976Y-57269857D01*
X231727595Y-57174619D01*
X231775214Y-57127000D01*
X231870452Y-57079380D01*
X232108547Y-57079380D01*
X232251404Y-57127000D01*
X232584738Y-57079380D02*
X232822833Y-58079380D01*
X233013309Y-57365095D01*
X233203785Y-58079380D01*
X233441880Y-57079380D01*
X233727595Y-57079380D02*
X234346642Y-57079380D01*
X234013309Y-57460333D01*
X234156166Y-57460333D01*
X234251404Y-57507952D01*
X234299023Y-57555571D01*
X234346642Y-57650809D01*
X234346642Y-57888904D01*
X234299023Y-57984142D01*
X234251404Y-58031761D01*
X234156166Y-58079380D01*
X233870452Y-58079380D01*
X233775214Y-58031761D01*
X233727595Y-57984142D01*
X234965690Y-57079380D02*
X235060928Y-57079380D01*
X235156166Y-57127000D01*
X235203785Y-57174619D01*
X235251404Y-57269857D01*
X235299023Y-57460333D01*
X235299023Y-57698428D01*
X235251404Y-57888904D01*
X235203785Y-57984142D01*
X235156166Y-58031761D01*
X235060928Y-58079380D01*
X234965690Y-58079380D01*
X234870452Y-58031761D01*
X234822833Y-57984142D01*
X234775214Y-57888904D01*
X234727595Y-57698428D01*
X234727595Y-57460333D01*
X234775214Y-57269857D01*
X234822833Y-57174619D01*
X234870452Y-57127000D01*
X234965690Y-57079380D01*
G04 #@! TO.C,SW31*
X42662476Y-77085761D02*
X42805333Y-77133380D01*
X43043428Y-77133380D01*
X43138666Y-77085761D01*
X43186285Y-77038142D01*
X43233904Y-76942904D01*
X43233904Y-76847666D01*
X43186285Y-76752428D01*
X43138666Y-76704809D01*
X43043428Y-76657190D01*
X42852952Y-76609571D01*
X42757714Y-76561952D01*
X42710095Y-76514333D01*
X42662476Y-76419095D01*
X42662476Y-76323857D01*
X42710095Y-76228619D01*
X42757714Y-76181000D01*
X42852952Y-76133380D01*
X43091047Y-76133380D01*
X43233904Y-76181000D01*
X43567238Y-76133380D02*
X43805333Y-77133380D01*
X43995809Y-76419095D01*
X44186285Y-77133380D01*
X44424380Y-76133380D01*
X44710095Y-76133380D02*
X45329142Y-76133380D01*
X44995809Y-76514333D01*
X45138666Y-76514333D01*
X45233904Y-76561952D01*
X45281523Y-76609571D01*
X45329142Y-76704809D01*
X45329142Y-76942904D01*
X45281523Y-77038142D01*
X45233904Y-77085761D01*
X45138666Y-77133380D01*
X44852952Y-77133380D01*
X44757714Y-77085761D01*
X44710095Y-77038142D01*
X46281523Y-77133380D02*
X45710095Y-77133380D01*
X45995809Y-77133380D02*
X45995809Y-76133380D01*
X45900571Y-76276238D01*
X45805333Y-76371476D01*
X45710095Y-76419095D01*
G04 #@! TO.C,SW32*
X204582028Y-77085761D02*
X204724885Y-77133380D01*
X204962980Y-77133380D01*
X205058218Y-77085761D01*
X205105837Y-77038142D01*
X205153456Y-76942904D01*
X205153456Y-76847666D01*
X205105837Y-76752428D01*
X205058218Y-76704809D01*
X204962980Y-76657190D01*
X204772504Y-76609571D01*
X204677266Y-76561952D01*
X204629647Y-76514333D01*
X204582028Y-76419095D01*
X204582028Y-76323857D01*
X204629647Y-76228619D01*
X204677266Y-76181000D01*
X204772504Y-76133380D01*
X205010599Y-76133380D01*
X205153456Y-76181000D01*
X205486790Y-76133380D02*
X205724885Y-77133380D01*
X205915361Y-76419095D01*
X206105837Y-77133380D01*
X206343932Y-76133380D01*
X206629647Y-76133380D02*
X207248694Y-76133380D01*
X206915361Y-76514333D01*
X207058218Y-76514333D01*
X207153456Y-76561952D01*
X207201075Y-76609571D01*
X207248694Y-76704809D01*
X207248694Y-76942904D01*
X207201075Y-77038142D01*
X207153456Y-77085761D01*
X207058218Y-77133380D01*
X206772504Y-77133380D01*
X206677266Y-77085761D01*
X206629647Y-77038142D01*
X207629647Y-76228619D02*
X207677266Y-76181000D01*
X207772504Y-76133380D01*
X208010599Y-76133380D01*
X208105837Y-76181000D01*
X208153456Y-76228619D01*
X208201075Y-76323857D01*
X208201075Y-76419095D01*
X208153456Y-76561952D01*
X207582028Y-77133380D01*
X208201075Y-77133380D01*
G04 #@! TO.C,SW34*
X83142364Y-77085761D02*
X83285221Y-77133380D01*
X83523316Y-77133380D01*
X83618554Y-77085761D01*
X83666173Y-77038142D01*
X83713792Y-76942904D01*
X83713792Y-76847666D01*
X83666173Y-76752428D01*
X83618554Y-76704809D01*
X83523316Y-76657190D01*
X83332840Y-76609571D01*
X83237602Y-76561952D01*
X83189983Y-76514333D01*
X83142364Y-76419095D01*
X83142364Y-76323857D01*
X83189983Y-76228619D01*
X83237602Y-76181000D01*
X83332840Y-76133380D01*
X83570935Y-76133380D01*
X83713792Y-76181000D01*
X84047126Y-76133380D02*
X84285221Y-77133380D01*
X84475697Y-76419095D01*
X84666173Y-77133380D01*
X84904268Y-76133380D01*
X85189983Y-76133380D02*
X85809030Y-76133380D01*
X85475697Y-76514333D01*
X85618554Y-76514333D01*
X85713792Y-76561952D01*
X85761411Y-76609571D01*
X85809030Y-76704809D01*
X85809030Y-76942904D01*
X85761411Y-77038142D01*
X85713792Y-77085761D01*
X85618554Y-77133380D01*
X85332840Y-77133380D01*
X85237602Y-77085761D01*
X85189983Y-77038142D01*
X86666173Y-76466714D02*
X86666173Y-77133380D01*
X86428078Y-76085761D02*
X86189983Y-76800047D01*
X86809030Y-76800047D01*
G04 #@! TO.C,SW35*
X103382308Y-77085761D02*
X103525165Y-77133380D01*
X103763260Y-77133380D01*
X103858498Y-77085761D01*
X103906117Y-77038142D01*
X103953736Y-76942904D01*
X103953736Y-76847666D01*
X103906117Y-76752428D01*
X103858498Y-76704809D01*
X103763260Y-76657190D01*
X103572784Y-76609571D01*
X103477546Y-76561952D01*
X103429927Y-76514333D01*
X103382308Y-76419095D01*
X103382308Y-76323857D01*
X103429927Y-76228619D01*
X103477546Y-76181000D01*
X103572784Y-76133380D01*
X103810879Y-76133380D01*
X103953736Y-76181000D01*
X104287070Y-76133380D02*
X104525165Y-77133380D01*
X104715641Y-76419095D01*
X104906117Y-77133380D01*
X105144212Y-76133380D01*
X105429927Y-76133380D02*
X106048974Y-76133380D01*
X105715641Y-76514333D01*
X105858498Y-76514333D01*
X105953736Y-76561952D01*
X106001355Y-76609571D01*
X106048974Y-76704809D01*
X106048974Y-76942904D01*
X106001355Y-77038142D01*
X105953736Y-77085761D01*
X105858498Y-77133380D01*
X105572784Y-77133380D01*
X105477546Y-77085761D01*
X105429927Y-77038142D01*
X106953736Y-76133380D02*
X106477546Y-76133380D01*
X106429927Y-76609571D01*
X106477546Y-76561952D01*
X106572784Y-76514333D01*
X106810879Y-76514333D01*
X106906117Y-76561952D01*
X106953736Y-76609571D01*
X107001355Y-76704809D01*
X107001355Y-76942904D01*
X106953736Y-77038142D01*
X106906117Y-77085761D01*
X106810879Y-77133380D01*
X106572784Y-77133380D01*
X106477546Y-77085761D01*
X106429927Y-77038142D01*
G04 #@! TO.C,SW36*
X123622252Y-77085761D02*
X123765109Y-77133380D01*
X124003204Y-77133380D01*
X124098442Y-77085761D01*
X124146061Y-77038142D01*
X124193680Y-76942904D01*
X124193680Y-76847666D01*
X124146061Y-76752428D01*
X124098442Y-76704809D01*
X124003204Y-76657190D01*
X123812728Y-76609571D01*
X123717490Y-76561952D01*
X123669871Y-76514333D01*
X123622252Y-76419095D01*
X123622252Y-76323857D01*
X123669871Y-76228619D01*
X123717490Y-76181000D01*
X123812728Y-76133380D01*
X124050823Y-76133380D01*
X124193680Y-76181000D01*
X124527014Y-76133380D02*
X124765109Y-77133380D01*
X124955585Y-76419095D01*
X125146061Y-77133380D01*
X125384156Y-76133380D01*
X125669871Y-76133380D02*
X126288918Y-76133380D01*
X125955585Y-76514333D01*
X126098442Y-76514333D01*
X126193680Y-76561952D01*
X126241299Y-76609571D01*
X126288918Y-76704809D01*
X126288918Y-76942904D01*
X126241299Y-77038142D01*
X126193680Y-77085761D01*
X126098442Y-77133380D01*
X125812728Y-77133380D01*
X125717490Y-77085761D01*
X125669871Y-77038142D01*
X127146061Y-76133380D02*
X126955585Y-76133380D01*
X126860347Y-76181000D01*
X126812728Y-76228619D01*
X126717490Y-76371476D01*
X126669871Y-76561952D01*
X126669871Y-76942904D01*
X126717490Y-77038142D01*
X126765109Y-77085761D01*
X126860347Y-77133380D01*
X127050823Y-77133380D01*
X127146061Y-77085761D01*
X127193680Y-77038142D01*
X127241299Y-76942904D01*
X127241299Y-76704809D01*
X127193680Y-76609571D01*
X127146061Y-76561952D01*
X127050823Y-76514333D01*
X126860347Y-76514333D01*
X126765109Y-76561952D01*
X126717490Y-76609571D01*
X126669871Y-76704809D01*
G04 #@! TO.C,SW37*
X143862196Y-77085761D02*
X144005053Y-77133380D01*
X144243148Y-77133380D01*
X144338386Y-77085761D01*
X144386005Y-77038142D01*
X144433624Y-76942904D01*
X144433624Y-76847666D01*
X144386005Y-76752428D01*
X144338386Y-76704809D01*
X144243148Y-76657190D01*
X144052672Y-76609571D01*
X143957434Y-76561952D01*
X143909815Y-76514333D01*
X143862196Y-76419095D01*
X143862196Y-76323857D01*
X143909815Y-76228619D01*
X143957434Y-76181000D01*
X144052672Y-76133380D01*
X144290767Y-76133380D01*
X144433624Y-76181000D01*
X144766958Y-76133380D02*
X145005053Y-77133380D01*
X145195529Y-76419095D01*
X145386005Y-77133380D01*
X145624100Y-76133380D01*
X145909815Y-76133380D02*
X146528862Y-76133380D01*
X146195529Y-76514333D01*
X146338386Y-76514333D01*
X146433624Y-76561952D01*
X146481243Y-76609571D01*
X146528862Y-76704809D01*
X146528862Y-76942904D01*
X146481243Y-77038142D01*
X146433624Y-77085761D01*
X146338386Y-77133380D01*
X146052672Y-77133380D01*
X145957434Y-77085761D01*
X145909815Y-77038142D01*
X146862196Y-76133380D02*
X147528862Y-76133380D01*
X147100291Y-77133380D01*
G04 #@! TO.C,SW39*
X184342084Y-77085761D02*
X184484941Y-77133380D01*
X184723036Y-77133380D01*
X184818274Y-77085761D01*
X184865893Y-77038142D01*
X184913512Y-76942904D01*
X184913512Y-76847666D01*
X184865893Y-76752428D01*
X184818274Y-76704809D01*
X184723036Y-76657190D01*
X184532560Y-76609571D01*
X184437322Y-76561952D01*
X184389703Y-76514333D01*
X184342084Y-76419095D01*
X184342084Y-76323857D01*
X184389703Y-76228619D01*
X184437322Y-76181000D01*
X184532560Y-76133380D01*
X184770655Y-76133380D01*
X184913512Y-76181000D01*
X185246846Y-76133380D02*
X185484941Y-77133380D01*
X185675417Y-76419095D01*
X185865893Y-77133380D01*
X186103988Y-76133380D01*
X186389703Y-76133380D02*
X187008750Y-76133380D01*
X186675417Y-76514333D01*
X186818274Y-76514333D01*
X186913512Y-76561952D01*
X186961131Y-76609571D01*
X187008750Y-76704809D01*
X187008750Y-76942904D01*
X186961131Y-77038142D01*
X186913512Y-77085761D01*
X186818274Y-77133380D01*
X186532560Y-77133380D01*
X186437322Y-77085761D01*
X186389703Y-77038142D01*
X187484941Y-77133380D02*
X187675417Y-77133380D01*
X187770655Y-77085761D01*
X187818274Y-77038142D01*
X187913512Y-76895285D01*
X187961131Y-76704809D01*
X187961131Y-76323857D01*
X187913512Y-76228619D01*
X187865893Y-76181000D01*
X187770655Y-76133380D01*
X187580179Y-76133380D01*
X187484941Y-76181000D01*
X187437322Y-76228619D01*
X187389703Y-76323857D01*
X187389703Y-76561952D01*
X187437322Y-76657190D01*
X187484941Y-76704809D01*
X187580179Y-76752428D01*
X187770655Y-76752428D01*
X187865893Y-76704809D01*
X187913512Y-76657190D01*
X187961131Y-76561952D01*
G04 #@! TO.C,SW40*
X224821976Y-77085761D02*
X224964833Y-77133380D01*
X225202928Y-77133380D01*
X225298166Y-77085761D01*
X225345785Y-77038142D01*
X225393404Y-76942904D01*
X225393404Y-76847666D01*
X225345785Y-76752428D01*
X225298166Y-76704809D01*
X225202928Y-76657190D01*
X225012452Y-76609571D01*
X224917214Y-76561952D01*
X224869595Y-76514333D01*
X224821976Y-76419095D01*
X224821976Y-76323857D01*
X224869595Y-76228619D01*
X224917214Y-76181000D01*
X225012452Y-76133380D01*
X225250547Y-76133380D01*
X225393404Y-76181000D01*
X225726738Y-76133380D02*
X225964833Y-77133380D01*
X226155309Y-76419095D01*
X226345785Y-77133380D01*
X226583880Y-76133380D01*
X227393404Y-76466714D02*
X227393404Y-77133380D01*
X227155309Y-76085761D02*
X226917214Y-76800047D01*
X227536261Y-76800047D01*
X228107690Y-76133380D02*
X228202928Y-76133380D01*
X228298166Y-76181000D01*
X228345785Y-76228619D01*
X228393404Y-76323857D01*
X228441023Y-76514333D01*
X228441023Y-76752428D01*
X228393404Y-76942904D01*
X228345785Y-77038142D01*
X228298166Y-77085761D01*
X228202928Y-77133380D01*
X228107690Y-77133380D01*
X228012452Y-77085761D01*
X227964833Y-77038142D01*
X227917214Y-76942904D01*
X227869595Y-76752428D01*
X227869595Y-76514333D01*
X227917214Y-76323857D01*
X227964833Y-76228619D01*
X228012452Y-76181000D01*
X228107690Y-76133380D01*
G04 #@! TO.C,SW42*
X285781976Y-19835761D02*
X285924833Y-19883380D01*
X286162928Y-19883380D01*
X286258166Y-19835761D01*
X286305785Y-19788142D01*
X286353404Y-19692904D01*
X286353404Y-19597666D01*
X286305785Y-19502428D01*
X286258166Y-19454809D01*
X286162928Y-19407190D01*
X285972452Y-19359571D01*
X285877214Y-19311952D01*
X285829595Y-19264333D01*
X285781976Y-19169095D01*
X285781976Y-19073857D01*
X285829595Y-18978619D01*
X285877214Y-18931000D01*
X285972452Y-18883380D01*
X286210547Y-18883380D01*
X286353404Y-18931000D01*
X286686738Y-18883380D02*
X286924833Y-19883380D01*
X287115309Y-19169095D01*
X287305785Y-19883380D01*
X287543880Y-18883380D01*
X288353404Y-19216714D02*
X288353404Y-19883380D01*
X288115309Y-18835761D02*
X287877214Y-19550047D01*
X288496261Y-19550047D01*
X288829595Y-18978619D02*
X288877214Y-18931000D01*
X288972452Y-18883380D01*
X289210547Y-18883380D01*
X289305785Y-18931000D01*
X289353404Y-18978619D01*
X289401023Y-19073857D01*
X289401023Y-19169095D01*
X289353404Y-19311952D01*
X288781976Y-19883380D01*
X289401023Y-19883380D01*
G04 #@! TO.C,SW43*
X304831976Y-19835761D02*
X304974833Y-19883380D01*
X305212928Y-19883380D01*
X305308166Y-19835761D01*
X305355785Y-19788142D01*
X305403404Y-19692904D01*
X305403404Y-19597666D01*
X305355785Y-19502428D01*
X305308166Y-19454809D01*
X305212928Y-19407190D01*
X305022452Y-19359571D01*
X304927214Y-19311952D01*
X304879595Y-19264333D01*
X304831976Y-19169095D01*
X304831976Y-19073857D01*
X304879595Y-18978619D01*
X304927214Y-18931000D01*
X305022452Y-18883380D01*
X305260547Y-18883380D01*
X305403404Y-18931000D01*
X305736738Y-18883380D02*
X305974833Y-19883380D01*
X306165309Y-19169095D01*
X306355785Y-19883380D01*
X306593880Y-18883380D01*
X307403404Y-19216714D02*
X307403404Y-19883380D01*
X307165309Y-18835761D02*
X306927214Y-19550047D01*
X307546261Y-19550047D01*
X307831976Y-18883380D02*
X308451023Y-18883380D01*
X308117690Y-19264333D01*
X308260547Y-19264333D01*
X308355785Y-19311952D01*
X308403404Y-19359571D01*
X308451023Y-19454809D01*
X308451023Y-19692904D01*
X308403404Y-19788142D01*
X308355785Y-19835761D01*
X308260547Y-19883380D01*
X307974833Y-19883380D01*
X307879595Y-19835761D01*
X307831976Y-19788142D01*
G04 #@! TO.C,SW44*
X266731976Y-38885761D02*
X266874833Y-38933380D01*
X267112928Y-38933380D01*
X267208166Y-38885761D01*
X267255785Y-38838142D01*
X267303404Y-38742904D01*
X267303404Y-38647666D01*
X267255785Y-38552428D01*
X267208166Y-38504809D01*
X267112928Y-38457190D01*
X266922452Y-38409571D01*
X266827214Y-38361952D01*
X266779595Y-38314333D01*
X266731976Y-38219095D01*
X266731976Y-38123857D01*
X266779595Y-38028619D01*
X266827214Y-37981000D01*
X266922452Y-37933380D01*
X267160547Y-37933380D01*
X267303404Y-37981000D01*
X267636738Y-37933380D02*
X267874833Y-38933380D01*
X268065309Y-38219095D01*
X268255785Y-38933380D01*
X268493880Y-37933380D01*
X269303404Y-38266714D02*
X269303404Y-38933380D01*
X269065309Y-37885761D02*
X268827214Y-38600047D01*
X269446261Y-38600047D01*
X270255785Y-38266714D02*
X270255785Y-38933380D01*
X270017690Y-37885761D02*
X269779595Y-38600047D01*
X270398642Y-38600047D01*
G04 #@! TO.C,SW45*
X285781976Y-38885761D02*
X285924833Y-38933380D01*
X286162928Y-38933380D01*
X286258166Y-38885761D01*
X286305785Y-38838142D01*
X286353404Y-38742904D01*
X286353404Y-38647666D01*
X286305785Y-38552428D01*
X286258166Y-38504809D01*
X286162928Y-38457190D01*
X285972452Y-38409571D01*
X285877214Y-38361952D01*
X285829595Y-38314333D01*
X285781976Y-38219095D01*
X285781976Y-38123857D01*
X285829595Y-38028619D01*
X285877214Y-37981000D01*
X285972452Y-37933380D01*
X286210547Y-37933380D01*
X286353404Y-37981000D01*
X286686738Y-37933380D02*
X286924833Y-38933380D01*
X287115309Y-38219095D01*
X287305785Y-38933380D01*
X287543880Y-37933380D01*
X288353404Y-38266714D02*
X288353404Y-38933380D01*
X288115309Y-37885761D02*
X287877214Y-38600047D01*
X288496261Y-38600047D01*
X289353404Y-37933380D02*
X288877214Y-37933380D01*
X288829595Y-38409571D01*
X288877214Y-38361952D01*
X288972452Y-38314333D01*
X289210547Y-38314333D01*
X289305785Y-38361952D01*
X289353404Y-38409571D01*
X289401023Y-38504809D01*
X289401023Y-38742904D01*
X289353404Y-38838142D01*
X289305785Y-38885761D01*
X289210547Y-38933380D01*
X288972452Y-38933380D01*
X288877214Y-38885761D01*
X288829595Y-38838142D01*
G04 #@! TO.C,SW46*
X304831976Y-38885761D02*
X304974833Y-38933380D01*
X305212928Y-38933380D01*
X305308166Y-38885761D01*
X305355785Y-38838142D01*
X305403404Y-38742904D01*
X305403404Y-38647666D01*
X305355785Y-38552428D01*
X305308166Y-38504809D01*
X305212928Y-38457190D01*
X305022452Y-38409571D01*
X304927214Y-38361952D01*
X304879595Y-38314333D01*
X304831976Y-38219095D01*
X304831976Y-38123857D01*
X304879595Y-38028619D01*
X304927214Y-37981000D01*
X305022452Y-37933380D01*
X305260547Y-37933380D01*
X305403404Y-37981000D01*
X305736738Y-37933380D02*
X305974833Y-38933380D01*
X306165309Y-38219095D01*
X306355785Y-38933380D01*
X306593880Y-37933380D01*
X307403404Y-38266714D02*
X307403404Y-38933380D01*
X307165309Y-37885761D02*
X306927214Y-38600047D01*
X307546261Y-38600047D01*
X308355785Y-37933380D02*
X308165309Y-37933380D01*
X308070071Y-37981000D01*
X308022452Y-38028619D01*
X307927214Y-38171476D01*
X307879595Y-38361952D01*
X307879595Y-38742904D01*
X307927214Y-38838142D01*
X307974833Y-38885761D01*
X308070071Y-38933380D01*
X308260547Y-38933380D01*
X308355785Y-38885761D01*
X308403404Y-38838142D01*
X308451023Y-38742904D01*
X308451023Y-38504809D01*
X308403404Y-38409571D01*
X308355785Y-38361952D01*
X308260547Y-38314333D01*
X308070071Y-38314333D01*
X307974833Y-38361952D01*
X307927214Y-38409571D01*
X307879595Y-38504809D01*
G04 #@! TO.C,SW47*
X266731976Y-57935761D02*
X266874833Y-57983380D01*
X267112928Y-57983380D01*
X267208166Y-57935761D01*
X267255785Y-57888142D01*
X267303404Y-57792904D01*
X267303404Y-57697666D01*
X267255785Y-57602428D01*
X267208166Y-57554809D01*
X267112928Y-57507190D01*
X266922452Y-57459571D01*
X266827214Y-57411952D01*
X266779595Y-57364333D01*
X266731976Y-57269095D01*
X266731976Y-57173857D01*
X266779595Y-57078619D01*
X266827214Y-57031000D01*
X266922452Y-56983380D01*
X267160547Y-56983380D01*
X267303404Y-57031000D01*
X267636738Y-56983380D02*
X267874833Y-57983380D01*
X268065309Y-57269095D01*
X268255785Y-57983380D01*
X268493880Y-56983380D01*
X269303404Y-57316714D02*
X269303404Y-57983380D01*
X269065309Y-56935761D02*
X268827214Y-57650047D01*
X269446261Y-57650047D01*
X269731976Y-56983380D02*
X270398642Y-56983380D01*
X269970071Y-57983380D01*
G04 #@! TO.C,SW48*
X285781976Y-57935761D02*
X285924833Y-57983380D01*
X286162928Y-57983380D01*
X286258166Y-57935761D01*
X286305785Y-57888142D01*
X286353404Y-57792904D01*
X286353404Y-57697666D01*
X286305785Y-57602428D01*
X286258166Y-57554809D01*
X286162928Y-57507190D01*
X285972452Y-57459571D01*
X285877214Y-57411952D01*
X285829595Y-57364333D01*
X285781976Y-57269095D01*
X285781976Y-57173857D01*
X285829595Y-57078619D01*
X285877214Y-57031000D01*
X285972452Y-56983380D01*
X286210547Y-56983380D01*
X286353404Y-57031000D01*
X286686738Y-56983380D02*
X286924833Y-57983380D01*
X287115309Y-57269095D01*
X287305785Y-57983380D01*
X287543880Y-56983380D01*
X288353404Y-57316714D02*
X288353404Y-57983380D01*
X288115309Y-56935761D02*
X287877214Y-57650047D01*
X288496261Y-57650047D01*
X289020071Y-57411952D02*
X288924833Y-57364333D01*
X288877214Y-57316714D01*
X288829595Y-57221476D01*
X288829595Y-57173857D01*
X288877214Y-57078619D01*
X288924833Y-57031000D01*
X289020071Y-56983380D01*
X289210547Y-56983380D01*
X289305785Y-57031000D01*
X289353404Y-57078619D01*
X289401023Y-57173857D01*
X289401023Y-57221476D01*
X289353404Y-57316714D01*
X289305785Y-57364333D01*
X289210547Y-57411952D01*
X289020071Y-57411952D01*
X288924833Y-57459571D01*
X288877214Y-57507190D01*
X288829595Y-57602428D01*
X288829595Y-57792904D01*
X288877214Y-57888142D01*
X288924833Y-57935761D01*
X289020071Y-57983380D01*
X289210547Y-57983380D01*
X289305785Y-57935761D01*
X289353404Y-57888142D01*
X289401023Y-57792904D01*
X289401023Y-57602428D01*
X289353404Y-57507190D01*
X289305785Y-57459571D01*
X289210547Y-57411952D01*
G04 #@! TO.C,SW49*
X304831976Y-57935761D02*
X304974833Y-57983380D01*
X305212928Y-57983380D01*
X305308166Y-57935761D01*
X305355785Y-57888142D01*
X305403404Y-57792904D01*
X305403404Y-57697666D01*
X305355785Y-57602428D01*
X305308166Y-57554809D01*
X305212928Y-57507190D01*
X305022452Y-57459571D01*
X304927214Y-57411952D01*
X304879595Y-57364333D01*
X304831976Y-57269095D01*
X304831976Y-57173857D01*
X304879595Y-57078619D01*
X304927214Y-57031000D01*
X305022452Y-56983380D01*
X305260547Y-56983380D01*
X305403404Y-57031000D01*
X305736738Y-56983380D02*
X305974833Y-57983380D01*
X306165309Y-57269095D01*
X306355785Y-57983380D01*
X306593880Y-56983380D01*
X307403404Y-57316714D02*
X307403404Y-57983380D01*
X307165309Y-56935761D02*
X306927214Y-57650047D01*
X307546261Y-57650047D01*
X307974833Y-57983380D02*
X308165309Y-57983380D01*
X308260547Y-57935761D01*
X308308166Y-57888142D01*
X308403404Y-57745285D01*
X308451023Y-57554809D01*
X308451023Y-57173857D01*
X308403404Y-57078619D01*
X308355785Y-57031000D01*
X308260547Y-56983380D01*
X308070071Y-56983380D01*
X307974833Y-57031000D01*
X307927214Y-57078619D01*
X307879595Y-57173857D01*
X307879595Y-57411952D01*
X307927214Y-57507190D01*
X307974833Y-57554809D01*
X308070071Y-57602428D01*
X308260547Y-57602428D01*
X308355785Y-57554809D01*
X308403404Y-57507190D01*
X308451023Y-57411952D01*
G04 #@! TO.C,SW50*
X266731976Y-76985761D02*
X266874833Y-77033380D01*
X267112928Y-77033380D01*
X267208166Y-76985761D01*
X267255785Y-76938142D01*
X267303404Y-76842904D01*
X267303404Y-76747666D01*
X267255785Y-76652428D01*
X267208166Y-76604809D01*
X267112928Y-76557190D01*
X266922452Y-76509571D01*
X266827214Y-76461952D01*
X266779595Y-76414333D01*
X266731976Y-76319095D01*
X266731976Y-76223857D01*
X266779595Y-76128619D01*
X266827214Y-76081000D01*
X266922452Y-76033380D01*
X267160547Y-76033380D01*
X267303404Y-76081000D01*
X267636738Y-76033380D02*
X267874833Y-77033380D01*
X268065309Y-76319095D01*
X268255785Y-77033380D01*
X268493880Y-76033380D01*
X269351023Y-76033380D02*
X268874833Y-76033380D01*
X268827214Y-76509571D01*
X268874833Y-76461952D01*
X268970071Y-76414333D01*
X269208166Y-76414333D01*
X269303404Y-76461952D01*
X269351023Y-76509571D01*
X269398642Y-76604809D01*
X269398642Y-76842904D01*
X269351023Y-76938142D01*
X269303404Y-76985761D01*
X269208166Y-77033380D01*
X268970071Y-77033380D01*
X268874833Y-76985761D01*
X268827214Y-76938142D01*
X270017690Y-76033380D02*
X270112928Y-76033380D01*
X270208166Y-76081000D01*
X270255785Y-76128619D01*
X270303404Y-76223857D01*
X270351023Y-76414333D01*
X270351023Y-76652428D01*
X270303404Y-76842904D01*
X270255785Y-76938142D01*
X270208166Y-76985761D01*
X270112928Y-77033380D01*
X270017690Y-77033380D01*
X269922452Y-76985761D01*
X269874833Y-76938142D01*
X269827214Y-76842904D01*
X269779595Y-76652428D01*
X269779595Y-76414333D01*
X269827214Y-76223857D01*
X269874833Y-76128619D01*
X269922452Y-76081000D01*
X270017690Y-76033380D01*
G04 #@! TO.C,SW51*
X285781976Y-76985761D02*
X285924833Y-77033380D01*
X286162928Y-77033380D01*
X286258166Y-76985761D01*
X286305785Y-76938142D01*
X286353404Y-76842904D01*
X286353404Y-76747666D01*
X286305785Y-76652428D01*
X286258166Y-76604809D01*
X286162928Y-76557190D01*
X285972452Y-76509571D01*
X285877214Y-76461952D01*
X285829595Y-76414333D01*
X285781976Y-76319095D01*
X285781976Y-76223857D01*
X285829595Y-76128619D01*
X285877214Y-76081000D01*
X285972452Y-76033380D01*
X286210547Y-76033380D01*
X286353404Y-76081000D01*
X286686738Y-76033380D02*
X286924833Y-77033380D01*
X287115309Y-76319095D01*
X287305785Y-77033380D01*
X287543880Y-76033380D01*
X288401023Y-76033380D02*
X287924833Y-76033380D01*
X287877214Y-76509571D01*
X287924833Y-76461952D01*
X288020071Y-76414333D01*
X288258166Y-76414333D01*
X288353404Y-76461952D01*
X288401023Y-76509571D01*
X288448642Y-76604809D01*
X288448642Y-76842904D01*
X288401023Y-76938142D01*
X288353404Y-76985761D01*
X288258166Y-77033380D01*
X288020071Y-77033380D01*
X287924833Y-76985761D01*
X287877214Y-76938142D01*
X289401023Y-77033380D02*
X288829595Y-77033380D01*
X289115309Y-77033380D02*
X289115309Y-76033380D01*
X289020071Y-76176238D01*
X288924833Y-76271476D01*
X288829595Y-76319095D01*
G04 #@! TO.C,SW52*
X304831976Y-76985761D02*
X304974833Y-77033380D01*
X305212928Y-77033380D01*
X305308166Y-76985761D01*
X305355785Y-76938142D01*
X305403404Y-76842904D01*
X305403404Y-76747666D01*
X305355785Y-76652428D01*
X305308166Y-76604809D01*
X305212928Y-76557190D01*
X305022452Y-76509571D01*
X304927214Y-76461952D01*
X304879595Y-76414333D01*
X304831976Y-76319095D01*
X304831976Y-76223857D01*
X304879595Y-76128619D01*
X304927214Y-76081000D01*
X305022452Y-76033380D01*
X305260547Y-76033380D01*
X305403404Y-76081000D01*
X305736738Y-76033380D02*
X305974833Y-77033380D01*
X306165309Y-76319095D01*
X306355785Y-77033380D01*
X306593880Y-76033380D01*
X307451023Y-76033380D02*
X306974833Y-76033380D01*
X306927214Y-76509571D01*
X306974833Y-76461952D01*
X307070071Y-76414333D01*
X307308166Y-76414333D01*
X307403404Y-76461952D01*
X307451023Y-76509571D01*
X307498642Y-76604809D01*
X307498642Y-76842904D01*
X307451023Y-76938142D01*
X307403404Y-76985761D01*
X307308166Y-77033380D01*
X307070071Y-77033380D01*
X306974833Y-76985761D01*
X306927214Y-76938142D01*
X307879595Y-76128619D02*
X307927214Y-76081000D01*
X308022452Y-76033380D01*
X308260547Y-76033380D01*
X308355785Y-76081000D01*
X308403404Y-76128619D01*
X308451023Y-76223857D01*
X308451023Y-76319095D01*
X308403404Y-76461952D01*
X307831976Y-77033380D01*
X308451023Y-77033380D01*
G04 #@! TO.C,U1*
X31055880Y-46354904D02*
X31865404Y-46354904D01*
X31960642Y-46307285D01*
X32008261Y-46259666D01*
X32055880Y-46164428D01*
X32055880Y-45973952D01*
X32008261Y-45878714D01*
X31960642Y-45831095D01*
X31865404Y-45783476D01*
X31055880Y-45783476D01*
X32055880Y-44783476D02*
X32055880Y-45354904D01*
X32055880Y-45069190D02*
X31055880Y-45069190D01*
X31198738Y-45164428D01*
X31293976Y-45259666D01*
X31341595Y-45354904D01*
G04 #@! TO.C,D2*
X15581404Y-90583380D02*
X15581404Y-89583380D01*
X15819500Y-89583380D01*
X15962357Y-89631000D01*
X16057595Y-89726238D01*
X16105214Y-89821476D01*
X16152833Y-90011952D01*
X16152833Y-90154809D01*
X16105214Y-90345285D01*
X16057595Y-90440523D01*
X15962357Y-90535761D01*
X15819500Y-90583380D01*
X15581404Y-90583380D01*
X16533785Y-89678619D02*
X16581404Y-89631000D01*
X16676642Y-89583380D01*
X16914738Y-89583380D01*
X17009976Y-89631000D01*
X17057595Y-89678619D01*
X17105214Y-89773857D01*
X17105214Y-89869095D01*
X17057595Y-90011952D01*
X16486166Y-90583380D01*
X17105214Y-90583380D01*
G04 #@! TO.C,R1*
X11775880Y-93511666D02*
X11299690Y-93845000D01*
X11775880Y-94083095D02*
X10775880Y-94083095D01*
X10775880Y-93702142D01*
X10823500Y-93606904D01*
X10871119Y-93559285D01*
X10966357Y-93511666D01*
X11109214Y-93511666D01*
X11204452Y-93559285D01*
X11252071Y-93606904D01*
X11299690Y-93702142D01*
X11299690Y-94083095D01*
X11775880Y-92559285D02*
X11775880Y-93130714D01*
X11775880Y-92845000D02*
X10775880Y-92845000D01*
X10918738Y-92940238D01*
X11013976Y-93035476D01*
X11061595Y-93130714D01*
G04 #@! TD*
M02*
