M48
;DRILL file {KiCad (5.0.1-3-g963ef8bb5)} date Tuesday, 18 August 2020 at 12:47:43
;FORMAT={-:-/ absolute / inch / decimal}
FMAT,2
INCH,TZ
T1C0.0157
T2C0.0315
T3C0.0354
T4C0.0591
%
G90
G05
M72
T1
X0.9525Y-0.725
X1.2325Y-2.995
X2.0638Y-2.895
X2.0725Y-3.315
X2.7606Y-2.795
X3.7375Y-2.975
X3.8125Y-3.355
X5.5825Y-2.6909
X5.6625Y-2.5039
X6.2982Y-2.1993
X6.9325Y-3.005
X7.5225Y-3.005
X9.0978Y-2.6703
X9.1025Y-2.6703
X9.1025Y-2.6703
X9.2925Y-2.1993
X9.3725Y-2.775
X9.9725Y-2.775
X9.9725Y-3.225
T2
X0.2525Y-1.645
X0.2525Y-1.945
X0.3525Y-1.645
X0.3525Y-1.945
X0.4525Y-1.645
X0.4525Y-1.945
X0.5525Y-1.645
X0.5525Y-1.945
X0.6525Y-1.645
X0.6525Y-1.945
X0.7525Y-1.645
X0.7525Y-1.945
X0.8525Y-1.645
X0.8525Y-1.945
X0.9525Y-1.645
X0.9525Y-1.945
X1.0525Y-1.645
X1.0525Y-1.945
X1.1525Y-1.645
X1.1525Y-1.945
X0.6099Y-0.9144
X0.6099Y-1.2144
X1.0202Y-0.9162
X1.0202Y-1.2162
X0.4074Y-0.9169
X0.4074Y-1.2169
X0.3525Y-3.525
X0.3525Y-3.825
X0.8149Y-0.9144
X0.8149Y-1.2144
X0.5025Y-2.295
X0.5025Y-2.395
X0.5025Y-2.495
X0.5025Y-2.595
X0.5025Y-2.695
X0.5025Y-2.795
X0.5025Y-2.895
X0.5025Y-2.995
X0.8025Y-2.295
X0.8025Y-2.395
X0.8025Y-2.495
X0.8025Y-2.595
X0.8025Y-2.695
X0.8025Y-2.795
X0.8025Y-2.895
X0.8025Y-2.995
X0.7099Y-0.9144
X0.7099Y-1.2144
X0.3074Y-0.9169
X0.3074Y-1.2169
X0.9149Y-0.9144
X0.9149Y-1.2144
X0.5074Y-0.9144
X0.5074Y-1.2144
T3
X0.5925Y-3.665
X0.6925Y-3.665
T4
X5.0592Y-2.4788
X5.3092Y-2.3788
X4.0738Y-1.7286
X4.3238Y-1.6286
X9.0425Y-2.4788
X9.2925Y-2.3788
X7.4492Y-2.4788
X7.6992Y-2.3788
X2.9881Y-0.9748
X3.2381Y-0.8748
X7.1788Y-3.2289
X7.4288Y-3.1289
X10.4225Y-2.475
X10.6725Y-2.375
X6.9769Y-0.9748
X7.2269Y-0.8748
X11.1725Y-1.725
X11.4225Y-1.625
X4.2625Y-2.4788
X4.5125Y-2.3788
X2.3977Y-3.2289
X2.6477Y-3.1289
X3.2773Y-1.7286
X3.5273Y-1.6286
X11.9225Y-3.225
X12.1725Y-3.125
X6.6525Y-2.4788
X6.9025Y-2.3788
X5.5851Y-3.2289
X5.8351Y-3.1289
X3.9914Y-3.2289
X4.2414Y-3.1289
X11.9225Y-1.725
X12.1725Y-1.625
X8.8525Y-1.7286
X9.1025Y-1.6286
X6.1792Y-0.9748
X6.4292Y-0.8748
X10.4225Y-1.725
X10.6725Y-1.625
X4.5836Y-0.9748
X4.8336Y-0.8748
X10.4225Y-0.975
X10.6725Y-0.875
X3.4658Y-2.4788
X3.7158Y-2.3788
X2.4809Y-1.7286
X2.7309Y-1.6286
X11.1725Y-3.225
X11.4225Y-3.125
X5.8558Y-2.4788
X6.1058Y-2.3788
X4.7883Y-3.2289
X5.0383Y-3.1289
X6.4631Y-1.7286
X6.7131Y-1.6286
X3.1946Y-3.2289
X3.4446Y-3.1289
X8.056Y-1.7286
X8.306Y-1.6286
X5.3814Y-0.9748
X5.6314Y-0.8748
X11.9225Y-0.975
X12.1725Y-0.875
X2.6692Y-2.4788
X2.9192Y-2.3788
X1.3925Y-0.975
X1.6425Y-0.875
X10.4225Y-3.225
X10.6725Y-3.125
X2.1903Y-0.9748
X2.4403Y-0.8748
X7.2596Y-1.7286
X7.5096Y-1.6286
X5.6667Y-1.7286
X5.9167Y-1.6286
X7.9757Y-3.2289
X8.2257Y-3.1289
X11.1725Y-0.975
X11.4225Y-0.875
X6.382Y-3.2289
X6.632Y-3.1289
X1.8725Y-2.4788
X2.1225Y-2.3788
X11.9225Y-2.475
X12.1725Y-2.375
X8.5725Y-0.975
X8.8225Y-0.875
X4.8702Y-1.7286
X5.1202Y-1.6286
X1.6009Y-3.2289
X1.8509Y-3.1289
X8.2458Y-2.4788
X8.4958Y-2.3788
X3.7858Y-0.9748
X4.0358Y-0.8748
X8.7725Y-3.2289
X9.0225Y-3.1289
X1.6844Y-1.7286
X1.9344Y-1.6286
X11.1725Y-2.475
X11.4225Y-2.375
X7.7747Y-0.9748
X8.0247Y-0.8748
T0
M30
