M48
;DRILL file {KiCad (5.0.1-3-g963ef8bb5)} date Tuesday, 18 August 2020 at 12:47:43
;FORMAT={-:-/ absolute / inch / decimal}
FMAT,2
INCH,TZ
T1C0.0669
T2C0.1575
%
G90
G05
M72
T1
X1.8225Y-2.5788
X2.2225Y-2.5788
X11.8725Y-2.575
X12.2725Y-2.575
X8.5225Y-1.075
X8.9225Y-1.075
X4.8202Y-1.8286
X5.2202Y-1.8286
X1.5509Y-3.3289
X1.9509Y-3.3289
X8.1958Y-2.5788
X8.5958Y-2.5788
X3.7358Y-1.0748
X4.1358Y-1.0748
X8.7225Y-3.3289
X9.1225Y-3.3289
X1.6344Y-1.8286
X2.0344Y-1.8286
X11.1225Y-2.575
X11.5225Y-2.575
X7.7247Y-1.0748
X8.1247Y-1.0748
X5.0092Y-2.5788
X5.4092Y-2.5788
X4.0238Y-1.8286
X4.4238Y-1.8286
X8.9925Y-2.5788
X9.3925Y-2.5788
X7.3992Y-2.5788
X7.7992Y-2.5788
X2.9381Y-1.0748
X3.3381Y-1.0748
X7.1288Y-3.3289
X7.5288Y-3.3289
X10.3725Y-2.575
X10.7725Y-2.575
X6.9269Y-1.0748
X7.3269Y-1.0748
X11.1225Y-1.825
X11.5225Y-1.825
X4.2125Y-2.5788
X4.6125Y-2.5788
X2.3477Y-3.3289
X2.7477Y-3.3289
X3.2273Y-1.8286
X3.6273Y-1.8286
X11.8725Y-3.325
X12.2725Y-3.325
X6.6025Y-2.5788
X7.0025Y-2.5788
X5.5351Y-3.3289
X5.9351Y-3.3289
X3.9414Y-3.3289
X4.3414Y-3.3289
X11.8725Y-1.825
X12.2725Y-1.825
X8.8025Y-1.8286
X9.2025Y-1.8286
X6.1292Y-1.0748
X6.5292Y-1.0748
X10.3725Y-1.825
X10.7725Y-1.825
X4.5336Y-1.0748
X4.9336Y-1.0748
X10.3725Y-1.075
X10.7725Y-1.075
X3.4158Y-2.5788
X3.8158Y-2.5788
X2.4309Y-1.8286
X2.8309Y-1.8286
X11.1225Y-3.325
X11.5225Y-3.325
X5.8058Y-2.5788
X6.2058Y-2.5788
X4.7383Y-3.3289
X5.1383Y-3.3289
X6.4131Y-1.8286
X6.8131Y-1.8286
X3.1446Y-3.3289
X3.5446Y-3.3289
X8.006Y-1.8286
X8.406Y-1.8286
X5.3314Y-1.0748
X5.7314Y-1.0748
X11.8725Y-1.075
X12.2725Y-1.075
X2.6192Y-2.5788
X3.0192Y-2.5788
X1.3425Y-1.075
X1.7425Y-1.075
X10.3725Y-3.325
X10.7725Y-3.325
X2.1403Y-1.0748
X2.5403Y-1.0748
X7.2096Y-1.8286
X7.6096Y-1.8286
X5.6167Y-1.8286
X6.0167Y-1.8286
X7.9257Y-3.3289
X8.3257Y-3.3289
X11.1225Y-1.075
X11.5225Y-1.075
X6.332Y-3.3289
X6.732Y-3.3289
T2
X12.0725Y-3.325
X6.8025Y-2.5788
X5.7351Y-3.3289
X4.1414Y-3.3289
X12.0725Y-1.825
X9.0025Y-1.8286
X6.3292Y-1.0748
X10.5725Y-1.825
X4.7336Y-1.0748
X10.5725Y-1.075
X3.6158Y-2.5788
X2.6309Y-1.8286
X11.3225Y-3.325
X6.0058Y-2.5788
X4.9383Y-3.3289
X6.6131Y-1.8286
X3.3446Y-3.3289
X8.206Y-1.8286
X5.5314Y-1.0748
X12.0725Y-1.075
X2.8192Y-2.5788
X1.5425Y-1.075
X10.5725Y-3.325
X2.3403Y-1.0748
X7.4096Y-1.8286
X5.8167Y-1.8286
X8.1257Y-3.3289
X11.3225Y-1.075
X6.532Y-3.3289
X2.0225Y-2.5788
X12.0725Y-2.575
X8.7225Y-1.075
X5.0202Y-1.8286
X1.7509Y-3.3289
X8.3958Y-2.5788
X3.9358Y-1.0748
X8.9225Y-3.3289
X1.8344Y-1.8286
X11.3225Y-2.575
X7.9247Y-1.0748
X5.2092Y-2.5788
X4.2238Y-1.8286
X9.1925Y-2.5788
X7.5992Y-2.5788
X3.1381Y-1.0748
X7.3288Y-3.3289
X10.5725Y-2.575
X7.1269Y-1.0748
X11.3225Y-1.825
X4.4125Y-2.5788
X2.5477Y-3.3289
X3.4273Y-1.8286
T0
M30
